<?xml version="1.0" encoding="UTF-8" standalone="no"?>
<svg
   xmlns:dc="http://purl.org/dc/elements/1.1/"
   xmlns:cc="http://creativecommons.org/ns#"
   xmlns:rdf="http://www.w3.org/1999/02/22-rdf-syntax-ns#"
   xmlns:svg="http://www.w3.org/2000/svg"
   xmlns="http://www.w3.org/2000/svg"
   xmlns:sodipodi="http://sodipodi.sourceforge.net/DTD/sodipodi-0.dtd"
   xmlns:inkscape="http://www.inkscape.org/namespaces/inkscape"
   width="70.207741"
   height="60.419731"
   viewBox="0 0 109.45622 87.855329"
   id="svg2"
   version="1.1"
   inkscape:version="0.91 r"
   sodipodi:docname="top-social.svg"
   hola_ext_inject="disabled">
  <defs
     id="defs8271" />
  <g class="tib" id="g4263" transform="translate(0.21974137,3.2288224)">
    <g id="BUBBLE" width="100%">
      <path
         style="fill:#ffffff;fill-opacity:1;fill-rule:evenodd;stroke:#868686;stroke-width:1.84231603;stroke-linecap:butt;stroke-linejoin:miter;stroke-miterlimit:4;stroke-dasharray:none;stroke-opacity:1"
         d="m 4.0057301,-5.5831429 c -1.7097754,0 -3.0845721,1.3778419 -3.0845721,3.0876172 l 0,39.6640047 c 0,1.709775 1.3747967,3.084572 3.0845721,3.084572 l 40.6475349,0 7.968732,7.968731 c 1.044364,1.044364 2.728377,1.044364 3.772739,0 l 7.968732,-7.968731 40.647532,0 c 1.70978,0 3.08458,-1.374797 3.08458,-3.084572 l 0,-39.6640047 c 0,-1.7097753 -1.3748,-3.0876172 -3.08458,-3.0876172 l -101.0052699,0 z"
         id="COUNT-CONTAINER"
         inkscape:connector-curvature="0" />
      <g width="100%" id="g8259">
        <text class="tib_counter" id="COUNT" height="100%" x="53.507149" y="18.881933" alignment-baseline="middle" font-size="20pt" style="font-size:25px;font-family:sans-serif;text-anchor:middle;fill:#808080">0</text>
      </g>
    </g>
    <rect
       class="base_colour" style="fill-opacity:1;fill-rule:evenodd;stroke:#868686;stroke-width:0.43948275px;stroke-linecap:butt;stroke-linejoin:miter;stroke-opacity:1" id="rect3353" width="109.01674" height="34.004181" x="0" y="53.468159" ry="2.2895846" />
    <g id="g8865">
      <g id="g12747" transform="translate(-14.146569,0)">
        <path
           style="fill:#ffffff"
           inkscape:connector-curvature="0"
           d="m 50.827938,77.253141 0,-17.815002 3.152,0 0,7.071 6.029,0 0,2.877002 -6.029,0 0,8.14 c 0,0.467 0.027,0.822 0.109,1.096 0.083,0.275 0.247,0.521 0.548,0.713 0.301,0.192 0.767,0.273 1.425,0.273 l 3.672,0 0,2.879 -3.918,0 c -0.11,0 -0.274,0.027 -0.466,0.027 -1.535,0 -2.658,-0.521 -3.398,-1.535 -0.768,-1.04 -1.124,-2.273 -1.124,-3.726"
           id="LTR-t" />
        <path
           style="fill:#ffffff"
           inkscape:connector-curvature="0"
           d="m 73.382938,59.438139 -3.152,0 0,14.936002 c 0,0.109 -0.027,0.248 -0.027,0.467 0,1.041 0.274,2.191 0.794,3.453 0.521,1.287 1.371,2.385 2.521,3.316 1.15,0.931 2.631,1.398 4.44,1.398 l 0.384,0 c 1.891,-0.084 3.426,-0.521 4.659,-1.316 1.233,-0.795 2.11,-1.809 2.658,-3.016 0.548,-1.205 0.822,-2.465 0.822,-3.809 0,-0.109 0,-0.191 0,-0.246 0,-0.057 0,-0.139 0,-0.221 0,-1.699 -0.383,-3.151 -1.151,-4.33 -0.768,-1.206 -1.727,-2.110002 -2.878,-2.686002 -1.151,-0.575 -2.247,-0.876 -3.344,-0.876 -0.685,0 -1.261,0.027 -1.781,0.082 l 0,2.959002 c 0.493,-0.109 1.014,-0.165 1.508,-0.165 0.767,0 1.507,0.219 2.247,0.63 0.74,0.412 1.343,1.042 1.782,1.836 0.466,0.795 0.685,1.727 0.685,2.769 0,0.246 0,0.41 -0.027,0.52 -0.384,3.316 -2.22,4.988 -5.509,4.988 -1.096,0 -1.973,-0.301 -2.686,-0.904 -0.713,-0.603 -1.206,-1.426 -1.535,-2.467 -0.329,-1.041 -0.494,-2.193 -0.494,-3.454 l 0,-13.864002 0.084,0 z"
           id="LTR-b" />
        <rect
           style="fill:#ffffff"
           height="16.004999"
           width="2.878"
           y="66.509155"
           x="63.735954"
           id="LTR-i" />
        <circle
           style="fill:#ffffff"
           r="2.786"
           cy="74.26915"
           cx="78.484947"
           id="tib-dot" />
      </g>
    </g>
  </g>
<g class="tibbed" id="g4263" transform="translate(0.21974137,3.2288224)">
    <g id="BUBBLE" width="100%">
      <path style="fill:#ffffff;fill-opacity:1;fill-rule:evenodd;stroke:#868686;stroke-width:1.84231603;stroke-linecap:butt;stroke-linejoin:miter;stroke-miterlimit:4;stroke-dasharray:none;stroke-opacity:1" d="m 4.0057301,-5.5831429 c -1.7097754,0 -3.0845721,1.3778419 -3.0845721,3.0876172 l 0,39.6640047 c 0,1.709775 1.3747967,3.084572 3.0845721,3.084572 l 40.6475349,0 7.968732,7.968731 c 1.044364,1.044364 2.728377,1.044364 3.772739,0 l 7.968732,-7.968731 40.647532,0 c 1.70978,0 3.08458,-1.374797 3.08458,-3.084572 l 0,-39.6640047 c 0,-1.7097753 -1.3748,-3.0876172 -3.08458,-3.0876172 l -101.0052699,0 z" id="COUNT-CONTAINER" inkscape:connector-curvature="0"></path>
      <g width="100%" id="g8259">
        <text class="tib_counter" id="COUNT" height="100%" x="53.507149" y="18.881933" alignment-baseline="middle" font-size="20pt" style="font-size:25px;font-family:sans-serif;text-anchor:middle;fill:#808080">15</text>
      </g>
    </g>
    <rect class="base_colour" style="fill-opacity:1;fill-rule:evenodd;stroke:#868686;stroke-width:0.43948275px;stroke-linecap:butt;stroke-linejoin:miter;stroke-opacity:1" id="rect3353" width="109.01674" height="34.004181" x="0" y="53.468159" ry="2.2895846"></rect>
    <g id="g8865">
      <g id="g12747" transform="translate(-43,0)">
        <path style="fill:#ffffff" inkscape:connector-curvature="0" d="m 50.827938,77.253141 0,-17.815002 3.152,0 0,7.071 6.029,0 0,2.877002 -6.029,0 0,8.14 c 0,0.467 0.027,0.822 0.109,1.096 0.083,0.275 0.247,0.521 0.548,0.713 0.301,0.192 0.767,0.273 1.425,0.273 l 3.672,0 0,2.879 -3.918,0 c -0.11,0 -0.274,0.027 -0.466,0.027 -1.535,0 -2.658,-0.521 -3.398,-1.535 -0.768,-1.04 -1.124,-2.273 -1.124,-3.726" id="LTR-t"></path>
        <path style="fill:#ffffff" inkscape:connector-curvature="0" d="m 73.382938,59.438139 -3.152,0 0,14.936002 c 0,0.109 -0.027,0.248 -0.027,0.467 0,1.041 0.274,2.191 0.794,3.453 0.521,1.287 1.371,2.385 2.521,3.316 1.15,0.931 2.631,1.398 4.44,1.398 l 0.384,0 c 1.891,-0.084 3.426,-0.521 4.659,-1.316 1.233,-0.795 2.11,-1.809 2.658,-3.016 0.548,-1.205 0.822,-2.465 0.822,-3.809 0,-0.109 0,-0.191 0,-0.246 0,-0.057 0,-0.139 0,-0.221 0,-1.699 -0.383,-3.151 -1.151,-4.33 -0.768,-1.206 -1.727,-2.110002 -2.878,-2.686002 -1.151,-0.575 -2.247,-0.876 -3.344,-0.876 -0.685,0 -1.261,0.027 -1.781,0.082 l 0,2.959002 c 0.493,-0.109 1.014,-0.165 1.508,-0.165 0.767,0 1.507,0.219 2.247,0.63 0.74,0.412 1.343,1.042 1.782,1.836 0.466,0.795 0.685,1.727 0.685,2.769 0,0.246 0,0.41 -0.027,0.52 -0.384,3.316 -2.22,4.988 -5.509,4.988 -1.096,0 -1.973,-0.301 -2.686,-0.904 -0.713,-0.603 -1.206,-1.426 -1.535,-2.467 -0.329,-1.041 -0.494,-2.193 -0.494,-3.454 l 0,-13.864002 0.084,0 z" id="LTR-b"></path>
        <rect style="fill:#ffffff" height="16.004999" width="2.878" y="66.509155" x="63.735954" id="LTR-i"></rect>
        <circle style="fill:#ffffff" r="2.786" cy="74.26915" cx="78.484947" id="tib-dot"></circle>
      </g>
            <g id="BED" style="     transform: translate(1px,52.8px); ">
  <path fill="#FFFFFF" d="M61.01,18.325c-0.415-0.971-0.997-1.807-1.751-2.505c-0.754-0.699-1.629-1.233-2.627-1.602     c-0.998-0.368-2.064-0.552-3.199-0.552c-0.359,0-0.709,0.022-1.051,0.067v2.812c0.385-0.067,0.801-0.104,1.253-0.104     c0.823,0,1.615,0.191,2.377,0.577c0.761,0.385,1.392,0.984,1.892,1.799c0.5,0.816,0.774,1.83,0.822,3.047     c0,0.859-0.191,1.721-0.576,2.582c-0.385,0.859-0.971,1.57-1.76,2.131c-0.787,0.559-1.752,0.84-2.893,0.84     c-1.027,0-1.932-0.262-2.714-0.785c-0.784-0.521-1.386-1.225-1.808-2.109c-0.422-0.887-0.635-1.859-0.635-2.926V6.693h-2.904     v15.234c0,1.463,0.343,2.824,1.028,4.078c0.687,1.256,1.643,2.264,2.873,3.02c1.229,0.754,2.616,1.143,4.159,1.164     c1.674,0,3.126-0.4,4.357-1.201c1.232-0.801,2.17-1.867,2.812-3.195c0.643-1.33,0.964-2.75,0.964-4.26     C61.631,20.364,61.425,19.295,61.01,18.325z"></path>
  <path fill="#FFFFFF" d="M67.44,22.291l7.9-4.365c-0.441-0.453-0.908-0.813-1.396-1.083c-0.49-0.269-1.256-0.403-2.301-0.403     c-1.027,0-1.926,0.256-2.697,0.767c-0.773,0.511-1.365,1.206-1.775,2.082c-0.412,0.876-0.618,1.844-0.618,2.905     c0.044,0.883,0.272,1.727,0.687,2.529c0.414,0.805,1.008,1.453,1.783,1.951c0.774,0.494,1.691,0.742,2.751,0.742     c1.608-0.033,2.81-0.463,3.603-1.289c0.793-0.824,1.355-2.061,1.683-3.707l2.913,0.404c-0.017,0.768-0.203,1.574-0.562,2.42     c-0.357,0.846-0.893,1.65-1.605,2.416c-0.712,0.768-1.595,1.387-2.646,1.859c-1.053,0.475-2.248,0.717-3.588,0.736     c-1.398,0-2.721-0.361-3.965-1.084c-1.246-0.719-2.239-1.691-2.981-2.918c-0.743-1.227-1.114-2.547-1.114-3.963     c0-1.438,0.244-2.705,0.73-3.805c0.486-1.1,1.134-2.006,1.94-2.72c0.808-0.713,1.688-1.241,2.643-1.585     c0.954-0.344,1.896-0.516,2.819-0.516c1.813,0,3.338,0.41,4.571,1.23c1.235,0.822,2.299,2.086,3.192,3.796l-10.708,5.948     L67.44,22.291z"></path>
  <path fill="#FFFFFF" d="M95.108,6.758h2.904v15.5c0,1.006-0.281,2.135-0.843,3.385c-0.562,1.252-1.463,2.332-2.702,3.244     c-1.24,0.912-2.791,1.369-4.652,1.369c-1.398-0.033-2.609-0.312-3.631-0.832c-1.021-0.521-1.846-1.191-2.475-2.006     c-0.625-0.814-1.09-1.664-1.391-2.545c-0.301-0.883-0.479-1.742-0.533-2.582c0-1.416,0.229-2.662,0.683-3.741     c0.455-1.079,1.042-1.969,1.765-2.667c0.721-0.699,1.502-1.229,2.344-1.591c0.843-0.359,1.66-0.548,2.451-0.563     c2.186,0,3.828,0.362,4.926,1.089v3.107c-1.398-0.948-2.955-1.421-4.666-1.421c-1.314,0.14-2.415,0.681-3.3,1.625     c-0.886,0.944-1.329,2.188-1.329,3.733c0,0.305,0.012,0.537,0.032,0.693c0.103,1.205,0.447,2.176,1.034,2.912     c0.586,0.738,1.267,1.256,2.043,1.559c0.774,0.301,1.512,0.453,2.213,0.453c1.081-0.023,2.008-0.309,2.777-0.861     c0.77-0.551,1.354-1.309,1.752-2.275s0.598-2.059,0.598-3.279V6.758z"></path>
</g>
    </g>
  </g>
  <style></style>
</svg>
