<?xml version="1.0" encoding="utf-8"?>
<!-- Generator: Adobe Illustrator 16.0.0, SVG Export Plug-In . SVG Version: 6.00 Build 0)  -->
<!DOCTYPE svg PUBLIC "-//W3C//DTD SVG 1.1//EN" "http://www.w3.org/Graphics/SVG/1.1/DTD/svg11.dtd">
<svg version="1.1" id="Layer_1" xmlns="http://www.w3.org/2000/svg" xmlns:xlink="http://www.w3.org/1999/xlink" x="0px" y="0px"
	 width="140px" height="40.375px" viewBox="0 0 90 22" enable-background="new 0 0 90 22" xml:space="preserve">
	 <g class="tib">
<rect class="SUBBACK base_colour" width="100%" height="22"/>
<rect class="SUBBACK tint" width="100%" height="22"/>
<path class="background no_count base_colour" d="M70,10.906C66.031,15.281,60,22,60,22H0V0h60C60,0,65.844,6.344,70,10.906z"/>
<g class="no_count tib_word">
	<path id="LTR-t" fill="#FFFFFF" d="M29.297,15.108V3.181h2.11v4.734h4.037v1.927h-4.037v5.45c0,0.311,0.019,0.55,0.073,0.733
		s0.166,0.348,0.366,0.477c0.202,0.129,0.515,0.184,0.955,0.184h2.459v1.927h-2.624c-0.073,0-0.185,0.018-0.312,0.018
		c-1.028,0-1.78-0.349-2.276-1.027C29.535,16.906,29.297,16.081,29.297,15.108"/>
	<path id="LTR-b" fill="#FFFFFF" d="M44.398,3.181h-2.11v10c0,0.073-0.019,0.165-0.019,0.311c0,0.698,0.183,1.469,0.532,2.312
		c0.349,0.862,0.918,1.596,1.688,2.22s1.762,0.937,2.972,0.937h0.258c1.266-0.056,2.294-0.349,3.119-0.881
		c0.825-0.533,1.413-1.211,1.779-2.019c0.367-0.808,0.551-1.651,0.551-2.55c0-0.074,0-0.129,0-0.166c0-0.037,0-0.092,0-0.146
		c0-1.138-0.257-2.11-0.77-2.899c-0.516-0.808-1.158-1.413-1.928-1.798c-0.771-0.385-1.505-0.587-2.238-0.587
		c-0.46,0-0.845,0.019-1.193,0.055v1.982c0.331-0.073,0.68-0.11,1.01-0.11c0.513,0,1.009,0.147,1.505,0.422
		c0.495,0.276,0.899,0.697,1.192,1.229c0.311,0.533,0.458,1.157,0.458,1.854c0,0.166,0,0.275-0.018,0.348
		c-0.257,2.22-1.487,3.34-3.688,3.34c-0.734,0-1.321-0.202-1.799-0.606c-0.477-0.404-0.806-0.955-1.026-1.651
		c-0.22-0.697-0.331-1.468-0.331-2.312V3.181H44.398z"/>
	<rect id="LTR-i" x="37.939" y="7.915" fill="#FFFFFF" width="1.927" height="10.716"/>
	<circle id="tib-dot" fill="#FFFFFF" cx="47.72" cy="13.273" r="1.865"/>
</g>
<g class="no_count tib_t">
	<defs>
		<path id="SPECT" d="M7.549,6.704h3.83v1.639h-3.83v5.679c0,0.938,0.238,1.692,0.714,2.259c0.478,0.569,1.132,0.854,1.968,0.854
			c0.464,0,0.877-0.094,1.246-0.278c0.367-0.187,0.663-0.422,0.89-0.708c0.226-0.284,0.398-0.604,0.512-0.957
			c0.115-0.353,0.173-0.697,0.173-1.025c0-0.507-0.075-0.947-0.227-1.324c-0.147-0.377-0.355-0.691-0.625-0.942
			c-0.268-0.25-0.555-0.431-0.861-0.54c-0.312-0.108-0.632-0.163-0.967-0.163c-0.246,0-0.485,0.027-0.718,0.084V9.754
			c0.272-0.05,0.552-0.075,0.836-0.075c0.559,0,1.093,0.097,1.604,0.287c0.514,0.193,0.969,0.473,1.37,0.844
			c0.398,0.371,0.715,0.818,0.944,1.333c0.229,0.516,0.344,1.095,0.344,1.737c0,0.836-0.175,1.62-0.524,2.354
			c-0.351,0.729-0.872,1.324-1.561,1.777c-0.69,0.455-1.502,0.681-2.437,0.681c-1.415,0-2.499-0.461-3.253-1.384
			c-0.753-0.923-1.131-2.063-1.131-3.427V3.105h1.702V6.704z"/>
	</defs>
	<defs>
		<path id="COIN" d="M10.271,12.562c0.905,0,1.639,0.734,1.639,1.638c0,0.905-0.733,1.638-1.639,1.638
			c-0.904,0-1.638-0.733-1.638-1.638C8.634,13.296,9.367,12.562,10.271,12.562"/>
	</defs>
	<use xlink:href="#SPECT"  overflow="visible" fill-rule="evenodd" clip-rule="evenodd" fill="#FFFFFF"/>
	<use xlink:href="#COIN"  overflow="visible" fill-rule="evenodd" clip-rule="evenodd" fill="#FFFFFF"/>
	<clipPath id="SPECT_1_">
		<use xlink:href="#SPECT"  overflow="visible"/>
	</clipPath>
	<clipPath id="COIN_1_" clip-path="url(#SPECT_1_)">
		<use xlink:href="#COIN"  overflow="visible"/>
	</clipPath>
</g>
<rect class="no_count divider" x="21" y="3" fill-rule="evenodd" clip-rule="evenodd" fill="#FFFFFF" width="1" height="16"/>
<rect x="70.993" y="7.333" fill="none" width="18.875" height="7.417"/>
<text class="no_count tib_counter" transform="matrix(1 0 0 1 73.0156 14.6436)" fill="#FFFFFF" font-family="'Systopie'" font-size="10">123</text>
</g>
<g class="tibbed">

	<path class="base_colour" fill="#00D30A" d="M70,10.906C66.031,15.281,60,22,60,22H0V0h60C60,0,65.844,6.344,70,10.906z"/>
<g id="TIB">
	<path id="LTR-t" fill="#FFFFFF" d="M3.446,14.108V4.875H5.08V8.54h3.125v1.492H5.08v4.22c0,0.241,0.014,0.425,0.057,0.567
		c0.042,0.143,0.128,0.27,0.284,0.37c0.156,0.1,0.398,0.142,0.739,0.142h1.904v1.492H6.032c-0.057,0-0.143,0.014-0.241,0.014
		c-0.796,0-1.378-0.27-1.762-0.795C3.631,15.5,3.446,14.862,3.446,14.108"/>
	<path id="LTR-b" fill="#FFFFFF" d="M15.138,4.875h-1.634v7.742c0,0.056-0.015,0.127-0.015,0.241c0,0.541,0.142,1.137,0.412,1.79
		c0.27,0.667,0.711,1.236,1.307,1.719c0.597,0.483,1.364,0.725,2.301,0.725h0.2c0.979-0.043,1.776-0.27,2.415-0.682
		c0.639-0.413,1.094-0.938,1.377-1.563c0.284-0.625,0.426-1.278,0.426-1.974c0-0.057,0-0.1,0-0.128s0-0.071,0-0.113
		c0-0.881-0.199-1.634-0.596-2.245c-0.399-0.625-0.896-1.094-1.492-1.392c-0.597-0.298-1.165-0.455-1.733-0.455
		c-0.356,0-0.654,0.015-0.924,0.043v1.534c0.256-0.057,0.526-0.085,0.782-0.085c0.397,0,0.781,0.114,1.165,0.327
		c0.383,0.214,0.696,0.54,0.923,0.952c0.241,0.412,0.355,0.896,0.355,1.435c0,0.128,0,0.213-0.014,0.27
		c-0.199,1.719-1.151,2.586-2.855,2.586c-0.569,0-1.023-0.156-1.393-0.469c-0.369-0.313-0.624-0.739-0.795-1.279
		c-0.17-0.539-0.256-1.136-0.256-1.79V4.875H15.138z"/>
	<rect id="LTR-i" x="10.137" y="8.54" fill="#FFFFFF" width="1.492" height="8.296"/>
	<circle id="tib-dot" fill="#FFFFFF" stroke="#FFFFFF" stroke-miterlimit="10" cx="17.709" cy="12.688" r="1.444"/>
</g>
<polygon class="base_colour" fill="#006602" points="60,22 75,22 90,22 90,11 90,0 75,0 60,0 53.169,11 "/>
<polygon class="tint" fill="#006602" points="60,22 75,22 90,22 90,11 90,0 75,0 60,0 53.169,11 "/>
<rect x="70.993" y="7.333" fill="none" width="18.875" height="7.417"/>
<text class="no_count tib_counter" transform="matrix(1 0 0 1 73.0156 14.6436)" fill="#FFFFFF" font-family="'Systopie'" font-size="10">123</text>
<g class="no_count tib_t">
	<defs>
		<path id="SPECT" d="M7.549,6.704h3.83v1.639h-3.83v5.679c0,0.938,0.238,1.692,0.714,2.259c0.478,0.569,1.132,0.854,1.968,0.854    c0.464,0,0.877-0.094,1.246-0.278c0.367-0.187,0.663-0.422,0.89-0.708c0.226-0.284,0.398-0.604,0.512-0.957    c0.115-0.353,0.173-0.697,0.173-1.025c0-0.507-0.075-0.947-0.227-1.324c-0.147-0.377-0.355-0.691-0.625-0.942    c-0.268-0.25-0.555-0.431-0.861-0.54c-0.312-0.108-0.632-0.163-0.967-0.163c-0.246,0-0.485,0.027-0.718,0.084V9.754    c0.272-0.05,0.552-0.075,0.836-0.075c0.559,0,1.093,0.097,1.604,0.287c0.514,0.193,0.969,0.473,1.37,0.844    c0.398,0.371,0.715,0.818,0.944,1.333c0.229,0.516,0.344,1.095,0.344,1.737c0,0.836-0.175,1.62-0.524,2.354    c-0.351,0.729-0.872,1.324-1.561,1.777c-0.69,0.455-1.502,0.681-2.437,0.681c-1.415,0-2.499-0.461-3.253-1.384    c-0.753-0.923-1.131-2.063-1.131-3.427V3.105h1.702V6.704z"/>
	</defs>
	<defs>
		<path id="COIN" d="M10.271,12.562c0.905,0,1.639,0.734,1.639,1.638c0,0.905-0.733,1.638-1.639,1.638    c-0.904,0-1.638-0.733-1.638-1.638C8.634,13.296,9.367,12.562,10.271,12.562"/>
	</defs>
	<use xmlns:xlink="http://www.w3.org/1999/xlink" xlink:href="#SPECT" overflow="visible" fill-rule="evenodd" clip-rule="evenodd" fill="#FFFFFF"/>
	<use xmlns:xlink="http://www.w3.org/1999/xlink" xlink:href="#COIN" overflow="visible" fill-rule="evenodd" clip-rule="evenodd" fill="#FFFFFF"/>
	<clipPath id="SPECT_1_">
		<use xmlns:xlink="http://www.w3.org/1999/xlink" xlink:href="#SPECT" overflow="visible"/>
	</clipPath>
	<clipPath id="COIN_1_" clip-path="url(#SPECT_1_)">
		<use xmlns:xlink="http://www.w3.org/1999/xlink" xlink:href="#COIN" overflow="visible"/>
	</clipPath>
</g>
<g id="BED">
	<path fill="#FFFFFF" d="M31.155,10.921c-0.219-0.515-0.528-0.958-0.927-1.327c-0.399-0.37-0.862-0.653-1.391-0.849
		c-0.528-0.195-1.093-0.292-1.694-0.292c-0.19,0-0.376,0.012-0.558,0.036v1.49c0.204-0.036,0.424-0.055,0.664-0.055
		c0.436,0,0.855,0.101,1.259,0.305c0.403,0.204,0.737,0.522,1.002,0.953c0.265,0.432,0.41,0.969,0.436,1.614
		c0,0.456-0.102,0.912-0.306,1.368c-0.204,0.455-0.514,0.831-0.932,1.128c-0.417,0.296-0.928,0.445-1.532,0.445
		c-0.544,0-1.023-0.139-1.438-0.415c-0.415-0.276-0.734-0.649-0.958-1.117c-0.224-0.47-0.336-0.986-0.336-1.55V4.761h-1.538v8.068
		c0,0.775,0.182,1.496,0.544,2.16c0.364,0.666,0.87,1.199,1.521,1.599c0.651,0.399,1.386,0.605,2.203,0.617
		c0.886,0,1.656-0.213,2.308-0.637c0.652-0.424,1.149-0.988,1.49-1.692c0.34-0.704,0.51-1.456,0.51-2.256
		C31.484,12.001,31.375,11.436,31.155,10.921z"/>
	<path fill="#FFFFFF" d="M34.562,13.021l4.184-2.311c-0.234-0.24-0.48-0.431-0.739-0.574c-0.259-0.143-0.666-0.213-1.218-0.213
		c-0.544,0-1.021,0.136-1.43,0.406c-0.409,0.271-0.722,0.639-0.939,1.103c-0.219,0.464-0.328,0.977-0.328,1.539
		c0.023,0.467,0.144,0.914,0.363,1.339c0.219,0.427,0.534,0.77,0.944,1.033c0.411,0.262,0.896,0.394,1.458,0.394
		c0.852-0.017,1.488-0.245,1.908-0.683c0.42-0.437,0.718-1.092,0.891-1.963l1.543,0.214c-0.009,0.407-0.108,0.834-0.298,1.282
		c-0.189,0.448-0.473,0.874-0.85,1.28c-0.377,0.406-0.845,0.734-1.401,0.985c-0.557,0.251-1.19,0.38-1.9,0.389
		c-0.741,0-1.441-0.191-2.101-0.573c-0.66-0.382-1.186-0.897-1.579-1.547c-0.394-0.649-0.59-1.348-0.59-2.099
		c0-0.761,0.129-1.432,0.387-2.014c0.258-0.583,0.601-1.063,1.028-1.44c0.427-0.378,0.894-0.658,1.399-0.84
		c0.505-0.182,1.003-0.273,1.494-0.273c0.96,0,1.767,0.217,2.42,0.652c0.655,0.435,1.218,1.104,1.691,2.011l-5.671,3.15
		L34.562,13.021z"/>
	<path fill="#FFFFFF" d="M49.216,4.795h1.538v8.209c0,0.533-0.148,1.131-0.447,1.793c-0.297,0.663-0.774,1.235-1.431,1.718
		c-0.657,0.484-1.478,0.725-2.463,0.725c-0.742-0.017-1.382-0.165-1.923-0.44c-0.542-0.276-0.978-0.63-1.311-1.062
		c-0.331-0.431-0.577-0.881-0.737-1.348c-0.16-0.467-0.254-0.923-0.282-1.368c0-0.749,0.121-1.409,0.361-1.98
		c0.241-0.572,0.552-1.043,0.935-1.413c0.382-0.37,0.796-0.65,1.242-0.842c0.446-0.19,0.879-0.29,1.298-0.298
		c1.158,0,2.028,0.192,2.609,0.576v1.646c-0.741-0.503-1.565-0.753-2.472-0.753c-0.696,0.074-1.279,0.361-1.748,0.861
		c-0.469,0.5-0.704,1.159-0.704,1.977c0,0.162,0.006,0.284,0.017,0.367c0.054,0.639,0.237,1.153,0.547,1.543
		c0.311,0.39,0.671,0.666,1.083,0.825c0.41,0.16,0.801,0.239,1.172,0.239c0.573-0.012,1.063-0.163,1.471-0.455
		c0.407-0.292,0.717-0.693,0.928-1.206s0.317-1.09,0.317-1.737V4.795z"/>
</g>
</g>
<style>


	.no_count.tib_word {
		transform:translate(-10px,0);
	}

	.no_count.tib_t{
		transform:translate(65px,0);
	}

	.no_count.divider {
		display:none;
	}

	.no_count.tib_counter {
		display:none;
	}

	.no_count.background {
		transform: scaleX(0.95);
	}

	.tibbed .count.tib_t{
		display:none;
	}

	.base_colour {
		fill: red;
	}

	.tint {
		fill:#000;
		opacity:0.4;
	}
</style>
</svg>
