<?xml version="1.0" encoding="utf-8"?>
<!-- Generator: Adobe Illustrator 16.0.0, SVG Export Plug-In . SVG Version: 6.00 Build 0)  -->
<!DOCTYPE svg PUBLIC "-//W3C//DTD SVG 1.1//EN" "http://www.w3.org/Graphics/SVG/1.1/DTD/svg11.dtd">
<svg version="1.1" id="tib-btn-shadow" xmlns="http://www.w3.org/2000/svg" xmlns:xlink="http://www.w3.org/1999/xlink"
	 viewBox="0 0 108.13 37.94"
	 xml:space="preserve">
<style type="text/css">
<![CDATA[
	.st0{visibility:hidden;opacity:0.8;}
	.st1{fill:#8CC63F;}
	.st2{display:inline;fill:#FFF200;}
	.st3{display:inline;fill:#FFFFFF;}
	.st4{fill:#FFFFFF;}
	.st5{fill:none;}
	.st6{display:inline;}
	.st7{visibility:hidden;}
]]>
</style>
<rect class="bd-btn-cover bd-ai-st5"  y="-0.04"   width="108.13" height="37.98"/>
<g class="bd-btn-backdrop">
	<path class="bd-ai-st1" d="M106,31c0,2.76-2.24,5-5,5H6c-2.76,0-5-2.24-5-5V6c0-2.76,2.24-5,5-5h95c2.76,0,5,2.24,5,5V31z"/>
</g>
<g class="bd-btn-untibbed">
	<path class="bd-ai-st4" d="M33.76,26.05V3.75h3.94v8.85h7.55v3.6H37.7v10.19c0,0.58,0.03,1.03,0.14,1.37c0.1,0.34,0.31,0.65,0.69,0.89
		c0.38,0.24,0.96,0.34,1.78,0.34h4.6v3.6H40c-0.14,0-0.34,0.03-0.58,0.03c-1.92,0-3.33-0.65-4.25-1.92
		C34.21,29.41,33.76,27.86,33.76,26.05"/>
	<path class="bd-ai-st4" d="M61.99,3.75h-3.94v18.7c0,0.14-0.03,0.31-0.03,0.58c0,1.3,0.34,2.75,0.99,4.32c0.65,1.61,1.72,2.98,3.16,4.15
		c1.44,1.17,3.29,1.75,5.56,1.75h0.48c2.37-0.1,4.29-0.65,5.83-1.65c1.54-0.99,2.64-2.26,3.33-3.77c0.69-1.51,1.03-3.09,1.03-4.77
		c0-0.14,0-0.24,0-0.31c0-0.07,0-0.17,0-0.27c0-2.13-0.48-3.95-1.44-5.42c-0.96-1.51-2.16-2.64-3.6-3.36
		c-1.44-0.72-2.81-1.1-4.19-1.1c-0.86,0-1.58,0.03-2.23,0.1v3.71c0.62-0.14,1.27-0.21,1.89-0.21c0.96,0,1.89,0.27,2.81,0.79
		c0.93,0.51,1.68,1.3,2.23,2.3c0.58,1,0.86,2.16,0.86,3.46c0,0.31,0,0.51-0.03,0.65c-0.48,4.15-2.78,6.24-6.9,6.24
		c-1.37,0-2.47-0.38-3.36-1.13s-1.51-1.78-1.92-3.09c-0.41-1.3-0.62-2.74-0.62-4.32V3.75H61.99z"/>
	<rect x="49.92" y="12.6" class="bd-ai-st4" width="3.6" height="20.03"/>
	<circle class="bd-ai-st4" cx="68.2" cy="23.25" r="3.49"/>
</g>
<g class="bd-btn-tibbed bd-ai-st0"   >
	<path class="bd-ai-st3" d="M7.65,23.74V5.92h3.15v7.07h6.03v2.88H10.8v8.14c0,0.47,0.03,0.82,0.11,1.1c0.08,0.27,0.25,0.52,0.55,0.71
		c0.3,0.19,0.77,0.27,1.42,0.27h3.67v2.88h-3.92c-0.11,0-0.27,0.03-0.47,0.03c-1.53,0-2.66-0.52-3.4-1.53
		C8,26.42,7.65,25.19,7.65,23.74"/>
	<path class="bd-ai-st3" d="M30.2,5.92h-3.15v14.94c0,0.11-0.03,0.25-0.03,0.46c0,1.04,0.27,2.19,0.79,3.45c0.52,1.29,1.37,2.38,2.52,3.32
		c1.15,0.93,2.63,1.4,4.44,1.4h0.38c1.89-0.08,3.43-0.52,4.66-1.32c1.23-0.79,2.11-1.81,2.66-3.01c0.55-1.21,0.82-2.47,0.82-3.81
		c0-0.11,0-0.19,0-0.25c0-0.06,0-0.14,0-0.22c0-1.7-0.38-3.15-1.15-4.33c-0.77-1.21-1.73-2.11-2.88-2.69
		c-1.15-0.58-2.25-0.88-3.34-0.88c-0.68,0-1.26,0.03-1.78,0.08v2.96c0.49-0.11,1.01-0.16,1.51-0.16c0.77,0,1.51,0.22,2.25,0.63
		c0.74,0.41,1.34,1.04,1.78,1.84c0.47,0.79,0.68,1.73,0.68,2.77c0,0.25,0,0.41-0.03,0.52c-0.38,3.32-2.22,4.99-5.51,4.99
		c-1.1,0-1.97-0.3-2.69-0.9c-0.71-0.6-1.21-1.42-1.53-2.47c-0.33-1.04-0.49-2.19-0.49-3.45V5.92H30.2z"/>
	<rect x="20.56" y="12.99" class="bd-ai-st3" width="2.88" height="16"/>
	<circle class="bd-ai-st3" cx="35.3" cy="20.75" r="2.79"/>
	<g class="bd-ai-st6">
		<path class="bd-ai-st4" d="M61.48,17.82c-0.42-0.97-1-1.81-1.75-2.51s-1.63-1.23-2.63-1.6s-2.06-0.55-3.2-0.55
			c-0.36,0-0.71,0.02-1.05,0.07v2.81c0.38-0.07,0.8-0.1,1.25-0.1c0.82,0,1.62,0.19,2.38,0.58c0.76,0.38,1.39,0.98,1.89,1.8
			c0.5,0.82,0.77,1.83,0.82,3.05c0,0.86-0.19,1.72-0.58,2.58c-0.38,0.86-0.97,1.57-1.76,2.13c-0.79,0.56-1.75,0.84-2.89,0.84
			c-1.03,0-1.93-0.26-2.71-0.78c-0.78-0.52-1.39-1.23-1.81-2.11c-0.42-0.89-0.63-1.86-0.63-2.93V6.18h-2.9v15.23
			c0,1.46,0.34,2.82,1.03,4.08c0.69,1.26,1.64,2.26,2.87,3.02c1.23,0.75,2.62,1.14,4.16,1.17c1.67,0,3.13-0.4,4.36-1.2
			c1.23-0.8,2.17-1.87,2.81-3.2c0.64-1.33,0.96-2.75,0.96-4.26C62.1,19.85,61.9,18.79,61.48,17.82z"/>
		<path class="bd-ai-st4" d="M67.91,21.78l7.9-4.36c-0.44-0.45-0.91-0.81-1.4-1.08c-0.49-0.27-1.25-0.4-2.3-0.4
			c-1.03,0-1.93,0.26-2.7,0.77c-0.77,0.51-1.36,1.21-1.77,2.08c-0.41,0.88-0.62,1.84-0.62,2.9c0.04,0.88,0.27,1.73,0.69,2.53
			c0.42,0.81,1.01,1.46,1.78,1.95c0.78,0.49,1.69,0.74,2.75,0.74c1.61-0.03,2.81-0.46,3.6-1.29c0.79-0.82,1.35-2.06,1.68-3.71
			l2.91,0.4c-0.02,0.77-0.2,1.58-0.56,2.42c-0.36,0.85-0.89,1.65-1.61,2.42c-0.71,0.77-1.59,1.39-2.65,1.86
			c-1.05,0.47-2.25,0.72-3.59,0.73c-1.4,0-2.72-0.36-3.97-1.08c-1.25-0.72-2.24-1.69-2.98-2.92c-0.74-1.23-1.11-2.55-1.11-3.96
			c0-1.44,0.24-2.7,0.73-3.8c0.49-1.1,1.13-2.01,1.94-2.72c0.81-0.71,1.69-1.24,2.64-1.58s1.9-0.52,2.82-0.52
			c1.81,0,3.34,0.41,4.57,1.23c1.24,0.82,2.3,2.09,3.19,3.8l-10.71,5.95L67.91,21.78z"/>
		<path class="bd-ai-st4" d="M95.58,6.25h2.9v15.5c0,1-0.28,2.14-0.84,3.38c-0.56,1.25-1.46,2.33-2.7,3.24s-2.79,1.37-4.65,1.37
			c-1.4-0.03-2.61-0.31-3.63-0.83c-1.02-0.52-1.85-1.19-2.47-2.01c-0.63-0.81-1.09-1.66-1.39-2.54c-0.3-0.88-0.48-1.74-0.53-2.58
			c0-1.42,0.23-2.66,0.68-3.74c0.46-1.08,1.04-1.97,1.76-2.67c0.72-0.7,1.5-1.23,2.34-1.59c0.84-0.36,1.66-0.55,2.45-0.56
			c2.19,0,3.83,0.36,4.93,1.09v3.11c-1.4-0.95-2.96-1.42-4.67-1.42c-1.31,0.14-2.41,0.68-3.3,1.63c-0.89,0.94-1.33,2.19-1.33,3.73
			c0,0.3,0.01,0.54,0.03,0.69c0.1,1.21,0.45,2.18,1.03,2.91c0.59,0.74,1.27,1.26,2.04,1.56c0.78,0.3,1.51,0.45,2.21,0.45
			c1.08-0.02,2.01-0.31,2.78-0.86c0.77-0.55,1.35-1.31,1.75-2.28c0.4-0.97,0.6-2.06,0.6-3.28V6.25H95.58z"/>
	</g>
</g>
<g class="bd-btn-testnet bd-ai-st7"   >
	<rect x="0.68" y="2.44" class="bd-btn-testnet-backdrop bd-ai-st2" width="23" height="30.81"/>
	<path class="bd-ai-st6" d="M18.81,27.73H5.55c-0.96,0-1.65-0.55-1.65-1.3c0-0.7,0.3-1.16,0.35-1.23l5.41-9.29V9.89
		c-0.5-0.5-0.68-0.83-0.58-1.07C9.11,8.74,9.21,8.6,9.5,8.6c0.02,0,0.04,0,0.06,0c0.07-0.01,0.15-0.02,0.25-0.02
		c0.16,0,0.3,0.02,0.35,0.03h4.04c0.05-0.01,0.19-0.03,0.35-0.03c0.1,0,0.18,0.01,0.25,0.02c0.02,0,0.04,0,0.06,0
		c0.29,0,0.39,0.14,0.42,0.22c0.1,0.23-0.08,0.57-0.57,1.07v6.02l5.41,9.29c0.05,0.07,0.35,0.53,0.35,1.23
		C20.47,27.18,19.77,27.73,18.81,27.73z M9.39,8.96c0,0-0.02,0.17,0.55,0.74l0.05,0.05V16l-5.47,9.39c0,0-0.29,0.41-0.29,1.04
		c0,0.66,0.68,0.97,1.31,0.97h13.27c0.63,0,1.31-0.3,1.31-0.97c0-0.64-0.28-1.03-0.29-1.04l-0.01-0.01l-5.46-9.37V9.75l0.05-0.05
		c0.58-0.58,0.55-0.75,0.55-0.75s-0.04-0.01-0.11-0.01c-0.02,0-0.04,0-0.05,0h-0.03l-0.02-0.01c-0.03-0.01-0.1-0.02-0.2-0.02
		c-0.16,0-0.31,0.02-0.31,0.02h-0.03h-4.09c0,0-0.15-0.02-0.31-0.02c-0.1,0-0.16,0.01-0.2,0.02L9.58,8.94H9.55
		c-0.01,0-0.03,0-0.05,0C9.43,8.94,9.39,8.95,9.39,8.96L9.39,8.96z"/>
	<path class="bd-ai-st6" d="M8.7,19.52l-3.34,5.54c0,0-0.36,0.68-0.19,1.17c0.17,0.49,0.28,0.81,1.82,0.81c1.53,0,11,0,11,0
		s1.01,0.03,1.2-0.77s-0.11-1.18-0.72-2.13c-0.61-0.95-2.6-4.22-2.6-4.22s-0.84,0.47-1.64,0.46s-2.04,0.19-2.76-0.05
		C10.76,20.1,8.98,19.19,8.7,19.52z"/>
	<g class="bd-ai-st6">
		<g>
			<circle cx="12.92" cy="18.07" r="1.15"/>
			<path d="M12.92,19.27c-0.66,0-1.2-0.54-1.2-1.2c0-0.66,0.54-1.2,1.2-1.2s1.2,0.54,1.2,1.2C14.12,18.73,13.58,19.27,12.92,19.27z
				 M12.92,16.96c-0.61,0-1.11,0.5-1.11,1.11c0,0.61,0.5,1.11,1.11,1.11s1.11-0.5,1.11-1.11C14.03,17.46,13.53,16.96,12.92,16.96z"
				/>
		</g>
		<g>
			<path d="M13.7,18.07c0-0.43-0.35-0.78-0.78-0.78"/>
			<path d="M13.7,18.11c-0.02,0-0.04-0.02-0.04-0.04c0-0.41-0.33-0.74-0.74-0.74c-0.02,0-0.04-0.02-0.04-0.04
				c0-0.02,0.02-0.04,0.04-0.04c0.45,0,0.82,0.37,0.82,0.82C13.74,18.09,13.72,18.11,13.7,18.11z"/>
		</g>
	</g>
	<g class="bd-ai-st6">
		<g>
			<circle cx="11.29" cy="19.78" r="0.83"/>
			<path d="M11.29,20.65c-0.48,0-0.87-0.39-0.87-0.87c0-0.48,0.39-0.87,0.87-0.87s0.87,0.39,0.87,0.87
				C12.17,20.26,11.77,20.65,11.29,20.65z M11.29,18.99c-0.44,0-0.79,0.35-0.79,0.79c0,0.44,0.35,0.79,0.79,0.79
				s0.79-0.35,0.79-0.79C12.08,19.34,11.73,18.99,11.29,18.99z"/>
		</g>
		<g>
			<path d="M11.85,19.78c0-0.31-0.25-0.56-0.56-0.56"/>
			<path d="M11.85,19.82c-0.02,0-0.04-0.02-0.04-0.04c0-0.29-0.23-0.52-0.52-0.52c-0.02,0-0.04-0.02-0.04-0.04
				c0-0.02,0.02-0.04,0.04-0.04c0.33,0,0.6,0.27,0.6,0.6C11.89,19.8,11.88,19.82,11.85,19.82z"/>
		</g>
	</g>
	<g class="bd-ai-st6">
		<g>
			<circle cx="12.61" cy="21.18" r="0.79"/>
			<path d="M12.6,22.01c-0.46,0-0.83-0.37-0.83-0.83s0.37-0.83,0.83-0.83s0.83,0.37,0.83,0.83S13.06,22.01,12.6,22.01z M12.6,20.44
				c-0.41,0-0.74,0.33-0.74,0.74s0.33,0.74,0.74,0.74c0.41,0,0.74-0.33,0.74-0.74C13.35,20.77,13.01,20.44,12.6,20.44z"/>
		</g>
		<g>
			<path d="M13.14,21.18c0-0.29-0.24-0.53-0.53-0.53"/>
			<path d="M13.14,21.23c-0.02,0-0.04-0.02-0.04-0.04c0-0.27-0.22-0.49-0.49-0.49c-0.02,0-0.04-0.02-0.04-0.04
				c0-0.02,0.02-0.04,0.04-0.04c0.32,0,0.57,0.26,0.57,0.57C13.18,21.21,13.16,21.23,13.14,21.23z"/>
		</g>
	</g>
	<g class="bd-ai-st6">
		<g>
			<circle cx="11.02" cy="22.19" r="0.49"/>
			<path d="M11.02,22.72c-0.29,0-0.53-0.24-0.53-0.53s0.24-0.53,0.53-0.53s0.53,0.24,0.53,0.53S11.31,22.72,11.02,22.72z
				 M11.02,21.74c-0.25,0-0.45,0.2-0.45,0.45s0.2,0.45,0.45,0.45s0.45-0.2,0.45-0.45S11.26,21.74,11.02,21.74z"/>
		</g>
		<g>
			<path d="M11.35,22.19c0-0.18-0.15-0.33-0.33-0.33"/>
			<path d="M11.35,22.23c-0.02,0-0.04-0.02-0.04-0.04c0-0.16-0.13-0.29-0.29-0.29c-0.02,0-0.04-0.02-0.04-0.04
				c0-0.02,0.02-0.04,0.04-0.04c0.21,0,0.37,0.17,0.37,0.37C11.39,22.21,11.37,22.23,11.35,22.23z"/>
		</g>
	</g>
</g>

</svg>
