<?xml version="1.0" encoding="utf-8"?>
<!-- Generator: Adobe Illustrator 16.0.0, SVG Export Plug-In . SVG Version: 6.00 Build 0)  -->
<!DOCTYPE svg PUBLIC "-//W3C//DTD SVG 1.1//EN" "http://www.w3.org/Graphics/SVG/1.1/DTD/svg11.dtd">
<svg version="1.1" id="tib-btn-bubble" xmlns="http://www.w3.org/2000/svg" xmlns:xlink="http://www.w3.org/1999/xlink"
	 viewBox="0 0 153.33 115.38"
	 xml:space="preserve">
<style type="text/css">
<![CDATA[
	.st0{visibility:hidden;opacity:0.1;fill:#FFFFFF;enable-background:new    ;}
	.st1{fill:#8BBC3F;}
	.st2{font-family:'Systopie';}
	.st3{display:inline;fill:#FFF200;}
	.st4{display:inline;fill:#FFFFFF;}
	.st5{fill:#FFFFFF;}
	.st6{fill:none;}
	.st7{display:inline;}
	.st8{font-size:18;}
	.st9{visibility:hidden;}
	.st10{opacity:0.1;enable-background:new    ;}
]]>
</style>
<g class="bd-btn-cover">
	<path class="bd-ai-st6" d="M124.23,1.85c-11.34,0-21.11,6.68-25.61,16.32c0.05,0.05,0.11,0.1,0.16,0.15l-0.41,0.41
		c0,0.01-0.01,0.01-0.01,0.02L19.23,97.87C29.4,108.05,43.47,114.35,59,114.35c31.07,0,56.25-25.18,56.25-56.25
		c0-0.41-0.02-0.82-0.03-1.23c2.83,0.95,5.86,1.48,9.01,1.48c15.6,0,28.25-12.65,28.25-28.25S139.84,1.85,124.23,1.85z"/>
	<path class="bd-ai-st6" d="M98.62,18.17C88.46,8.09,74.45,1.85,59,1.85C27.93,1.85,2.75,27.04,2.75,58.1c0,15.53,6.3,29.6,16.48,39.77
		l79.14-79.14C98.45,18.54,98.54,18.36,98.62,18.17z"/>
</g>
<g class="bd-btn-testnet bd-ai-st9"   >

	<circle class="bd-btn-testnet-backdrop bd-ai-st3" cx="122.83" cy="71.83" r="18.83"/>
	<path class="bd-ai-st7" d="M129.07,79.9h-13.26c-0.96,0-1.65-0.55-1.65-1.3c0-0.7,0.3-1.16,0.35-1.23l5.41-9.29v-6.02
		c-0.5-0.5-0.68-0.83-0.58-1.07c0.03-0.08,0.13-0.22,0.42-0.22c0.02,0,0.04,0,0.06,0c0.07-0.01,0.15-0.02,0.25-0.02
		c0.16,0,0.3,0.02,0.35,0.03h4.04c0.05-0.01,0.19-0.03,0.35-0.03c0.1,0,0.18,0.01,0.25,0.02c0.02,0,0.04,0,0.06,0
		c0.29,0,0.39,0.14,0.42,0.22c0.1,0.23-0.08,0.57-0.57,1.07v6.02l5.41,9.29c0.05,0.07,0.35,0.53,0.35,1.23
		C130.73,79.35,130.03,79.9,129.07,79.9z M119.65,61.13c0,0-0.02,0.17,0.55,0.74l0.05,0.05v6.25l-5.47,9.39c0,0-0.29,0.41-0.29,1.04
		c0,0.66,0.68,0.97,1.31,0.97h13.27c0.63,0,1.31-0.3,1.31-0.97c0-0.64-0.28-1.03-0.29-1.04l-0.01-0.01l-5.46-9.37v-6.26l0.05-0.05
		c0.58-0.58,0.55-0.75,0.55-0.75s-0.04-0.01-0.11-0.01c-0.02,0-0.04,0-0.05,0h-0.03l-0.02-0.01c-0.03-0.01-0.1-0.02-0.2-0.02
		c-0.16,0-0.31,0.02-0.31,0.02h-0.03h-4.09c0,0-0.15-0.02-0.31-0.02c-0.1,0-0.16,0.01-0.2,0.02l-0.03,0.01h-0.03
		c-0.01,0-0.03,0-0.05,0C119.69,61.11,119.65,61.12,119.65,61.13L119.65,61.13z"/>
	<path class="bd-ai-st7" d="M118.96,71.69l-3.34,5.54c0,0-0.36,0.68-0.19,1.17c0.17,0.49,0.28,0.81,1.82,0.81c1.53,0,11,0,11,0
		s1.01,0.03,1.2-0.77c0.19-0.8-0.11-1.18-0.72-2.13c-0.61-0.95-2.6-4.22-2.6-4.22s-0.84,0.47-1.64,0.46
		c-0.8-0.01-2.04,0.19-2.76-0.05C121.02,72.27,119.24,71.36,118.96,71.69z"/>
	<g class="bd-ai-st7">
		<g>
			<circle cx="123.18" cy="70.24" r="1.15"/>
			<path d="M123.18,71.44c-0.66,0-1.2-0.54-1.2-1.2c0-0.66,0.54-1.2,1.2-1.2c0.66,0,1.2,0.54,1.2,1.2
				C124.38,70.9,123.84,71.44,123.18,71.44z M123.18,69.13c-0.61,0-1.11,0.5-1.11,1.11c0,0.61,0.5,1.11,1.11,1.11
				c0.61,0,1.11-0.5,1.11-1.11C124.29,69.63,123.79,69.13,123.18,69.13z"/>
		</g>
		<g>
			<path d="M123.96,70.24c0-0.43-0.35-0.78-0.78-0.78"/>
			<path d="M123.96,70.28c-0.02,0-0.04-0.02-0.04-0.04c0-0.41-0.33-0.74-0.74-0.74c-0.02,0-0.04-0.02-0.04-0.04
				c0-0.02,0.02-0.04,0.04-0.04c0.45,0,0.82,0.37,0.82,0.82C124,70.26,123.98,70.28,123.96,70.28z"/>
		</g>
	</g>
	<g class="bd-ai-st7">
		<g>
			<circle cx="121.55" cy="71.95" r="0.83"/>
			<path d="M121.55,72.82c-0.48,0-0.87-0.39-0.87-0.87s0.39-0.87,0.87-0.87s0.87,0.39,0.87,0.87
				C122.43,72.43,122.03,72.82,121.55,72.82z M121.55,71.16c-0.44,0-0.79,0.35-0.79,0.79c0,0.44,0.35,0.79,0.79,0.79
				c0.44,0,0.79-0.35,0.79-0.79C122.34,71.51,121.99,71.16,121.55,71.16z"/>
		</g>
		<g>
			<path d="M122.11,71.95c0-0.31-0.25-0.56-0.56-0.56"/>
			<path d="M122.11,71.99c-0.02,0-0.04-0.02-0.04-0.04c0-0.29-0.23-0.52-0.52-0.52c-0.02,0-0.04-0.02-0.04-0.04s0.02-0.04,0.04-0.04
				c0.33,0,0.6,0.27,0.6,0.6C122.15,71.97,122.14,71.99,122.11,71.99z"/>
		</g>
	</g>
	<g class="bd-ai-st7">
		<g>
			<circle cx="122.87" cy="73.35" r="0.79"/>
			<path d="M122.86,74.18c-0.46,0-0.83-0.37-0.83-0.83s0.37-0.83,0.83-0.83c0.46,0,0.83,0.37,0.83,0.83S123.32,74.18,122.86,74.18z
				 M122.86,72.61c-0.41,0-0.74,0.33-0.74,0.74s0.33,0.74,0.74,0.74s0.74-0.33,0.74-0.74C123.61,72.94,123.27,72.61,122.86,72.61z"
				/>
		</g>
		<g>
			<path d="M123.4,73.35c0-0.29-0.24-0.53-0.53-0.53"/>
			<path d="M123.4,73.4c-0.02,0-0.04-0.02-0.04-0.04c0-0.27-0.22-0.49-0.49-0.49c-0.02,0-0.04-0.02-0.04-0.04
				c0-0.02,0.02-0.04,0.04-0.04c0.32,0,0.57,0.26,0.57,0.57C123.44,73.38,123.42,73.4,123.4,73.4z"/>
		</g>
	</g>
	<g class="bd-ai-st7">
		<g>
			<circle cx="121.28" cy="74.36" r="0.49"/>
			<path d="M121.28,74.89c-0.29,0-0.53-0.24-0.53-0.53s0.24-0.53,0.53-0.53c0.29,0,0.53,0.24,0.53,0.53S121.57,74.89,121.28,74.89z
				 M121.28,73.91c-0.25,0-0.45,0.2-0.45,0.45s0.2,0.45,0.45,0.45s0.45-0.2,0.45-0.45S121.52,73.91,121.28,73.91z"/>
		</g>
		<g>
			<path d="M121.61,74.36c0-0.18-0.15-0.33-0.33-0.33"/>
			<path d="M121.61,74.4c-0.02,0-0.04-0.02-0.04-0.04c0-0.16-0.13-0.29-0.29-0.29c-0.02,0-0.04-0.02-0.04-0.04s0.02-0.04,0.04-0.04
				c0.21,0,0.37,0.17,0.37,0.37C121.65,74.38,121.63,74.4,121.61,74.4z"/>
		</g>
	</g>
</g>
<g class="bd-btn-backdrop">
	<path class="bd-ai-st1" d="M98.47,17.33C88.29,7.15,74.23,0.85,58.7,0.85C27.63,0.85,2.45,26.04,2.45,57.1c0,15.53,6.3,29.6,16.48,39.77
		c10.18,10.18,24.24,16.48,39.77,16.48c31.07,0,56.25-25.18,56.25-56.25C114.95,41.57,108.65,27.51,98.47,17.33z"/>
	<circle class="bd-ai-st1" cx="124.24" cy="29.1" r="28.25"/>
</g>
<path class="bd-ai-st10" d="M18.92,96.88c10.18,10.18,24.24,16.48,39.77,16.48c31.07,0,56.25-25.18,56.25-56.25
	c0-15.53-6.3-29.6-16.47-39.77L18.92,96.88z"/>
<g class="bd-btn-untibbed">
	<path class="bd-ai-st5" d="M32.31,67.33V36.89h5.39v12.08H48v4.92H37.7V67.8c0,0.8,0.05,1.41,0.19,1.87c0.14,0.47,0.42,0.89,0.94,1.22
		s1.31,0.47,2.44,0.47h6.28v4.92h-6.7c-0.19,0-0.47,0.05-0.8,0.05c-2.62,0-4.54-0.89-5.81-2.62C32.92,71.92,32.31,69.81,32.31,67.33
		"/>
	<path class="bd-ai-st5" d="M70.86,36.89h-5.39v25.52c0,0.19-0.05,0.42-0.05,0.8c0,1.78,0.47,3.75,1.36,5.9c0.89,2.2,2.34,4.08,4.31,5.67
		c1.97,1.59,4.5,2.39,7.59,2.39h0.66c3.23-0.14,5.85-0.89,7.96-2.25c2.11-1.36,3.61-3.09,4.54-5.15c0.94-2.06,1.4-4.21,1.4-6.51
		c0-0.19,0-0.33,0-0.42s0-0.23,0-0.38c0-2.9-0.65-5.39-1.97-7.4c-1.31-2.06-2.95-3.61-4.92-4.59c-1.97-0.98-3.84-1.5-5.71-1.5
		c-1.17,0-2.15,0.05-3.04,0.14v5.06c0.84-0.19,1.73-0.28,2.58-0.28c1.31,0,2.58,0.38,3.84,1.08c1.26,0.7,2.29,1.78,3.04,3.14
		c0.8,1.36,1.17,2.95,1.17,4.73c0,0.42,0,0.7-0.05,0.89c-0.66,5.67-3.79,8.52-9.41,8.52c-1.87,0-3.37-0.52-4.59-1.55
		c-1.22-1.03-2.06-2.43-2.62-4.22c-0.56-1.78-0.84-3.75-0.84-5.9v-23.7h0.14V36.89z"/>
	<rect x="54.37" y="48.97" class="bd-ai-st5" width="4.92" height="27.35"/>
	<circle class="bd-ai-st5" cx="79.33" cy="62.65" r="4.76"/>
</g>
<text class="bd-btn-counter bd-ai-st5 bd-ai-st2 bd-ai-st8"  transform="matrix(1 0 0 1 112.6963 34.5254)"  >123</text>
<g class="bd-btn-tibbed bd-ai-st9"   >
	<path class="bd-ai-st4" d="M13.27,62.51V44.69h3.15v7.07h6.03v2.88h-6.03v8.14c0,0.47,0.03,0.82,0.11,1.1c0.08,0.27,0.25,0.52,0.55,0.71
		c0.3,0.19,0.77,0.27,1.42,0.27h3.67v2.88h-3.92c-0.11,0-0.27,0.03-0.47,0.03c-1.53,0-2.66-0.52-3.4-1.53
		C13.63,65.19,13.27,63.96,13.27,62.51"/>
	<path class="bd-ai-st4" d="M35.83,44.69h-3.15v14.94c0,0.11-0.03,0.25-0.03,0.47c0,1.04,0.27,2.19,0.79,3.45
		c0.52,1.29,1.37,2.38,2.52,3.32c1.15,0.93,2.63,1.4,4.44,1.4h0.38c1.89-0.08,3.43-0.52,4.66-1.32c1.23-0.79,2.11-1.81,2.66-3.01
		c0.55-1.21,0.82-2.47,0.82-3.81c0-0.11,0-0.19,0-0.25c0-0.06,0-0.14,0-0.22c0-1.7-0.38-3.15-1.15-4.33
		c-0.77-1.21-1.73-2.11-2.88-2.69c-1.15-0.58-2.25-0.88-3.34-0.88c-0.68,0-1.26,0.03-1.78,0.08v2.96c0.49-0.11,1.01-0.16,1.51-0.16
		c0.77,0,1.51,0.22,2.25,0.63c0.74,0.41,1.34,1.04,1.78,1.84C45.78,57.9,46,58.83,46,59.88c0,0.25,0,0.41-0.03,0.52
		c-0.38,3.32-2.22,4.99-5.51,4.99c-1.1,0-1.97-0.3-2.69-0.9c-0.71-0.6-1.21-1.43-1.53-2.47c-0.33-1.04-0.49-2.19-0.49-3.45V44.69
		H35.83z"/>
	<rect x="26.18" y="51.76" class="bd-ai-st4" width="2.88" height="16"/>
	<circle class="bd-ai-st4" cx="40.93" cy="59.52" r="2.79"/>
	<g class="bd-ai-st7">
		<path class="bd-ai-st5" d="M67.11,56.59c-0.41-0.97-1-1.81-1.75-2.51s-1.63-1.23-2.63-1.6s-2.06-0.55-3.2-0.55
			c-0.36,0-0.71,0.02-1.05,0.07v2.81c0.38-0.07,0.8-0.1,1.25-0.1c0.82,0,1.62,0.19,2.38,0.58c0.76,0.38,1.39,0.98,1.89,1.8
			c0.5,0.82,0.77,1.83,0.82,3.05c0,0.86-0.19,1.72-0.58,2.58c-0.38,0.86-0.97,1.57-1.76,2.13s-1.75,0.84-2.89,0.84
			c-1.03,0-1.93-0.26-2.71-0.78c-0.78-0.52-1.39-1.23-1.81-2.11c-0.42-0.89-0.63-1.86-0.63-2.93v-14.9h-2.9V60.2
			c0,1.46,0.34,2.82,1.03,4.08s1.64,2.26,2.87,3.02c1.23,0.75,2.62,1.14,4.16,1.17c1.67,0,3.13-0.4,4.36-1.2
			c1.23-0.8,2.17-1.87,2.81-3.2c0.64-1.33,0.96-2.75,0.96-4.26C67.73,58.62,67.52,57.56,67.11,56.59z"/>
		<path class="bd-ai-st5" d="M73.54,60.55l7.9-4.36c-0.44-0.45-0.91-0.81-1.4-1.08s-1.26-0.4-2.3-0.4c-1.03,0-1.93,0.26-2.7,0.77
			s-1.36,1.21-1.77,2.08c-0.41,0.88-0.62,1.84-0.62,2.9c0.04,0.88,0.27,1.73,0.69,2.53c0.41,0.81,1.01,1.45,1.78,1.95
			c0.77,0.49,1.69,0.74,2.75,0.74c1.61-0.03,2.81-0.46,3.6-1.29c0.79-0.82,1.35-2.06,1.68-3.71l2.91,0.4
			c-0.02,0.77-0.2,1.58-0.56,2.42c-0.36,0.85-0.89,1.65-1.61,2.42c-0.71,0.77-1.59,1.39-2.65,1.86c-1.05,0.47-2.25,0.72-3.59,0.73
			c-1.4,0-2.72-0.36-3.97-1.08c-1.25-0.72-2.24-1.69-2.98-2.92c-0.74-1.23-1.11-2.55-1.11-3.96c0-1.44,0.24-2.7,0.73-3.8
			c0.49-1.1,1.13-2.01,1.94-2.72c0.81-0.71,1.69-1.24,2.64-1.58c0.95-0.34,1.9-0.52,2.82-0.52c1.81,0,3.34,0.41,4.57,1.23
			c1.24,0.82,2.3,2.09,3.19,3.8L74.8,62.9L73.54,60.55z"/>
		<path class="bd-ai-st5" d="M101.21,45.02h2.9v15.5c0,1-0.28,2.14-0.84,3.38c-0.56,1.25-1.46,2.33-2.7,3.24
			c-1.24,0.91-2.79,1.37-4.65,1.37c-1.4-0.03-2.61-0.31-3.63-0.83s-1.85-1.19-2.47-2.01c-0.63-0.81-1.09-1.66-1.39-2.55
			c-0.3-0.88-0.48-1.74-0.53-2.58c0-1.42,0.23-2.66,0.68-3.74c0.46-1.08,1.04-1.97,1.76-2.67c0.72-0.7,1.5-1.23,2.34-1.59
			c0.84-0.36,1.66-0.55,2.45-0.56c2.19,0,3.83,0.36,4.93,1.09v3.11c-1.4-0.95-2.96-1.42-4.67-1.42c-1.31,0.14-2.41,0.68-3.3,1.63
			c-0.89,0.94-1.33,2.19-1.33,3.73c0,0.3,0.01,0.54,0.03,0.69c0.1,1.21,0.45,2.18,1.03,2.91c0.59,0.74,1.27,1.26,2.04,1.56
			c0.77,0.3,1.51,0.45,2.21,0.45c1.08-0.02,2.01-0.31,2.78-0.86c0.77-0.55,1.35-1.31,1.75-2.28c0.4-0.97,0.6-2.06,0.6-3.28
			L101.21,45.02L101.21,45.02z"/>
	</g>
	<circle class="bd-ai-st4" cx="59.63" cy="59.52" r="2.79"/>
</g>
<path class="bd-btn-hover bd-ai-st0"    d="M152.48,29.1c0,15.6-12.65,28.25-28.25,28.25c-15.6,0-28.25-12.65-28.25-28.25
	s12.65-28.25,28.25-28.25C139.84,0.85,152.48,13.5,152.48,29.1z M59,0.85C27.93,0.85,2.75,26.04,2.75,57.1
	c0,15.53,6.3,29.6,16.48,39.77l79.55-79.55C88.6,7.15,74.53,0.85,59,0.85z M98.78,17.33c10.18,10.18,16.47,24.24,16.47,39.77
	c0,31.07-25.18,56.25-56.25,56.25c-15.53,0-29.6-6.3-39.77-16.48L98.78,17.33z"/>

</svg>
