<?xml version="1.0" encoding="utf-8"?>
<!-- Generator: Adobe Illustrator 16.0.0, SVG Export Plug-In . SVG Version: 6.00 Build 0)  -->
<!DOCTYPE svg PUBLIC "-//W3C//DTD SVG 1.1//EN" "http://www.w3.org/Graphics/SVG/1.1/DTD/svg11.dtd">
<svg version="1.1" id="tib-btn-inline" xmlns="http://www.w3.org/2000/svg" xmlns:xlink="http://www.w3.org/1999/xlink"
	 viewBox="0 0 60 20" xml:space="preserve">
<style type="text/css">
<![CDATA[
	.st0{visibility:hidden;opacity:0.3;fill:#FFFFFF;enable-background:new    ;}
	.st1{display:inline;fill:#FFFFFF;}
	.st2{fill:#FFFFFF;}
	.st3{fill:none;}
	.st4{display:inline;}
	.st5{visibility:hidden;}
]]>
</style>
<path class="bd-btn-cover bd-ai-st3"    d="M60,17c0,1.66-1.34,3-3,3H3c-1.66,0-3-1.34-3-3V3c0-1.66,1.34-3,3-3h54c1.66,0,3,1.34,3,3V17
	z"/>
<path id="db-btn-backdrop" d="M60,17c0,1.66-1.34,3-3,3H3c-1.66,0-3-1.34-3-3V3c0-1.66,1.34-3,3-3h54c1.66,0,3,1.34,3,3V17z"/>
<path class="bd-btn-hover bd-ai-st0"    d="M60,17c0,1.66-1.34,3-3,3H3c-1.66,0-3-1.34-3-3V3c0-1.66,1.34-3,3-3h54c1.66,0,3,1.34,3,3V17
	z"/>
<g class="bd-btn-untibbed">
	<path class="bd-ai-st2" d="M18.82,13.93V2.76h1.98v4.43h3.78V9H20.8v5.11c0,0.29,0.02,0.52,0.07,0.69c0.05,0.17,0.15,0.33,0.34,0.45
		s0.48,0.17,0.9,0.17h2.31v1.81h-2.46c-0.07,0-0.17,0.02-0.29,0.02c-0.96,0-1.67-0.33-2.13-0.96
		C19.04,15.62,18.82,14.84,18.82,13.93"/>
	<path class="bd-ai-st2" d="M32.97,2.76h-1.98v9.37c0,0.07-0.02,0.15-0.02,0.29c0,0.65,0.17,1.38,0.5,2.17c0.33,0.81,0.86,1.5,1.58,2.08
		s1.65,0.88,2.79,0.88h0.24c1.19-0.05,2.15-0.33,2.92-0.83s1.33-1.13,1.67-1.89c0.35-0.76,0.51-1.54,0.51-2.39c0-0.07,0-0.12,0-0.15
		s0-0.08,0-0.14c0-1.06-0.24-1.98-0.72-2.72c-0.48-0.76-1.08-1.33-1.81-1.69c-0.72-0.36-1.41-0.55-2.1-0.55
		c-0.43,0-0.79,0.02-1.12,0.05V9.1C35.75,9.03,36.08,9,36.39,9c0.48,0,0.95,0.14,1.41,0.4c0.46,0.26,0.84,0.65,1.12,1.15
		c0.29,0.5,0.43,1.08,0.43,1.74c0,0.15,0,0.26-0.02,0.33c-0.24,2.08-1.39,3.13-3.46,3.13c-0.69,0-1.24-0.19-1.68-0.57
		c-0.45-0.38-0.76-0.89-0.96-1.55c-0.21-0.65-0.31-1.38-0.31-2.17v-8.7H32.97L32.97,2.76z"/>
	<rect x="26.91" y="7.19" class="bd-ai-st2" width="1.81" height="10.04"/>
	<circle class="bd-ai-st2" cx="36.08" cy="12.22" r="1.75"/>
</g>
<g class="bd-btn-tibbed bd-ai-st5"   >
	<path class="bd-ai-st1" d="M5,13.22V3.51h1.74v3.85h3.32v1.57H6.73v4.43c0,0.26,0.01,0.45,0.06,0.6c0.04,0.14,0.13,0.29,0.3,0.39
		c0.17,0.1,0.42,0.16,0.79,0.16H9.9v1.57H7.75c-0.06,0-0.16,0.01-0.26,0.01c-0.85,0-1.47-0.28-1.87-0.84C5.2,14.69,5,14.01,5,13.22"
		/>
	<path class="bd-ai-st1" d="M17.42,3.51h-1.74v8.14c0,0.07-0.01,0.13-0.01,0.26c0,0.57,0.16,1.19,0.43,1.88c0.29,0.7,0.76,1.3,1.39,1.8
		c0.63,0.5,1.45,0.76,2.45,0.76h0.21c1.05-0.05,1.88-0.29,2.56-0.71c0.68-0.43,1.16-0.98,1.46-1.65c0.3-0.66,0.46-1.35,0.46-2.07
		c0-0.07,0-0.1,0-0.13s0-0.08,0-0.12c0-0.92-0.21-1.72-0.63-2.36c-0.42-0.66-0.96-1.15-1.58-1.46c-0.63-0.31-1.24-0.48-1.85-0.48
		c-0.38,0-0.69,0.01-0.98,0.04v1.61c0.28-0.06,0.56-0.09,0.82-0.09c0.42,0,0.82,0.12,1.24,0.34c0.41,0.22,0.73,0.57,0.98,1
		c0.26,0.43,0.38,0.95,0.38,1.5c0,0.13,0,0.22-0.01,0.29c-0.21,1.82-1.22,2.72-3.04,2.72c-0.6,0-1.09-0.17-1.48-0.49
		s-0.67-0.78-0.85-1.35c-0.18-0.57-0.27-1.19-0.27-1.88V3.5L17.42,3.51L17.42,3.51L17.42,3.51z"/>
	<rect x="12.11" y="7.36" class="bd-ai-st1" width="1.58" height="8.72"/>
	<ellipse class="bd-ai-st1" cx="20.22" cy="11.6" rx="1.53" ry="1.52"/>
	<g class="bd-ai-st4">
		<path class="bd-ai-st2" d="M34.63,9.99C34.41,9.46,34.08,9,33.66,8.63c-0.42-0.38-0.9-0.67-1.44-0.87c-0.55-0.19-1.14-0.3-1.77-0.3
			c-0.2,0-0.39,0.01-0.58,0.04v1.53c0.21-0.04,0.45-0.05,0.69-0.05c0.46,0,0.89,0.1,1.31,0.31s0.77,0.53,1.05,0.98
			c0.27,0.44,0.43,1,0.46,1.66c0,0.47-0.1,0.93-0.31,1.41c-0.21,0.47-0.54,0.86-0.97,1.17c-0.43,0.31-0.97,0.45-1.59,0.45
			c-0.56,0-1.06-0.14-1.49-0.43s-0.76-0.67-0.99-1.15c-0.24-0.48-0.35-1.01-0.35-1.59V3.66h-1.6v8.31c0,0.8,0.18,1.54,0.56,2.23
			c0.38,0.69,0.9,1.23,1.58,1.65c0.68,0.42,1.44,0.62,2.29,0.64c0.91,0,1.73-0.22,2.39-0.66c0.68-0.44,1.19-1.03,1.54-1.74
			c0.35-0.71,0.54-1.5,0.54-2.32C34.97,11.11,34.86,10.52,34.63,9.99z"/>
		<path class="bd-ai-st2" d="M38.17,12.16l4.34-2.39c-0.25-0.25-0.5-0.44-0.77-0.6c-0.28-0.14-0.69-0.22-1.27-0.22
			c-0.56,0-1.06,0.14-1.49,0.41c-0.42,0.27-0.75,0.66-0.98,1.14c-0.22,0.48-0.34,1.01-0.34,1.58c0.03,0.48,0.15,0.95,0.38,1.38
			c0.22,0.44,0.55,0.79,0.98,1.06c0.43,0.27,0.93,0.4,1.52,0.4c0.89-0.01,1.54-0.25,1.99-0.7c0.44-0.45,0.75-1.13,0.93-2.02
			l1.61,0.22c-0.01,0.41-0.12,0.85-0.31,1.32c-0.2,0.47-0.5,0.89-0.89,1.32c-0.39,0.42-0.88,0.75-1.45,1.01
			c-0.58,0.26-1.24,0.39-1.98,0.4c-0.77,0-1.49-0.19-2.19-0.58c-0.68-0.39-1.23-0.92-1.64-1.59c-0.4-0.66-0.61-1.38-0.61-2.15
			c0-0.78,0.13-1.48,0.41-2.07c0.27-0.6,0.63-1.09,1.07-1.48c0.44-0.39,0.93-0.67,1.45-0.87c0.52-0.18,1.05-0.29,1.56-0.29
			c0.99,0,1.83,0.22,2.51,0.67c0.68,0.45,1.27,1.14,1.75,2.07l-5.89,3.24L38.17,12.16z"/>
		<path class="bd-ai-st2" d="M53.41,3.69H55v8.45c0,0.54-0.16,1.17-0.46,1.84c-0.31,0.69-0.81,1.27-1.49,1.76
			c-0.68,0.49-1.53,0.75-2.56,0.75c-0.77-0.01-1.44-0.17-2-0.45c-0.56-0.29-1.02-0.65-1.36-1.09c-0.34-0.44-0.6-0.91-0.76-1.39
			c-0.17-0.48-0.26-0.95-0.29-1.41c0-0.78,0.13-1.45,0.38-2.04c0.25-0.58,0.58-1.08,0.97-1.45C47.82,8.3,48.25,8,48.72,7.8
			c0.46-0.19,0.92-0.3,1.35-0.31c1.2,0,2.11,0.19,2.71,0.6v1.7C52,9.27,51.15,9.01,50.21,9.01c-0.72,0.08-1.34,0.38-1.82,0.88
			c-0.49,0.52-0.73,1.19-0.73,2.04c0,0.17,0,0.3,0.01,0.38c0.05,0.66,0.25,1.19,0.58,1.59c0.33,0.4,0.69,0.69,1.13,0.86
			c0.43,0.17,0.84,0.25,1.22,0.25c0.6-0.01,1.1-0.17,1.53-0.47c0.42-0.3,0.75-0.71,0.97-1.24c0.22-0.53,0.33-1.13,0.33-1.79v-7.8
			h-0.02V3.69z"/>
	</g>
	<ellipse class="bd-ai-st1" cx="30.52" cy="11.6" rx="1.53" ry="1.52"/>
</g>

</svg>
