<?xml version="1.0" encoding="UTF-8" standalone="no"?>
<!-- Generator: Adobe Illustrator 16.0.0, SVG Export Plug-In . SVG Version: 6.00 Build 0)  -->

<svg
   xmlns:dc="http://purl.org/dc/elements/1.1/"
   xmlns:cc="http://creativecommons.org/ns#"
   xmlns:rdf="http://www.w3.org/1999/02/22-rdf-syntax-ns#"
   xmlns:svg="http://www.w3.org/2000/svg"
   xmlns="http://www.w3.org/2000/svg"
   xmlns:sodipodi="http://sodipodi.sourceforge.net/DTD/sodipodi-0.dtd"
   xmlns:inkscape="http://www.inkscape.org/namespaces/inkscape"
   version="1.1"
   id="tib-btn-vert"
   viewBox="0 2.5 60 62"
   xml:space="preserve"
   inkscape:version="0.91 r"
   sodipodi:docname="tib-btn-vert.svg"><metadata
     id="metadata3813"><rdf:RDF><cc:Work
         rdf:about=""><dc:format>image/svg+xml</dc:format><dc:type
           rdf:resource="http://purl.org/dc/dcmitype/StillImage" /><dc:title></dc:title></cc:Work></rdf:RDF></metadata><defs
     id="defs3811" /><sodipodi:namedview
     pagecolor="#ffffff"
     bordercolor="#666666"
     borderopacity="1"
     objecttolerance="10"
     gridtolerance="10"
     guidetolerance="10"
     inkscape:pageopacity="0"
     inkscape:pageshadow="2"
     inkscape:window-width="1280"
     inkscape:window-height="972"
     id="namedview3809"
     showgrid="false"
     inkscape:zoom="3.8064516"
     inkscape:cx="30"
     inkscape:cy="31"
     inkscape:window-x="1680"
     inkscape:window-y="0"
     inkscape:window-maximized="1"
     inkscape:current-layer="tib-btn-vert" /><style
     type="text/css"
     id="style3757"><![CDATA[
	.st0{fill:#BCBCBC;}
	.st1{visibility:hidden;opacity:0.3;fill:#FFFFFF;enable-background:new    ;}
	.st2{display:inline;fill:#FFF200;}
	.st3{display:inline;fill:#FFFFFF;}
	.st4{fill:#FFFFFF;}
	.st5{fill:none;}
	.st6{display:inline;}
	.st7{font-family:'ArialMT';}
	.st8{font-size:21;}
	.st9{visibility:hidden;}
]]></style><path
     class="bd-btn-cover bd-ai-st5"
     d="M60,61.5c0,1.66-1.34,3-3,3H3c-1.66,0-3-1.34-3-3v-14c0-1.66,1.34-3,3-3h54  c1.66,0,3,1.34,3,3V61.5z"
     id="path3759" /><path
     class="bd-btn-backdrop"
     d="M60,61.5c0,1.66-1.34,3-3,3H3c-1.66,0-3-1.34-3-3v-14c0-1.66,1.34-3,3-3h54c1.66,0,3,1.34,3,3V61.5z"
     id="path3761" /><path
     class="bd-btn-hover bd-ai-st1"
     d="M60,17c0,1.66-1.34,3-3,3H3c-1.66,0-3-1.34-3-3V3c0-1.66,1.34-3,3-3h54c1.66,0,3,1.34,3,3V17  z"
     id="path3763" /><g
     class="bd-btn-untibbed"
     id="g3765"><path
       class="bd-ai-st4"
       d="M19.29,58.27v-10.7h1.9v4.25h3.62v1.73h-3.62v4.89c0,0.28,0.02,0.5,0.07,0.66c0.05,0.17,0.15,0.31,0.33,0.43   c0.18,0.12,0.46,0.16,0.86,0.16h2.21v1.73H22.3c-0.07,0-0.17,0.02-0.28,0.02c-0.92,0-1.6-0.31-2.04-0.92   C19.5,59.89,19.29,59.15,19.29,58.27"
       id="path3767" /><path
       class="bd-ai-st4"
       d="M32.84,47.57h-1.9v8.97c0,0.07-0.02,0.15-0.02,0.28c0,0.63,0.17,1.32,0.48,2.07c0.31,0.78,0.82,1.44,1.52,1.99   c0.69,0.56,1.58,0.84,2.67,0.84h0.23c1.14-0.05,2.06-0.31,2.8-0.79c0.74-0.48,1.27-1.09,1.6-1.81c0.33-0.72,0.49-1.48,0.49-2.29   c0-0.07,0-0.12,0-0.15c0-0.03,0-0.08,0-0.13c0-1.02-0.23-1.89-0.69-2.6c-0.46-0.72-1.04-1.27-1.73-1.61s-1.35-0.53-2.01-0.53   c-0.41,0-0.76,0.02-1.07,0.05v1.78c0.3-0.07,0.61-0.1,0.91-0.1c0.46,0,0.91,0.13,1.35,0.38c0.44,0.25,0.8,0.63,1.07,1.1   c0.28,0.48,0.41,1.04,0.41,1.66c0,0.15,0,0.25-0.02,0.31c-0.23,1.99-1.33,3-3.31,3c-0.66,0-1.19-0.18-1.61-0.54   c-0.43-0.36-0.72-0.86-0.92-1.48c-0.2-0.62-0.3-1.32-0.3-2.07v-8.33H32.84L32.84,47.57z"
       id="path3769" /><rect
       x="27.04"
       y="51.82"
       class="bd-ai-st4"
       width="1.73"
       height="9.62"
       id="rect3771" /><circle
       class="bd-ai-st4"
       cx="35.82"
       cy="56.63"
       r="1.67"
       id="circle3773" /></g><g
     class="bd-btn-tibbed bd-ai-st9"
     id="g3775"
     transform="translate(0,44.525424)"><path
       class="bd-ai-st3"
       d="m 5,13.22 0,-9.71 1.74,0 0,3.85 3.32,0 0,1.57 -3.34,0 0,4.43 c 0,0.26 0.01,0.45 0.06,0.6 0.04,0.14 0.13,0.29 0.3,0.39 0.17,0.1 0.42,0.16 0.79,0.16 l 2.02,0 0,1.57 -2.15,0 c -0.06,0 -0.16,0.01 -0.26,0.01 -0.85,0 -1.47,-0.28 -1.87,-0.84 C 5.2,14.69 5,14.01 5,13.22"
       id="path3777"
       inkscape:connector-curvature="0" /><path
       class="bd-ai-st3"
       d="m 17.42,3.51 -1.74,0 0,8.14 c 0,0.07 -0.01,0.13 -0.01,0.26 0,0.57 0.16,1.19 0.43,1.88 0.29,0.7 0.76,1.3 1.39,1.8 0.63,0.5 1.45,0.76 2.45,0.76 l 0.21,0 c 1.05,-0.05 1.88,-0.29 2.56,-0.71 0.68,-0.43 1.16,-0.98 1.46,-1.65 0.3,-0.66 0.46,-1.35 0.46,-2.07 0,-0.07 0,-0.1 0,-0.13 0,-0.03 0,-0.08 0,-0.12 C 24.63,10.75 24.42,9.95 24,9.31 23.58,8.65 23.04,8.16 22.42,7.85 21.79,7.54 21.18,7.37 20.57,7.37 c -0.38,0 -0.69,0.01 -0.98,0.04 l 0,1.61 c 0.28,-0.06 0.56,-0.09 0.82,-0.09 0.42,0 0.82,0.12 1.24,0.34 0.41,0.22 0.73,0.57 0.98,1 0.26,0.43 0.38,0.95 0.38,1.5 0,0.13 0,0.22 -0.01,0.29 -0.21,1.82 -1.22,2.72 -3.04,2.72 -0.6,0 -1.09,-0.17 -1.48,-0.49 -0.39,-0.32 -0.67,-0.78 -0.85,-1.35 -0.18,-0.57 -0.27,-1.19 -0.27,-1.88 l 0,-7.56 0.06,0.01 0,0 0,0 z"
       id="path3779"
      
       inkscape:connector-curvature="0" /><rect
       x="12.11"
       y="7.3600001"
       class="bd-ai-st3"
       width="1.58"
       height="8.7200003"
       id="rect3781"
        /><ellipse
       class="bd-ai-st3"
       cx="20.219999"
       cy="11.6"
       rx="1.53"
       ry="1.52"
       id="ellipse3783"
        /><g
       class="bd-ai-st6"
       id="g3785"
       ><path
         class="bd-ai-st4"
         d="M 34.63,10 C 34.41,9.46 34.08,9 33.66,8.63 33.24,8.25 32.76,7.96 32.22,7.76 31.67,7.57 31.08,7.46 30.45,7.46 c -0.2,0 -0.39,0.01 -0.58,0.04 l 0,1.53 c 0.21,-0.04 0.45,-0.05 0.69,-0.05 0.46,0 0.89,0.1 1.31,0.31 0.42,0.21 0.77,0.53 1.05,0.98 0.27,0.44 0.43,1 0.46,1.66 0,0.47 -0.1,0.93 -0.31,1.41 -0.21,0.47 -0.54,0.86 -0.97,1.17 -0.43,0.31 -0.97,0.45 -1.59,0.45 -0.56,0 -1.06,-0.14 -1.49,-0.43 -0.43,-0.29 -0.76,-0.67 -0.99,-1.15 -0.24,-0.48 -0.35,-1.01 -0.35,-1.59 l 0,-8.12 -1.6,0 0,8.31 c 0,0.8 0.18,1.54 0.56,2.23 0.38,0.69 0.9,1.23 1.58,1.65 0.68,0.42 1.44,0.62 2.29,0.64 0.91,0 1.73,-0.22 2.39,-0.66 0.68,-0.44 1.19,-1.03 1.54,-1.74 0.35,-0.71 0.54,-1.5 0.54,-2.32 C 34.97,11.11 34.86,10.52 34.63,10 Z"
         id="path3787"
         
         inkscape:connector-curvature="0" /><path
         class="bd-ai-st4"
         d="M 38.17,12.17 42.51,9.78 C 42.26,9.53 42.01,9.34 41.74,9.18 41.46,9.04 41.05,8.96 40.47,8.96 c -0.56,0 -1.06,0.14 -1.49,0.41 -0.42,0.27 -0.75,0.66 -0.98,1.14 -0.22,0.48 -0.34,1.01 -0.34,1.58 0.03,0.48 0.15,0.95 0.38,1.38 0.22,0.44 0.55,0.79 0.98,1.06 0.43,0.27 0.93,0.4 1.52,0.4 0.89,-0.01 1.54,-0.25 1.99,-0.7 0.44,-0.45 0.75,-1.13 0.93,-2.02 l 1.61,0.22 c -0.01,0.41 -0.12,0.85 -0.31,1.32 -0.2,0.47 -0.5,0.89 -0.89,1.32 -0.39,0.42 -0.88,0.75 -1.45,1.01 -0.58,0.26 -1.24,0.39 -1.98,0.4 -0.77,0 -1.49,-0.19 -2.19,-0.58 C 37.57,15.51 37.02,14.98 36.61,14.31 36.21,13.65 36,12.93 36,12.16 c 0,-0.78 0.13,-1.48 0.41,-2.07 0.27,-0.6 0.63,-1.09 1.07,-1.48 0.44,-0.39 0.93,-0.67 1.45,-0.87 0.52,-0.18 1.05,-0.29 1.56,-0.29 0.99,0 1.83,0.22 2.51,0.67 0.68,0.45 1.27,1.14 1.75,2.07 l -5.89,3.24 -0.69,-1.26 z"
         id="path3789"
         
         inkscape:connector-curvature="0" /><path
         class="bd-ai-st4"
         d="m 53.41,3.69 1.59,0 0,8.45 c 0,0.54 -0.16,1.17 -0.46,1.84 -0.31,0.69 -0.81,1.27 -1.49,1.76 -0.68,0.49 -1.53,0.75 -2.56,0.75 -0.77,-0.01 -1.44,-0.17 -2,-0.45 -0.56,-0.29 -1.02,-0.65 -1.36,-1.09 -0.34,-0.44 -0.6,-0.91 -0.76,-1.39 -0.17,-0.48 -0.26,-0.95 -0.29,-1.41 0,-0.78 0.13,-1.45 0.38,-2.04 0.25,-0.58 0.58,-1.08 0.97,-1.45 0.39,-0.38 0.82,-0.67 1.3,-0.87 0.46,-0.19 0.92,-0.3 1.35,-0.31 1.2,0 2.11,0.19 2.71,0.6 l 0,1.7 C 52.02,9.26 51.17,9 50.23,9 c -0.72,0.08 -1.34,0.38 -1.82,0.88 -0.49,0.52 -0.73,1.19 -0.73,2.04 0,0.17 0,0.3 0.01,0.38 0.05,0.66 0.25,1.19 0.58,1.59 0.33,0.4 0.69,0.69 1.13,0.86 0.43,0.17 0.84,0.25 1.22,0.25 0.6,-0.01 1.1,-0.17 1.53,-0.47 0.42,-0.3 0.75,-0.71 0.97,-1.24 0.22,-0.53 0.33,-1.13 0.33,-1.79 l 0,-7.8 -0.04,0 0,-0.01 z"
         id="path3791"
         
         inkscape:connector-curvature="0" /></g><ellipse
       class="bd-ai-st3"
       cx="30.52"
       cy="11.6"
       rx="1.53"
       ry="1.52"
       id="ellipse3793"
        /></g><g
     class="bd-btn-countersurround"
     id="g3795"><path
       class="bd-ai-st0"
       d="M1,5.5c0-1.1,0.9-2,2-2h54c1.1,0,2,0.9,2,2V37c0,1.1-0.9,2-2,2H34.93c-0.27,0-0.53,0.11-0.72,0.31l-3.16,3.28   l-3.43-3.31C27.44,39.1,27.19,39,26.93,39H3c-1.1,0-2-0.9-2-2V3 M0,5.5V37c0,1.66,1.34,3,3,3h23.93l4.15,4l3.85-4H57   c1.66,0,3-1.34,3-3V5.5c0-1.66-1.34-3-3-3H3C1.34,2.5,0,3.84,0,5.5L0,5.5z"
       id="path3797" /></g><text
     class="bd-btn-counter bd-ai-st7 bd-ai-st8"
     text-anchor="middle"
     transform="matrix(1 0 0 1 30 25.709)"
     id="text3799">123</text>
<g
     class="bd-btn-testnet bd-ai-st9"
     id="g3801"><rect
       x="2.19"
       y="44.5"
       class="bd-btn-testnet-backdrop bd-ai-st2"
       width="15.17"
       height="20"
       id="rect3803" /><g
       class="bd-ai-st6"
       id="g3805"><path
         d="M15.57,59.31l-4.3-6.78v-3.41h0.55c0.15,0,0.28-0.05,0.38-0.16c0.11-0.11,0.16-0.24,0.16-0.38c0-0.14-0.05-0.28-0.16-0.38    c-0.11-0.11-0.24-0.16-0.38-0.16H7.44c-0.15,0-0.28,0.05-0.38,0.16c-0.12,0.1-0.17,0.22-0.17,0.37c0,0.15,0.05,0.28,0.16,0.38    c0.11,0.11,0.24,0.17,0.39,0.17h0.55v3.41l-4.3,6.78c-0.32,0.51-0.38,0.94-0.18,1.3c0.2,0.36,0.6,0.54,1.2,0.54h9.85    c0.6,0,1-0.18,1.2-0.54C15.95,60.25,15.89,59.82,15.57,59.31z M6.58,56.78l2.33-3.67l0.17-0.27v-0.31v-3.41h1.1v3.41v0.32    l0.17,0.27l2.33,3.67L6.58,56.78L6.58,56.78z"
         id="path3807" /></g></g></svg>