<?xml version="1.0" encoding="utf-8"?>
<!-- Generator: Adobe Illustrator 16.0.0, SVG Export Plug-In . SVG Version: 6.00 Build 0)  -->
<!DOCTYPE svg PUBLIC "-//W3C//DTD SVG 1.1//EN" "http://www.w3.org/Graphics/SVG/1.1/DTD/svg11.dtd">
<svg version="1.1" id="tib-btn-poster" xmlns="http://www.w3.org/2000/svg" xmlns:xlink="http://www.w3.org/1999/xlink"
	 viewBox="0 0 100 64" xml:space="preserve">
<style type="text/css">
<![CDATA[
	.st0{visibility:hidden;opacity:0.8;}
	.st1{display:inline;opacity:0.2;fill:#FFFFFF;enable-background:new    ;}
	.st2{fill:#8CC63F;}
	.st3{display:inline;opacity:0.2;enable-background:new    ;}
	.st4{opacity:0.8;enable-background:new    ;}
	.st5{display:inline;fill:#FFF200;}
	.st6{opacity:0.8;}
	.st7{fill:none;}
	.st8{display:inline;}
	.st9{font-family:'ArialMT';}
	.st10{font-size:18;}
	.st11{visibility:hidden;}
]]>
</style>
<rect class="bd-btn-cover bd-ai-st7"    width="100" height="64"/>
<g class="bd-btn-backdrop">
	<rect class="bd-ai-st2" width="100" height="64"/>
</g>
<rect y="42" class="bd-ai-st4" width="100" height="22"/>
<g class="bd-btn-hover bd-ai-st11"   >
	<rect y="42" class="bd-ai-st1" width="100" height="22"/>
	<rect class="bd-ai-st3" width="100" height="42"/>
</g>
<g class="bd-btn-untibbed bd-ai-st6"   >
	<path d="M27.5,27.61V5.13h3.98v8.92h7.61v3.63h-7.61v10.27c0,0.59,0.03,1.04,0.14,1.38c0.1,0.35,0.31,0.66,0.69,0.9
		s0.97,0.35,1.8,0.35h4.63v3.63h-4.95c-0.14,0-0.35,0.03-0.59,0.03c-1.94,0-3.35-0.66-4.29-1.94C27.95,31,27.5,29.44,27.5,27.61"/>
	<path d="M55.97,5.13h-3.98v18.85c0,0.14-0.03,0.31-0.03,0.59c0,1.31,0.35,2.77,1,4.36c0.66,1.63,1.73,3.01,3.18,4.19
		c1.45,1.18,3.32,1.76,5.6,1.76h0.48c2.39-0.1,4.32-0.66,5.88-1.66c1.56-1,2.66-2.28,3.35-3.8s1.04-3.11,1.04-4.81
		c0-0.14,0-0.24,0-0.31c0-0.07,0-0.17,0-0.28c0-2.14-0.48-3.98-1.45-5.46c-0.97-1.52-2.18-2.66-3.63-3.39
		c-1.45-0.73-2.84-1.11-4.22-1.11c-0.86,0-1.59,0.03-2.25,0.1v3.73c0.62-0.14,1.28-0.21,1.9-0.21c0.97,0,1.9,0.28,2.83,0.8
		s1.7,1.31,2.25,2.32c0.59,1,0.87,2.18,0.87,3.49c0,0.31,0,0.52-0.04,0.66c-0.48,4.19-2.8,6.3-6.95,6.3c-1.38,0-2.49-0.38-3.39-1.14
		c-0.9-0.76-1.52-1.8-1.94-3.11c-0.42-1.31-0.62-2.77-0.62-4.36V5.13H55.97z"/>
	<rect x="43.79" y="14.05" width="3.63" height="20.2"/>
	<circle cx="62.4" cy="23.84" r="3.52"/>
</g>
<text class="bd-btn-counter bd-ai-st2 bd-ai-st9 bd-ai-st10"  transform="matrix(1 0 0 1 34.6533 60)"  >123</text>
<g class="bd-btn-testnet bd-ai-st11"   >
	<rect x="-0.06" y="42" class="bd-btn-testnet-backdrop bd-ai-st5" width="23" height="22"/>
	<path class="bd-ai-st8" d="M18.07,62.9H4.81c-0.96,0-1.65-0.55-1.65-1.3c0-0.7,0.3-1.16,0.35-1.23l5.41-9.29v-6.02
		c-0.5-0.5-0.68-0.83-0.58-1.07c0.03-0.08,0.13-0.22,0.42-0.22c0.02,0,0.04,0,0.06,0c0.07-0.01,0.15-0.02,0.25-0.02
		c0.16,0,0.3,0.02,0.35,0.03h4.04c0.05-0.01,0.19-0.03,0.35-0.03c0.1,0,0.18,0.01,0.25,0.02c0.02,0,0.04,0,0.06,0
		c0.29,0,0.39,0.14,0.42,0.22c0.1,0.23-0.08,0.57-0.57,1.07v6.02l5.41,9.29c0.05,0.07,0.35,0.53,0.35,1.23
		C19.73,62.35,19.03,62.9,18.07,62.9z M8.65,44.13c0,0-0.02,0.17,0.55,0.74l0.05,0.05v6.25l-5.47,9.39c0,0-0.29,0.41-0.29,1.04
		c0,0.66,0.68,0.97,1.31,0.97h13.27c0.63,0,1.31-0.3,1.31-0.97c0-0.64-0.28-1.03-0.29-1.04l-0.01-0.01l-5.46-9.37v-6.26l0.05-0.05
		c0.58-0.58,0.55-0.75,0.55-0.75s-0.04-0.01-0.11-0.01c-0.02,0-0.04,0-0.05,0h-0.03l-0.02-0.01c-0.03-0.01-0.1-0.02-0.2-0.02
		c-0.16,0-0.31,0.02-0.31,0.02h-0.03H9.38c0,0-0.15-0.02-0.31-0.02c-0.1,0-0.16,0.01-0.2,0.02l-0.03,0.01H8.81
		c-0.01,0-0.03,0-0.05,0C8.69,44.11,8.65,44.12,8.65,44.13L8.65,44.13z"/>
	<path class="bd-ai-st8" d="M7.96,54.69l-3.34,5.54c0,0-0.36,0.68-0.19,1.17c0.17,0.49,0.28,0.81,1.82,0.81c1.53,0,11,0,11,0
		s1.01,0.03,1.2-0.77c0.19-0.8-0.11-1.18-0.72-2.13c-0.61-0.95-2.6-4.22-2.6-4.22s-0.84,0.47-1.64,0.46
		c-0.8-0.01-2.04,0.19-2.76-0.05C10.02,55.27,8.24,54.36,7.96,54.69z"/>
	<g class="bd-ai-st8">
		<g>
			<circle cx="12.18" cy="53.24" r="1.15"/>
			<path d="M12.18,54.44c-0.66,0-1.2-0.54-1.2-1.2s0.54-1.2,1.2-1.2c0.66,0,1.2,0.54,1.2,1.2S12.84,54.44,12.18,54.44z M12.18,52.13
				c-0.61,0-1.11,0.5-1.11,1.11c0,0.61,0.5,1.11,1.11,1.11c0.61,0,1.11-0.5,1.11-1.11C13.29,52.63,12.79,52.13,12.18,52.13z"/>
		</g>
		<g>
			<path d="M12.96,53.24c0-0.43-0.35-0.78-0.78-0.78"/>
			<path d="M12.96,53.28c-0.02,0-0.04-0.02-0.04-0.04c0-0.41-0.33-0.74-0.74-0.74c-0.02,0-0.04-0.02-0.04-0.04s0.02-0.04,0.04-0.04
				c0.45,0,0.82,0.37,0.82,0.82C13,53.26,12.98,53.28,12.96,53.28z"/>
		</g>
	</g>
	<g class="bd-ai-st8">
		<g>
			<circle cx="10.55" cy="54.95" r="0.83"/>
			<path d="M10.55,55.82c-0.48,0-0.87-0.39-0.87-0.87c0-0.48,0.39-0.87,0.87-0.87s0.87,0.39,0.87,0.87
				C11.43,55.43,11.03,55.82,10.55,55.82z M10.55,54.16c-0.44,0-0.79,0.35-0.79,0.79s0.35,0.79,0.79,0.79
				c0.44,0,0.79-0.35,0.79-0.79S10.99,54.16,10.55,54.16z"/>
		</g>
		<g>
			<path d="M11.11,54.95c0-0.31-0.25-0.56-0.56-0.56"/>
			<path d="M11.11,54.99c-0.02,0-0.04-0.02-0.04-0.04c0-0.29-0.23-0.52-0.52-0.52c-0.02,0-0.04-0.02-0.04-0.04
				c0-0.02,0.02-0.04,0.04-0.04c0.33,0,0.6,0.27,0.6,0.6C11.15,54.97,11.14,54.99,11.11,54.99z"/>
		</g>
	</g>
	<g class="bd-ai-st8">
		<g>
			<circle cx="11.87" cy="56.35" r="0.79"/>
			<path d="M11.86,57.18c-0.46,0-0.83-0.37-0.83-0.83c0-0.46,0.37-0.83,0.83-0.83s0.83,0.37,0.83,0.83
				C12.69,56.81,12.32,57.18,11.86,57.18z M11.86,55.61c-0.41,0-0.74,0.33-0.74,0.74s0.33,0.74,0.74,0.74
				c0.41,0,0.74-0.33,0.74-0.74C12.61,55.94,12.27,55.61,11.86,55.61z"/>
		</g>
		<g>
			<path d="M12.4,56.35c0-0.29-0.24-0.53-0.53-0.53"/>
			<path d="M12.4,56.4c-0.02,0-0.04-0.02-0.04-0.04c0-0.27-0.22-0.49-0.49-0.49c-0.02,0-0.04-0.02-0.04-0.04s0.02-0.04,0.04-0.04
				c0.32,0,0.57,0.26,0.57,0.57C12.44,56.38,12.42,56.4,12.4,56.4z"/>
		</g>
	</g>
	<g class="bd-ai-st8">
		<g>
			<circle cx="10.28" cy="57.36" r="0.49"/>
			<path d="M10.28,57.89c-0.29,0-0.53-0.24-0.53-0.53c0-0.29,0.24-0.53,0.53-0.53c0.29,0,0.53,0.24,0.53,0.53
				C10.81,57.65,10.57,57.89,10.28,57.89z M10.28,56.91c-0.25,0-0.45,0.2-0.45,0.45s0.2,0.45,0.45,0.45s0.45-0.2,0.45-0.45
				S10.52,56.91,10.28,56.91z"/>
		</g>
		<g>
			<path d="M10.61,57.36c0-0.18-0.15-0.33-0.33-0.33"/>
			<path d="M10.61,57.4c-0.02,0-0.04-0.02-0.04-0.04c0-0.16-0.13-0.29-0.29-0.29c-0.02,0-0.04-0.02-0.04-0.04
				c0-0.02,0.02-0.04,0.04-0.04c0.21,0,0.37,0.17,0.37,0.37C10.65,57.38,10.63,57.4,10.61,57.4z"/>
		</g>
	</g>
</g>
<g class="bd-btn-tibbed bd-ai-st0"   >
	<path class="bd-ai-st8" d="M4.58,25.61V7.79h3.15v7.07h6.03v2.88H7.73v8.14c0,0.47,0.03,0.82,0.11,1.1c0.08,0.27,0.25,0.52,0.55,0.71
		c0.3,0.19,0.77,0.27,1.42,0.27h3.67v2.88H9.57c-0.11,0-0.27,0.03-0.47,0.03c-1.53,0-2.66-0.52-3.4-1.53
		C4.94,28.29,4.58,27.06,4.58,25.61"/>
	<path class="bd-ai-st8" d="M27.14,7.79h-3.15v14.94c0,0.11-0.03,0.25-0.03,0.47c0,1.04,0.27,2.19,0.79,3.45
		c0.52,1.29,1.37,2.38,2.52,3.32c1.15,0.93,2.63,1.4,4.44,1.4h0.38c1.89-0.08,3.43-0.52,4.66-1.32c1.23-0.79,2.11-1.81,2.66-3.01
		c0.55-1.21,0.82-2.47,0.82-3.81c0-0.11,0-0.19,0-0.25s0-0.14,0-0.22c0-1.7-0.38-3.15-1.15-4.33c-0.77-1.21-1.73-2.11-2.88-2.69
		c-1.15-0.58-2.25-0.88-3.34-0.88c-0.68,0-1.26,0.03-1.78,0.08v2.96c0.49-0.11,1.01-0.16,1.51-0.16c0.77,0,1.51,0.22,2.25,0.63
		c0.74,0.41,1.34,1.04,1.78,1.84c0.47,0.79,0.68,1.73,0.68,2.77c0,0.25,0,0.41-0.03,0.52c-0.38,3.32-2.22,4.99-5.51,4.99
		c-1.1,0-1.97-0.3-2.69-0.9c-0.71-0.6-1.21-1.43-1.53-2.47c-0.33-1.04-0.49-2.19-0.49-3.45V7.79H27.14z"/>
	<rect x="17.49" y="14.86" class="bd-ai-st8" width="2.88" height="16"/>
	<circle class="bd-ai-st8" cx="32.24" cy="22.62" r="2.79"/>
	<g class="bd-ai-st8">
		<path d="M58.42,19.69c-0.42-0.97-1-1.81-1.75-2.51c-0.75-0.7-1.63-1.23-2.63-1.6s-2.06-0.55-3.2-0.55c-0.36,0-0.71,0.02-1.05,0.07
			v2.81c0.38-0.07,0.8-0.1,1.25-0.1c0.82,0,1.62,0.19,2.38,0.58c0.76,0.38,1.39,0.98,1.89,1.8s0.77,1.83,0.82,3.05
			c0,0.86-0.19,1.72-0.58,2.58c-0.38,0.86-0.97,1.57-1.76,2.13c-0.79,0.56-1.75,0.84-2.89,0.84c-1.03,0-1.93-0.26-2.71-0.78
			c-0.78-0.52-1.39-1.23-1.81-2.11c-0.42-0.89-0.63-1.86-0.63-2.93V8.05h-2.9v15.23c0,1.46,0.34,2.82,1.03,4.08
			c0.69,1.26,1.64,2.26,2.87,3.02c1.23,0.75,2.62,1.14,4.16,1.17c1.67,0,3.13-0.4,4.36-1.2c1.23-0.8,2.17-1.87,2.81-3.2
			s0.96-2.75,0.96-4.26C59.04,21.72,58.83,20.66,58.42,19.69z"/>
		<path d="M64.85,23.65l7.9-4.36c-0.44-0.45-0.91-0.81-1.4-1.08s-1.25-0.4-2.3-0.4c-1.03,0-1.93,0.26-2.7,0.77
			c-0.77,0.51-1.36,1.21-1.77,2.08c-0.41,0.88-0.62,1.84-0.62,2.9c0.04,0.88,0.27,1.73,0.69,2.53c0.42,0.81,1.01,1.45,1.78,1.95
			c0.78,0.49,1.69,0.74,2.75,0.74c1.61-0.03,2.81-0.46,3.6-1.29c0.79-0.82,1.35-2.06,1.68-3.71l2.91,0.4
			c-0.02,0.77-0.2,1.58-0.56,2.42c-0.36,0.84-0.89,1.65-1.61,2.42c-0.71,0.77-1.59,1.39-2.65,1.86c-1.05,0.47-2.25,0.72-3.59,0.73
			c-1.4,0-2.72-0.36-3.97-1.08c-1.25-0.72-2.24-1.69-2.98-2.92s-1.11-2.55-1.11-3.96c0-1.44,0.24-2.7,0.73-3.8
			c0.49-1.1,1.13-2.01,1.94-2.72c0.81-0.71,1.69-1.24,2.64-1.58c0.95-0.34,1.9-0.52,2.82-0.52c1.81,0,3.34,0.41,4.57,1.23
			c1.24,0.82,2.3,2.09,3.19,3.8L66.11,26L64.85,23.65z"/>
		<path d="M92.51,8.12h2.9v15.5c0,1-0.28,2.14-0.84,3.38c-0.56,1.25-1.46,2.33-2.7,3.24c-1.24,0.91-2.79,1.37-4.65,1.37
			c-1.4-0.03-2.61-0.31-3.63-0.83c-1.02-0.52-1.85-1.19-2.47-2.01c-0.63-0.81-1.09-1.66-1.39-2.55c-0.3-0.88-0.48-1.74-0.53-2.58
			c0-1.42,0.23-2.66,0.68-3.74c0.46-1.08,1.04-1.97,1.76-2.67c0.72-0.7,1.5-1.23,2.34-1.59s1.66-0.55,2.45-0.56
			c2.19,0,3.83,0.36,4.93,1.09v3.11c-1.4-0.95-2.96-1.42-4.67-1.42c-1.31,0.14-2.41,0.68-3.3,1.63c-0.89,0.94-1.33,2.19-1.33,3.73
			c0,0.3,0.01,0.54,0.03,0.69c0.1,1.21,0.45,2.18,1.03,2.91c0.59,0.74,1.27,1.26,2.04,1.56c0.78,0.3,1.51,0.45,2.21,0.45
			c1.08-0.02,2.01-0.31,2.78-0.86c0.77-0.55,1.35-1.31,1.75-2.28c0.4-0.97,0.6-2.06,0.6-3.28L92.51,8.12L92.51,8.12z"/>
	</g>
</g>

</svg>
