<?xml version="1.0" encoding="utf-8"?>
<!-- Generator: Adobe Illustrator 16.0.0, SVG Export Plug-In . SVG Version: 6.00 Build 0)  -->
<!DOCTYPE svg PUBLIC "-//W3C//DTD SVG 1.1//EN" "http://www.w3.org/Graphics/SVG/1.1/DTD/svg11.dtd">
<svg version="1.1" id="tib-btn-vert" xmlns="http://www.w3.org/2000/svg" xmlns:xlink="http://www.w3.org/1999/xlink"
	 viewBox="0 2.5 60 62" xml:space="preserve">
<style type="text/css">
<![CDATA[
	.st0{fill:#BCBCBC;}
	.st1{visibility:hidden;opacity:0.3;fill:#FFFFFF;enable-background:new    ;}
	.st2{display:inline;fill:#FFF200;}
	.st3{display:inline;fill:#FFFFFF;}
	.st4{fill:#FFFFFF;}
	.st5{fill:none;}
	.st6{display:inline;}
	.st7{font-family:'ArialMT';}
	.st8{font-size:21;}
	.st9{visibility:hidden;}
]]>
</style>
<path class="bd-btn-cover bd-ai-st5"    d="M60,61.5c0,1.66-1.34,3-3,3H3c-1.66,0-3-1.34-3-3v-14c0-1.66,1.34-3,3-3h54
	c1.66,0,3,1.34,3,3V61.5z"/>
<path class="bd-btn-backdrop" d="M60,61.5c0,1.66-1.34,3-3,3H3c-1.66,0-3-1.34-3-3v-14c0-1.66,1.34-3,3-3h54c1.66,0,3,1.34,3,3V61.5z"
	/>
<path class="bd-btn-hover bd-ai-st1"    d="M60,17c0,1.66-1.34,3-3,3H3c-1.66,0-3-1.34-3-3V3c0-1.66,1.34-3,3-3h54c1.66,0,3,1.34,3,3V17
	z"/>
<g class="bd-btn-untibbed">
	<path class="bd-ai-st4" d="M19.29,58.27v-10.7h1.9v4.25h3.62v1.73h-3.62v4.89c0,0.28,0.02,0.5,0.07,0.66c0.05,0.17,0.15,0.31,0.33,0.43
		c0.18,0.12,0.46,0.16,0.86,0.16h2.21v1.73H22.3c-0.07,0-0.17,0.02-0.28,0.02c-0.92,0-1.6-0.31-2.04-0.92
		C19.5,59.89,19.29,59.15,19.29,58.27"/>
	<path class="bd-ai-st4" d="M32.84,47.57h-1.9v8.97c0,0.07-0.02,0.15-0.02,0.28c0,0.63,0.17,1.32,0.48,2.07c0.31,0.78,0.82,1.44,1.52,1.99
		c0.69,0.56,1.58,0.84,2.67,0.84h0.23c1.14-0.05,2.06-0.31,2.8-0.79c0.74-0.48,1.27-1.09,1.6-1.81c0.33-0.72,0.49-1.48,0.49-2.29
		c0-0.07,0-0.12,0-0.15c0-0.03,0-0.08,0-0.13c0-1.02-0.23-1.89-0.69-2.6c-0.46-0.72-1.04-1.27-1.73-1.61s-1.35-0.53-2.01-0.53
		c-0.41,0-0.76,0.02-1.07,0.05v1.78c0.3-0.07,0.61-0.1,0.91-0.1c0.46,0,0.91,0.13,1.35,0.38c0.44,0.25,0.8,0.63,1.07,1.1
		c0.28,0.48,0.41,1.04,0.41,1.66c0,0.15,0,0.25-0.02,0.31c-0.23,1.99-1.33,3-3.31,3c-0.66,0-1.19-0.18-1.61-0.54
		c-0.43-0.36-0.72-0.86-0.92-1.48c-0.2-0.62-0.3-1.32-0.3-2.07v-8.33H32.84L32.84,47.57z"/>
	<rect x="27.04" y="51.82" class="bd-ai-st4" width="1.73" height="9.62"/>
	<circle class="bd-ai-st4" cx="35.82" cy="56.63" r="1.67"/>
</g>
<g class="bd-btn-tibbed bd-ai-st9"   >
	<path class="bd-ai-st3" d="M5,13.22V3.51h1.74v3.85h3.32v1.57H6.72v4.43c0,0.26,0.01,0.45,0.06,0.6c0.04,0.14,0.13,0.29,0.3,0.39
		s0.42,0.16,0.79,0.16h2.02v1.57H7.74c-0.06,0-0.16,0.01-0.26,0.01c-0.85,0-1.47-0.28-1.87-0.84C5.2,14.69,5,14.01,5,13.22"/>
	<path class="bd-ai-st3" d="M17.42,3.51h-1.74v8.14c0,0.07-0.01,0.13-0.01,0.26c0,0.57,0.16,1.19,0.43,1.88c0.29,0.7,0.76,1.3,1.39,1.8
		c0.63,0.5,1.45,0.76,2.45,0.76h0.21c1.05-0.05,1.88-0.29,2.56-0.71c0.68-0.43,1.16-0.98,1.46-1.65c0.3-0.66,0.46-1.35,0.46-2.07
		c0-0.07,0-0.1,0-0.13c0-0.03,0-0.08,0-0.12c0-0.92-0.21-1.72-0.63-2.36c-0.42-0.66-0.96-1.15-1.58-1.46
		c-0.63-0.31-1.24-0.48-1.85-0.48c-0.38,0-0.69,0.01-0.98,0.04v1.61c0.28-0.06,0.56-0.09,0.82-0.09c0.42,0,0.82,0.12,1.24,0.34
		c0.41,0.22,0.73,0.57,0.98,1c0.26,0.43,0.38,0.95,0.38,1.5c0,0.13,0,0.22-0.01,0.29c-0.21,1.82-1.22,2.72-3.04,2.72
		c-0.6,0-1.09-0.17-1.48-0.49s-0.67-0.78-0.85-1.35c-0.18-0.57-0.27-1.19-0.27-1.88V3.5L17.42,3.51L17.42,3.51L17.42,3.51z"/>
	<rect x="12.11" y="7.36" class="bd-ai-st3" width="1.58" height="8.72"/>
	<ellipse class="bd-ai-st3" cx="20.22" cy="11.6" rx="1.53" ry="1.52"/>
	<g class="bd-ai-st6">
		<path class="bd-ai-st4" d="M34.63,10c-0.22-0.54-0.55-1-0.97-1.37c-0.42-0.38-0.9-0.67-1.44-0.87c-0.55-0.19-1.14-0.3-1.77-0.3
			c-0.2,0-0.39,0.01-0.58,0.04v1.53c0.21-0.04,0.45-0.05,0.69-0.05c0.46,0,0.89,0.1,1.31,0.31s0.77,0.53,1.05,0.98
			c0.27,0.44,0.43,1,0.46,1.66c0,0.47-0.1,0.93-0.31,1.41c-0.21,0.47-0.54,0.86-0.97,1.17c-0.43,0.31-0.97,0.45-1.59,0.45
			c-0.56,0-1.06-0.14-1.49-0.43c-0.43-0.29-0.76-0.67-0.99-1.15c-0.24-0.48-0.35-1.01-0.35-1.59V3.67h-1.6v8.31
			c0,0.8,0.18,1.54,0.56,2.23c0.38,0.69,0.9,1.23,1.58,1.65c0.68,0.42,1.44,0.62,2.29,0.64c0.91,0,1.73-0.22,2.39-0.66
			c0.68-0.44,1.19-1.03,1.54-1.74c0.35-0.71,0.54-1.5,0.54-2.32C34.97,11.11,34.86,10.52,34.63,10z"/>
		<path class="bd-ai-st4" d="M38.17,12.17l4.34-2.39c-0.25-0.25-0.5-0.44-0.77-0.6c-0.28-0.14-0.69-0.22-1.27-0.22
			c-0.56,0-1.06,0.14-1.49,0.41c-0.42,0.27-0.75,0.66-0.98,1.14c-0.22,0.48-0.34,1.01-0.34,1.58c0.03,0.48,0.15,0.95,0.38,1.38
			c0.22,0.44,0.55,0.79,0.98,1.06c0.43,0.27,0.93,0.4,1.52,0.4c0.89-0.01,1.54-0.25,1.99-0.7c0.44-0.45,0.75-1.13,0.93-2.02
			l1.61,0.22c-0.01,0.41-0.12,0.85-0.31,1.32c-0.2,0.47-0.5,0.89-0.89,1.32c-0.39,0.42-0.88,0.75-1.45,1.01
			c-0.58,0.26-1.24,0.39-1.98,0.4c-0.77,0-1.49-0.19-2.19-0.58c-0.68-0.39-1.23-0.92-1.64-1.59c-0.4-0.66-0.61-1.38-0.61-2.15
			c0-0.78,0.13-1.48,0.41-2.07c0.27-0.6,0.63-1.09,1.07-1.48c0.44-0.39,0.93-0.67,1.45-0.87c0.52-0.18,1.05-0.29,1.56-0.29
			c0.99,0,1.83,0.22,2.51,0.67c0.68,0.45,1.27,1.14,1.75,2.07l-5.89,3.24L38.17,12.17z"/>
		<path class="bd-ai-st4" d="M53.41,3.69H55v8.45c0,0.54-0.16,1.17-0.46,1.84c-0.31,0.69-0.81,1.27-1.49,1.76
			c-0.68,0.49-1.53,0.75-2.56,0.75c-0.77-0.01-1.44-0.17-2-0.45c-0.56-0.29-1.02-0.65-1.36-1.09c-0.34-0.44-0.6-0.91-0.76-1.39
			c-0.17-0.48-0.26-0.95-0.29-1.41c0-0.78,0.13-1.45,0.38-2.04c0.25-0.58,0.58-1.08,0.97-1.45c0.39-0.38,0.82-0.67,1.3-0.87
			c0.46-0.19,0.92-0.3,1.35-0.31c1.2,0,2.11,0.19,2.71,0.6v1.7C52.02,9.26,51.17,9,50.23,9c-0.72,0.08-1.34,0.38-1.82,0.88
			c-0.49,0.52-0.73,1.19-0.73,2.04c0,0.17,0,0.3,0.01,0.38c0.05,0.66,0.25,1.19,0.58,1.59s0.69,0.69,1.13,0.86
			c0.43,0.17,0.84,0.25,1.22,0.25c0.6-0.01,1.1-0.17,1.53-0.47c0.42-0.3,0.75-0.71,0.97-1.24c0.22-0.53,0.33-1.13,0.33-1.79V3.7
			h-0.04V3.69z"/>
	</g>
	<ellipse class="bd-ai-st3" cx="30.52" cy="11.6" rx="1.53" ry="1.52"/>
</g>
<g class="bd-btn-countersurround">
	<path class="bd-ai-st0" d="M1,5.5c0-1.1,0.9-2,2-2h54c1.1,0,2,0.9,2,2V37c0,1.1-0.9,2-2,2H34.93c-0.27,0-0.53,0.11-0.72,0.31l-3.16,3.28
		l-3.43-3.31C27.44,39.1,27.19,39,26.93,39H3c-1.1,0-2-0.9-2-2V3 M0,5.5V37c0,1.66,1.34,3,3,3h23.93l4.15,4l3.85-4H57
		c1.66,0,3-1.34,3-3V5.5c0-1.66-1.34-3-3-3H3C1.34,2.5,0,3.84,0,5.5L0,5.5z"/>
</g>
<text class="bd-btn-counter bd-ai-st7 bd-ai-st8"  text-anchor="middle" transform="matrix(1 0 0 1 30 25.709)" >123</text>
<g class="bd-btn-testnet bd-ai-st9"   >
	<rect x="2.19" y="44.5" class="bd-btn-testnet-backdrop bd-ai-st2" width="15.17" height="20"/>
	<g class="bd-ai-st6">
		<path d="M15.57,59.31l-4.3-6.78v-3.41h0.55c0.15,0,0.28-0.05,0.38-0.16c0.11-0.11,0.16-0.24,0.16-0.38c0-0.14-0.05-0.28-0.16-0.38
			c-0.11-0.11-0.24-0.16-0.38-0.16H7.44c-0.15,0-0.28,0.05-0.38,0.16c-0.12,0.1-0.17,0.22-0.17,0.37c0,0.15,0.05,0.28,0.16,0.38
			c0.11,0.11,0.24,0.17,0.39,0.17h0.55v3.41l-4.3,6.78c-0.32,0.51-0.38,0.94-0.18,1.3c0.2,0.36,0.6,0.54,1.2,0.54h9.85
			c0.6,0,1-0.18,1.2-0.54C15.95,60.25,15.89,59.82,15.57,59.31z M6.58,56.78l2.33-3.67l0.17-0.27v-0.31v-3.41h1.1v3.41v0.32
			l0.17,0.27l2.33,3.67L6.58,56.78L6.58,56.78z"/>
	</g>
</g>

</svg>
