<?xml version="1.0" encoding="UTF-8" standalone="no"?>
<!-- Generator: Adobe Illustrator 16.0.0, SVG Export Plug-In . SVG Version: 6.00 Build 0)  -->

<svg
   xmlns:dc="http://purl.org/dc/elements/1.1/"
   xmlns:cc="http://creativecommons.org/ns#"
   xmlns:rdf="http://www.w3.org/1999/02/22-rdf-syntax-ns#"
   xmlns:svg="http://www.w3.org/2000/svg"
   xmlns="http://www.w3.org/2000/svg"
   xmlns:sodipodi="http://sodipodi.sourceforge.net/DTD/sodipodi-0.dtd"
   xmlns:inkscape="http://www.inkscape.org/namespaces/inkscape"
   version="1.1"
   id="tib-btn-chevron"
   viewBox="0 0 90.01 22"
   xml:space="preserve"
   inkscape:version="0.91 r"
   sodipodi:docname="tib-btn-chevron.svg"
   width="90.01"
   height="22"><metadata
     id="metadata6498"><rdf:RDF><cc:Work
         rdf:about=""><dc:format>image/svg+xml</dc:format><dc:type
           rdf:resource="http://purl.org/dc/dcmitype/StillImage" /><dc:title></dc:title></cc:Work></rdf:RDF></metadata><defs
     id="defs6496" /><sodipodi:namedview
     pagecolor="#ffffff"
     bordercolor="#d32d2d"
     borderopacity="1"
     objecttolerance="10"
     gridtolerance="10"
     guidetolerance="10"
     inkscape:pageopacity="0"
     inkscape:pageshadow="2"
     inkscape:window-width="1920"
     inkscape:window-height="1053"
     id="namedview6494"
     showgrid="false"
     inkscape:zoom="8.844"
     inkscape:cx="10.32"
     inkscape:cy="15.18"
     inkscape:window-x="0"
     inkscape:window-y="0"
     inkscape:window-maximized="1"
     inkscape:current-layer="tib-btn-chevron"
     fit-margin-top="0"
     fit-margin-left="0"
     fit-margin-right="0"
     fit-margin-bottom="0"
     showguides="false"><inkscape:grid
       type="xygrid"
       id="grid8422"
       originx="0.006658"
       originy="-0.003299" /></sodipodi:namedview><style
     type="text/css"
     id="style6358"><![CDATA[
	.st0{visibility:hidden;opacity:0.4;}
	.st1{opacity:0.4;enable-background:new    ;}
	.st2{font-size:8;}
	.st3{display:inline;opacity:0.4;enable-background:new    ;}
	.st4{display:inline;fill:#FFF200;}
	.st5{display:inline;fill:#FFFFFF;}
	.st6{fill:#FFFFFF;}
	.st7{fill:none;}
	.st8{display:inline;}
	.st9{font-family:'ArialMT';}
	.st10{fill:#00D30A;}
	.st11{visibility:hidden;}
]]></style><rect
     class="bd-btn-cover bd-ai-st7"
     width="90"
     height="22"
     id="rect6360"
     style="stroke-width:0.2;stroke-miterlimit:4;stroke-dasharray:none"
     x="0.006658"
     y="5.96e-09" /><rect
     class="bd-btn-backdrop bd-ai-st10"
     width="90"
     height="22"
     id="rect6362"
     x="0.006658"
     y="5.96e-09" /><g
     class="bd-btn-hover bd-ai-st0"
     id="g6364"
     transform="translate(0.0067,0)"><path
       class="bd-ai-st8"
       d="M 24,0 21,0 C 21,0 26.84,6.34 31,10.91 27.03,15.28 21,22 21,22 l 3,0 C 24,22 30.03,15.28 34,10.91 29.84,6.34 24,0 24,0 Z"
       id="path6366"
       inkscape:connector-curvature="0" /><path
       class="bd-ai-st8"
       d="M 18,0 15,0 C 15,0 20.84,6.34 25,10.91 21.03,15.28 15,22 15,22 l 3,0 C 18,22 24.03,15.28 28,10.91 23.84,6.34 18,0 18,0 Z"
       id="path6368"
       inkscape:connector-curvature="0" /><path
       class="bd-ai-st8"
       d="M 12,0 9,0 C 9,0 14.84,6.34 19,10.91 15.03,15.28 9,22 9,22 l 3,0 C 12,22 18.03,15.28 22,10.91 17.84,6.34 12,0 12,0 Z"
       id="path6370"
       inkscape:connector-curvature="0" /><path
       class="bd-ai-st8"
       d="M 5,0 2,0 C 2,0 7.84,6.34 12,10.91 8.03,15.28 2,22 2,22 l 3,0 C 5,22 11.03,15.28 15,10.91 10.84,6.34 5,0 5,0 Z"
       id="path6372"
       inkscape:connector-curvature="0" /><path
       class="bd-ai-st8"
       d="m 0,1.09 0,3.26 c 1.88,2.05 4.11,4.48 6,6.56 -1.83,2.01 -4.09,4.52 -6,6.64 l 0,3.33 C 1.88,18.79 6.02,14.18 9,10.9 5.89,7.5 1.85,3.09 0,1.09 Z"
       id="path6374"
       inkscape:connector-curvature="0" /><path
       class="bd-ai-st8"
       d="m 0,7.62 0,3.28 0,3.32 C 1.04,13.06 2.08,11.92 3,10.9 2.06,9.87 1.03,8.75 0,7.62 Z"
       id="path6376"
       inkscape:connector-curvature="0" /><path
       class="bd-ai-st8"
       d="M 60,0 57,0 C 57,0 62.84,6.34 67,10.91 63.03,15.28 57,22 57,22 l 3,0 C 60,22 66.03,15.28 70,10.91 65.84,6.34 60,0 60,0 Z"
       id="path6378"
       inkscape:connector-curvature="0" /><path
       class="bd-ai-st8"
       d="M 54,0 51,0 C 51,0 56.84,6.34 61,10.91 57.03,15.28 51,22 51,22 l 3,0 C 54,22 60.03,15.28 64,10.91 59.84,6.34 54,0 54,0 Z"
       id="path6380"
       inkscape:connector-curvature="0" /><path
       class="bd-ai-st8"
       d="M 48,0 45,0 C 45,0 50.84,6.34 55,10.91 51.03,15.28 45,22 45,22 l 3,0 C 48,22 54.03,15.28 58,10.91 53.84,6.34 48,0 48,0 Z"
       id="path6382"
       inkscape:connector-curvature="0" /><path
       class="bd-ai-st8"
       d="M 42,0 39,0 C 39,0 44.84,6.34 49,10.91 45.03,15.28 39,22 39,22 l 3,0 C 42,22 48.03,15.28 52,10.91 47.84,6.34 42,0 42,0 Z"
       id="path6384"
       inkscape:connector-curvature="0" /><path
       class="bd-ai-st8"
       d="M 36,0 33,0 C 33,0 38.84,6.34 43,10.91 39.03,15.28 33,22 33,22 l 3,0 C 36,22 42.03,15.28 46,10.91 41.84,6.34 36,0 36,0 Z"
       id="path6386"
       inkscape:connector-curvature="0" /><path
       class="bd-ai-st8"
       d="M 30,0 27,0 C 27,0 32.84,6.34 37,10.91 33.03,15.28 27,22 27,22 l 3,0 C 30,22 36.03,15.28 40,10.91 35.84,6.34 30,0 30,0 Z"
       id="path6388"
       inkscape:connector-curvature="0" /></g><g
     class="bd-btn-untibbed"
     id="g6390"
     transform="translate(0.0067,0)"><g
       id="g6392"><path
         class="bd-ai-st6"
         d="m 33.3,15.11 0,-11.93 2.11,0 0,4.73 4.04,0 0,1.93 -4.04,0 0,5.45 c 0,0.31 0,0.55 0.1,0.73 0.1,0.18 0.17,0.35 0.37,0.48 0.2,0.13 0.51,0.18 0.95,0.18 l 2.46,0 0,1.93 -2.62,0 c -0.1,0 -0.19,0 -0.31,0 -1.03,0 -1.78,-0.35 -2.28,-1.03 -0.51,-0.69 -0.75,-1.52 -0.75,-2.49"
         id="path6394"
         inkscape:connector-curvature="0" /><path
         class="bd-ai-st6"
         d="m 48.4,3.18 -2.11,0 0,10 c 0,0.1 0,0.16 0,0.31 0,0.7 0.18,1.47 0.53,2.31 0.35,0.86 0.92,1.6 1.69,2.22 0.77,0.62 1.76,0.94 2.97,0.94 l 0.26,0 c 1.27,-0.1 2.29,-0.35 3.12,-0.88 0.83,-0.53 1.41,-1.21 1.78,-2.02 0.37,-0.81 0.55,-1.65 0.55,-2.55 0,-0.1 0,-0.13 0,-0.17 0,0 0,-0.1 0,-0.15 0,-1.14 -0.26,-2.11 -0.77,-2.9 C 55.88,9.48 55.24,8.88 54.47,8.49 53.7,8.11 52.96,7.9 52.23,7.9 c -0.46,0 -0.85,0.02 -1.19,0.05 l 0,1.98 c 0.33,-0.07 0.68,-0.11 1.01,-0.11 0.51,0 1.01,0.15 1.51,0.42 0.49,0.28 0.9,0.7 1.19,1.23 0.31,0.53 0.46,1.16 0.46,1.85 0,0.17 0,0.27 0,0.35 -0.26,2.22 -1.49,3.34 -3.69,3.34 -0.73,0 -1.32,-0.2 -1.8,-0.61 -0.48,-0.4 -0.81,-0.96 -1.03,-1.65 -0.22,-0.7 -0.33,-1.47 -0.33,-2.31 l 0,-9.26 0.1,0 z"
         id="path6396"
         inkscape:connector-curvature="0" /><rect
         x="41.94"
         y="7.92"
         class="bd-ai-st6"
         width="1.93"
         height="10.72"
         id="rect6398" /><circle
         class="bd-ai-st6"
         cx="51.72"
         cy="13.27"
         r="1.87"
         id="circle6400" /></g><path
       class="bd-ai-st6"
       d="m 11.55,6.7 3.83,0 0,1.64 -3.83,0 0,5.68 c 0,0.94 0.24,1.69 0.71,2.26 0.48,0.57 1.13,0.85 1.97,0.85 0.46,0 0.88,-0.1 1.25,-0.28 0.37,-0.19 0.66,-0.42 0.89,-0.71 0.23,-0.28 0.4,-0.6 0.51,-0.96 0.12,-0.35 0.17,-0.7 0.17,-1.02 0,-0.51 -0.1,-0.95 -0.23,-1.32 -0.15,-0.38 -0.35,-0.69 -0.62,-0.94 -0.27,-0.25 -0.56,-0.43 -0.86,-0.54 -0.31,-0.11 -0.63,-0.16 -0.97,-0.16 -0.25,0 -0.48,0 -0.72,0.1 l 0,-1.53 C 13.92,9.72 14.2,9.7 14.49,9.7 c 0.56,0 1.09,0.1 1.6,0.29 0.51,0.19 0.97,0.47 1.37,0.84 0.4,0.37 0.72,0.82 0.94,1.33 0.23,0.52 0.34,1.1 0.34,1.74 0,0.84 -0.17,1.62 -0.52,2.35 -0.35,0.73 -0.87,1.32 -1.56,1.78 -0.69,0.46 -1.5,0.68 -2.44,0.68 -1.42,0 -2.5,-0.46 -3.25,-1.38 C 10.22,16.41 9.84,15.27 9.84,13.9 l 0,-10.78 1.7,0 0,3.6 0,0 z"
       id="path6402"
       inkscape:connector-curvature="0" /><path
       class="bd-ai-st6"
       d="m 14.27,12.56 c 0.9,0 1.64,0.73 1.64,1.64 0,0.91 -0.73,1.64 -1.64,1.64 -0.9,0 -1.64,-0.73 -1.64,-1.64 0,-0.9 0.74,-1.64 1.64,-1.64"
       id="path6404"
       inkscape:connector-curvature="0" /><rect
       x="25"
       y="3"
       class="bd-ai-st6"
       width="1"
       height="16"
       id="rect6406" /><path
       class="bd-ai-st1"
       d="M 60,0 C 60,0 65.84,6.34 70,10.91 66.03,15.28 60,22 60,22 L 90,22 90,0 60,0 Z"
       id="path6408"
       style="stroke:none"
       inkscape:connector-curvature="0" /></g><text
     x="78.00666"
     y="14.85"
     class="bd-btn-counter bd-ai-st6 bd-ai-st9 bd-ai-st2"
     id="text6492"
     style="text-anchor:middle">123</text>
<g
     class="bd-btn-tibbed bd-ai-st11"
     id="g6410"><path
       class="bd-ai-st5"
       d="m 6.48,14.18 0,-9.23 1.63,0 0,3.67 3.12,0 0,1.49 -3.11,0 0,4.22 c 0,0.24 0.01,0.42 0.06,0.57 0.04,0.14 0.13,0.27 0.28,0.37 0.16,0.1 0.4,0.14 0.74,0.14 l 1.9,0 0,1.49 -2.03,0 c -0.06,0 -0.14,0 -0.24,0 -0.8,0 -1.38,-0.27 -1.76,-0.79 -0.4,-0.55 -0.59,-1.19 -0.59,-1.94"
       id="path6412"
       inkscape:connector-curvature="0" /><path
       class="bd-ai-st5"
       d="m 18.17,4.95 -1.63,0 0,7.74 c 0,0.1 0,0.13 0,0.24 0,0.54 0.14,1.14 0.41,1.79 0.27,0.67 0.71,1.24 1.31,1.72 0.6,0.48 1.36,0.73 2.3,0.73 l 0.2,0 c 0.98,0 1.78,-0.27 2.42,-0.68 0.64,-0.41 1.09,-0.94 1.38,-1.56 0.28,-0.62 0.43,-1.28 0.43,-1.97 0,-0.1 0,-0.1 0,-0.13 0,0 0,-0.1 0,-0.11 0,-0.88 -0.2,-1.63 -0.6,-2.25 -0.4,-0.62 -0.9,-1.09 -1.49,-1.39 -0.6,-0.3 -1.17,-0.46 -1.73,-0.46 -0.36,0 -0.65,0.02 -0.92,0.04 l 0,1.53 c 0.26,-0.1 0.53,-0.1 0.78,-0.1 0.4,0 0.78,0.11 1.17,0.33 0.38,0.21 0.7,0.54 0.92,0.95 0.24,0.41 0.35,0.9 0.35,1.43 0,0.13 0,0.21 0,0.27 -0.2,1.72 -1.15,2.59 -2.85,2.59 -0.57,0 -1.02,-0.16 -1.39,-0.47 -0.37,-0.31 -0.62,-0.74 -0.79,-1.28 -0.17,-0.54 -0.26,-1.14 -0.26,-1.79 l 0,-7.19 0,0 z"
       id="path6414"
       inkscape:connector-curvature="0" /><rect
       x="13.17"
       y="8.61"
       class="bd-ai-st5"
       width="1.49"
       height="8.3"
       id="rect6416" /><circle
       class="bd-ai-st5"
       cx="20.75"
       cy="12.76"
       r="1.44"
       id="circle6418" /><path
       class="bd-ai-st5"
       d="M 34.19,10.99 C 33.97,10.47 33.66,10.03 33.26,9.66 32.86,9.29 32.4,9.01 31.87,8.81 31.34,8.62 30.78,8.52 30.18,8.52 c -0.19,0 -0.38,0.01 -0.56,0.04 l 0,1.49 c 0.2,0 0.42,-0.1 0.66,-0.1 0.44,0 0.85,0.1 1.26,0.3 0.4,0.2 0.74,0.52 1,0.95 0.27,0.43 0.41,0.97 0.44,1.61 0,0.46 -0.1,0.91 -0.31,1.37 -0.2,0.46 -0.51,0.83 -0.93,1.13 -0.42,0.3 -0.93,0.44 -1.53,0.44 -0.54,0 -1.02,-0.14 -1.44,-0.41 -0.42,-0.28 -0.73,-0.65 -0.96,-1.12 -0.22,-0.47 -0.34,-0.99 -0.34,-1.55 l 0,-7.89 -1.54,0 0,8.07 c 0,0.77 0.18,1.5 0.54,2.16 0.36,0.67 0.87,1.2 1.52,1.6 0.65,0.4 1.39,0.6 2.2,0.62 0.89,0 1.66,-0.21 2.31,-0.64 0.65,-0.43 1.15,-0.99 1.49,-1.69 0.34,-0.7 0.51,-1.46 0.51,-2.26 0,-0.62 -0.1,-1.18 -0.31,-1.7 z"
       id="path6420"
       inkscape:connector-curvature="0" /><path
       class="bd-ai-st5"
       d="m 37.6,13.09 4.18,-2.31 C 41.55,10.54 41.3,10.35 41.04,10.21 40.78,10.07 40.37,10 39.82,10 c -0.54,0 -1.02,0.14 -1.43,0.41 -0.41,0.27 -0.72,0.64 -0.94,1.1 -0.22,0.46 -0.33,0.98 -0.33,1.54 0,0.47 0.14,0.91 0.36,1.34 0.22,0.43 0.53,0.77 0.94,1.03 0.41,0.26 0.9,0.39 1.46,0.39 0.85,0 1.49,-0.25 1.91,-0.68 0.42,-0.44 0.72,-1.09 0.89,-1.96 l 1.54,0.21 c 0,0.41 -0.11,0.83 -0.3,1.28 -0.19,0.45 -0.47,0.87 -0.85,1.28 -0.38,0.41 -0.84,0.73 -1.4,0.99 -0.56,0.25 -1.19,0.38 -1.9,0.39 -0.74,0 -1.44,-0.19 -2.1,-0.57 -0.66,-0.38 -1.19,-0.9 -1.58,-1.55 -0.39,-0.65 -0.59,-1.35 -0.59,-2.1 0,-0.76 0.13,-1.43 0.39,-2.01 0.26,-0.58 0.6,-1.06 1.03,-1.44 0.43,-0.38 0.89,-0.66 1.4,-0.84 0.5,-0.18 1,-0.27 1.49,-0.27 0.96,0 1.77,0.22 2.42,0.65 0.65,0.44 1.22,1.1 1.69,2.01 l -5.67,3.15 -0.65,-1.26 z"
       id="path6422"
       inkscape:connector-curvature="0" /><path
       class="bd-ai-st5"
       d="m 52.25,4.87 1.54,0 0,8.21 c 0,0.53 -0.15,1.13 -0.45,1.79 -0.3,0.66 -0.77,1.24 -1.43,1.72 -0.66,0.48 -1.48,0.72 -2.46,0.72 -0.74,0 -1.38,-0.16 -1.92,-0.44 -0.54,-0.28 -0.98,-0.63 -1.31,-1.06 -0.33,-0.43 -0.58,-0.88 -0.74,-1.35 -0.16,-0.47 -0.25,-0.92 -0.28,-1.37 0,-0.75 0.12,-1.41 0.36,-1.98 0.24,-0.57 0.55,-1.04 0.94,-1.41 0.38,-0.37 0.8,-0.65 1.24,-0.84 0.45,-0.19 0.88,-0.29 1.3,-0.3 1.16,0 2.03,0.19 2.61,0.58 l 0,1.65 c -0.74,-0.5 -1.56,-0.75 -2.47,-0.75 -0.7,0.1 -1.28,0.36 -1.75,0.86 -0.47,0.5 -0.7,1.16 -0.7,1.98 0,0.16 0,0.28 0,0.37 0,0.64 0.24,1.15 0.55,1.54 0.31,0.39 0.67,0.67 1.08,0.82 0.41,0.16 0.8,0.24 1.17,0.24 0.57,0 1.06,-0.16 1.47,-0.46 0.41,-0.3 0.72,-0.69 0.93,-1.21 0.21,-0.51 0.32,-1.09 0.32,-1.74 l 0,-7.57 0,0 z"
       id="path6424"
       inkscape:connector-curvature="0" /><polygon
       class="bd-ai-st3"
       points="58.17,11 65,22 80,22 90,22 90,0 80,0 65,0 "
       id="polygon6426"
       style="stroke:none" /></g><g
     class="bd-btn-testnet bd-ai-st11"
     id="g6428"
     style="opacity:0.774;stroke:none"><rect
       y="0"
       x="0"
       class="bd-btn-testnet-backdrop bd-ai-st4"
       width="23"
       height="22"
       id="rect6430"
       style="stroke:none" /><path
       inkscape:connector-curvature="0"
       class="bd-ai-st8"
       d="m 18.13,20.9 -13.26,0 c -0.96,0 -1.65,-0.55 -1.65,-1.3 0,-0.7 0.3,-1.16 0.35,-1.23 l 5.41,-9.29 0,-6.02 C 8.48,2.56 8.3,2.23 8.4,1.99 8.43,1.91 8.53,1.77 8.82,1.77 c 0.02,0 0.04,0 0.06,0 0.07,-0.02 0.16,-0.02 0.25,-0.02 0.16,0 0.3,0.02 0.35,0.03 l 4.04,0 c 0,-0.01 0.19,-0.03 0.35,-0.03 0.1,0 0.18,0.01 0.25,0.02 0,0 0,0 0.1,0 0.28,0 0.39,0.14 0.42,0.22 0.1,0.23 -0.1,0.57 -0.57,1.07 l 0,6.02 5.41,9.29 c 0,0.1 0.35,0.53 0.35,1.23 0,0.75 -0.7,1.3 -1.66,1.3 z M 8.71,2.13 c 0,0 -0.02,0.17 0.55,0.74 l 0.05,0.05 0,6.25 -5.47,9.39 c 0,0 -0.29,0.41 -0.29,1.03 0,0.66 0.68,0.97 1.32,0.97 l 13.27,0 c 0.63,0 1.31,-0.3 1.31,-0.97 0,-0.64 -0.28,-1.03 -0.29,-1.03 l 0,0 -5.46,-9.37 0,-6.25 0.1,-0.05 c 0.58,-0.58 0.55,-0.75 0.55,-0.75 0,0 0,-0.01 -0.11,-0.01 0,0 0,0 -0.1,0 l 0,0 0,-0.01 c 0,-0.01 -0.1,-0.02 -0.2,-0.02 -0.16,0 -0.31,0.02 -0.31,0.02 l 0,0 -4.09,0 c 0,0 -0.15,-0.02 -0.31,-0.02 -0.1,0 -0.17,0.01 -0.2,0.02 l -0.02,0.01 -0.03,0 c -0.01,0 -0.03,0 -0.05,0 -0.07,0 -0.11,0.01 -0.11,0.02 l 0,0 z"
       id="path6432"
       style="stroke:none" /><path
       inkscape:connector-curvature="0"
       class="bd-ai-st8"
       d="m 8.02,12.69 -3.34,5.54 c 0,0 -0.36,0.68 -0.19,1.17 0.17,0.49 0.28,0.81 1.82,0.81 1.53,0 11.01,0 11.01,0 0,0 1.01,0 1.2,-0.77 0.19,-0.8 -0.11,-1.18 -0.72,-2.13 -0.6,-0.95 -2.6,-4.22 -2.6,-4.22 0,0 -0.84,0.47 -1.64,0.46 -0.8,0 -2.04,0.19 -2.76,-0.1 -0.72,-0.23 -2.5,-1.14 -2.78,-0.81 z"
       id="path6434"
       style="stroke:none" /><g
       class="bd-ai-st8"
       id="g6436"
       style="stroke:none"><g
         id="g6438"
         style="stroke:none"><circle
           cx="12.24"
           cy="11.24"
           r="1.15"
           id="circle6440"
           style="stroke:none" /><path
           inkscape:connector-curvature="0"
           d="m 12.24,12.44 c -0.66,0 -1.2,-0.54 -1.2,-1.2 0,-0.66 0.54,-1.2 1.2,-1.2 0.66,0 1.2,0.54 1.2,1.2 0,0.66 -0.54,1.2 -1.2,1.2 z m 0,-2.31 c -0.61,0 -1.11,0.5 -1.11,1.11 0,0.61 0.5,1.11 1.11,1.11 0.61,0 1.11,-0.5 1.11,-1.11 0,-0.61 -0.5,-1.11 -1.11,-1.11 z"
           id="path6442"
           style="stroke:none" /></g><g
         id="g6444"
         style="stroke:none"><path
           inkscape:connector-curvature="0"
           d="m 13.02,11.24 c 0,-0.43 -0.35,-0.78 -0.78,-0.78"
           id="path6446"
           style="stroke:none" /><path
           inkscape:connector-curvature="0"
           d="m 13.02,11.28 c 0,0 0,0 0,0 0,-0.41 -0.33,-0.74 -0.74,-0.74 0,0 0,0 0,0 0,0 0,0 0,0 0.45,0 0.82,0.37 0.82,0.82 0,0 0,0 0,0 z"
           id="path6448"
           style="stroke:none" /></g></g><g
       class="bd-ai-st8"
       id="g6450"
       style="stroke:none"><g
         id="g6452"
         style="stroke:none"><circle
           cx="10.61"
           cy="12.95"
           r="0.83"
           id="circle6454"
           style="stroke:none" /><path
           inkscape:connector-curvature="0"
           d="m 10.61,13.82 c -0.48,0 -0.88,-0.39 -0.88,-0.88 0,-0.48 0.39,-0.88 0.88,-0.88 0.48,0 0.88,0.39 0.88,0.88 0,0.49 -0.4,0.88 -0.88,0.88 z m 0,-1.66 c -0.44,0 -0.79,0.35 -0.79,0.79 0,0.44 0.35,0.79 0.79,0.79 0.44,0 0.79,-0.35 0.79,-0.79 0,-0.44 -0.35,-0.79 -0.79,-0.79 z"
           id="path6456"
           style="stroke:none" /></g><g
         id="g6458"
         style="stroke:none"><path
           inkscape:connector-curvature="0"
           d="m 11.17,12.95 c 0,-0.31 -0.25,-0.56 -0.56,-0.56"
           id="path6460"
           style="stroke:none" /><path
           inkscape:connector-curvature="0"
           d="m 11.17,12.99 c 0,0 0,0 0,0 0,-0.29 -0.23,-0.52 -0.52,-0.52 0,0 0,0 0,0 0,0 0,0 0,0 0.33,0 0.6,0.27 0.6,0.6 0,0 0,0 0,0 z"
           id="path6462"
           style="stroke:none" /></g></g><g
       class="bd-ai-st8"
       id="g6464"
       style="stroke:none"><g
         id="g6466"
         style="stroke:none"><circle
           cx="11.92"
           cy="14.35"
           r="0.79"
           id="circle6468"
           style="stroke:none" /><path
           inkscape:connector-curvature="0"
           d="m 11.92,15.18 c -0.46,0 -0.83,-0.37 -0.83,-0.83 0,-0.46 0.37,-0.83 0.83,-0.83 0.46,0 0.83,0.37 0.83,0.83 0,0.46 -0.37,0.83 -0.83,0.83 z m 0,-1.57 c -0.41,0 -0.74,0.33 -0.74,0.74 0,0.41 0.33,0.74 0.74,0.74 0.41,0 0.74,-0.33 0.74,-0.74 0,-0.41 -0.33,-0.74 -0.74,-0.74 z"
           id="path6470"
           style="stroke:none" /></g><g
         id="g6472"
         style="stroke:none"><path
           inkscape:connector-curvature="0"
           d="m 12.46,14.35 c 0,-0.29 -0.24,-0.53 -0.53,-0.53"
           id="path6474"
           style="stroke:none" /><path
           inkscape:connector-curvature="0"
           d="m 12.46,14.4 c 0,0 0,0 0,0 0,-0.27 -0.22,-0.49 -0.49,-0.49 0,0 0,0 0,0 0,0 0,0 0,0 0.32,0 0.57,0.26 0.57,0.57 0,0 0,0 0,0 z"
           id="path6476"
           style="stroke:none" /></g></g><g
       class="bd-ai-st8"
       id="g6478"
       style="stroke:none"><g
         id="g6480"
         style="stroke:none"><circle
           cx="10.33"
           cy="15.36"
           r="0.49"
           id="circle6482"
           style="stroke:none" /><path
           inkscape:connector-curvature="0"
           d="m 10.33,15.89 c -0.29,0 -0.54,-0.24 -0.54,-0.54 0,-0.29 0.24,-0.53 0.54,-0.53 0.29,0 0.53,0.24 0.53,0.53 0,0.29 -0.23,0.54 -0.53,0.54 z m 0,-0.98 c -0.25,0 -0.45,0.2 -0.45,0.45 0,0.25 0.2,0.45 0.45,0.45 0.25,0 0.45,-0.2 0.45,-0.45 0,-0.25 -0.2,-0.45 -0.45,-0.45 z"
           id="path6484"
           style="stroke:none" /></g><g
         id="g6486"
         style="stroke:none"><path
           inkscape:connector-curvature="0"
           d="m 10.67,15.36 c 0,-0.18 -0.15,-0.33 -0.33,-0.33"
           id="path6488"
           style="stroke:none" /><path
           inkscape:connector-curvature="0"
           d="m 10.67,15.4 c 0,0 0,0 0,0 0,-0.16 -0.13,-0.29 -0.29,-0.29 0,0 0,0 0,0 0,0 0,0 0,0 0.21,0 0.37,0.17 0.37,0.37 0,0 0,0 0,0 z"
           id="path6490"
           style="stroke:none" /></g></g></g></svg>