<?xml version="1.0" encoding="utf-8"?>
<!-- Generator: Adobe Illustrator 16.0.0, SVG Export Plug-In . SVG Version: 6.00 Build 0)  -->
<!DOCTYPE svg PUBLIC "-//W3C//DTD SVG 1.1//EN" "http://www.w3.org/Graphics/SVG/1.1/DTD/svg11.dtd">
<svg version="1.1" id="tib-btn-default" xmlns="http://www.w3.org/2000/svg" xmlns:xlink="http://www.w3.org/1999/xlink"
	 viewBox="0 0 183.5 80" xml:space="preserve">
<style type="text/css">
<![CDATA[
	st0{visibility:hidden;opacity:0.1;}
	st1{visibility:hidden;opacity:0.8;}
	st2{fill:#8CC63F;}
	st3{display:inline;fill:#FFFF00;}
	st4{display:inline;fill:#FFFFFF;}
	st5{opacity:0.1;}
	st6{fill:#FFFFFF;}
	st7{fill:none;}
	st8{display:inline;}
	st9{visibility:hidden;}
]]>
</style>
<path class="bd-btn-cover bd-ai-st7" d="M141.5,0h-100c-22.09,0-40,17.91-40,40s17.91,40,40,40h100c22.09,0,40-17.91,40-40
	S163.59,0,141.5,0z"/>
<path class="bd-btn-backdrop bd-ai-st2" d="M141.5,0h-100c-22.09,0-40,17.91-40,40s17.91,40,40,40h100c22.09,0,40-17.91,40-40
	S163.59,0,141.5,0z"/>
<path class="bd-ai-st5" d="M41.5,80h100c22.09,0,40-17.91,40-40H1.5C1.5,62.09,19.41,80,41.5,80z"/>
<path class="bd-btn-hover bd-ai-st0" d="M41.5,0h100c22.09,0,40,17.91,40,40H1.5C1.5,17.91,19.41,0,41.5,0z"/>
<g class="bd-btn-untibbed ">
	<path class="bd-ai-st6" d="M50.21,55.11V10.46h7.9v17.72h15.11v7.21H58.1v20.4c0,1.17,0.07,2.06,0.27,2.75c0.21,0.69,0.62,1.3,1.37,1.78
		c0.75,0.48,1.92,0.69,3.57,0.69h9.2v7.21h-9.82c-0.28,0-0.69,0.07-1.17,0.07c-3.85,0-6.66-1.3-8.52-3.85
		C51.1,61.84,50.21,58.75,50.21,55.11"/>
	<path class="bd-ai-st6" d="M106.73,10.46h-7.9V47.9c0,0.27-0.07,0.62-0.07,1.17c0,2.61,0.69,5.5,1.99,8.65c1.31,3.23,3.44,5.98,6.32,8.31
		c2.88,2.33,6.59,3.5,11.13,3.5h0.96c4.74-0.21,8.59-1.31,11.67-3.3c3.09-1.99,5.29-4.53,6.66-7.56c1.38-3.02,2.06-6.18,2.06-9.55
		c0-0.27,0-0.48,0-0.62c0-0.14,0-0.34,0-0.55c0-4.26-0.96-7.9-2.88-10.85c-1.92-3.02-4.33-5.29-7.21-6.73
		c-2.88-1.44-5.63-2.2-8.38-2.2c-1.71,0-3.16,0.07-4.46,0.21v7.42c1.24-0.27,2.54-0.41,3.78-0.41c1.92,0,3.78,0.55,5.63,1.58
		c1.85,1.03,3.36,2.61,4.46,4.6c1.17,1.99,1.72,4.33,1.72,6.94c0,0.62,0,1.03-0.07,1.3c-0.96,8.31-5.56,12.5-13.81,12.5
		c-2.75,0-4.94-0.75-6.73-2.27c-1.78-1.51-3.02-3.57-3.84-6.18c-0.83-2.61-1.24-5.49-1.24-8.65V10.46H106.73z"/>
	<rect x="82.56" y="28.19" class="bd-ai-st6" width="7.21" height="40.11"/>
	<path class="bd-ai-st6" d="M125.16,48.9c0,3.31-2.68,6.01-6,6.01c-3.32,0-6-2.69-6-6.01c0-3.31,2.68-6,6-6
		C122.48,42.9,125.16,45.59,125.16,48.9z"/>
</g>
<g class="bd-btn-tibbed bd-ai-st1">
	<path class="bd-ai-st4" d="M13.65,50.15V19.51h5.42v12.16h10.37v4.95H19.07v14c0,0.8,0.05,1.41,0.19,1.89c0.14,0.47,0.42,0.9,0.94,1.22
		c0.52,0.33,1.32,0.47,2.45,0.47h6.32v4.95h-6.74c-0.19,0-0.47,0.05-0.8,0.05c-2.64,0-4.57-0.89-5.85-2.64
		C14.26,54.77,13.65,52.65,13.65,50.15"/>
	<path class="bd-ai-st4" d="M52.44,19.51h-5.42V45.2c0,0.19-0.05,0.42-0.05,0.8c0,1.79,0.47,3.77,1.37,5.94c0.9,2.22,2.36,4.1,4.34,5.7
		c1.98,1.6,4.52,2.41,7.64,2.41h0.66c3.25-0.14,5.89-0.9,8.01-2.26c2.12-1.37,3.63-3.11,4.57-5.18c0.94-2.07,1.41-4.24,1.41-6.55
		c0-0.19,0-0.33,0-0.42c0-0.09,0-0.24,0-0.38c0-2.92-0.66-5.42-1.98-7.45c-1.32-2.08-2.97-3.63-4.95-4.62
		c-1.98-0.99-3.87-1.51-5.75-1.51c-1.18,0-2.17,0.04-3.06,0.14v5.09c0.85-0.19,1.74-0.28,2.59-0.28c1.32,0,2.59,0.38,3.86,1.08
		c1.27,0.71,2.31,1.79,3.07,3.16c0.8,1.37,1.18,2.97,1.18,4.76c0,0.42,0,0.71-0.05,0.9c-0.66,5.7-3.82,8.58-9.47,8.58
		c-1.88,0-3.39-0.52-4.62-1.56c-1.22-1.04-2.07-2.45-2.64-4.24c-0.57-1.79-0.85-3.77-0.85-5.94V19.51H52.44z"/>
	<rect x="35.85" y="31.68" class="bd-ai-st4" width="4.95" height="27.53"/>
	<circle class="bd-ai-st4" cx="61.22" cy="45.02" r="4.79"/>
	<g class="bd-ai-st8">
		<path class="bd-ai-st6" d="M106.24,39.97c-0.71-1.67-1.72-3.11-3.01-4.31c-1.3-1.2-2.8-2.12-4.52-2.75c-1.72-0.63-3.55-0.95-5.5-0.95
			c-0.62,0-1.22,0.04-1.81,0.12v4.84c0.66-0.12,1.38-0.18,2.16-0.18c1.41,0,2.78,0.33,4.09,0.99c1.31,0.66,2.39,1.69,3.25,3.1
			c0.86,1.4,1.33,3.15,1.42,5.24c0,1.48-0.33,2.96-0.99,4.44c-0.66,1.48-1.67,2.7-3.03,3.66c-1.36,0.96-3.01,1.44-4.98,1.44
			c-1.77,0-3.32-0.45-4.67-1.35c-1.35-0.9-2.38-2.11-3.11-3.63c-0.73-1.53-1.09-3.2-1.09-5.03V19.96h-5v26.2
			c0,2.52,0.59,4.86,1.77,7.02c1.18,2.16,2.83,3.89,4.94,5.19c2.11,1.3,4.5,1.97,7.15,2.01c2.88,0,5.38-0.69,7.5-2.07
			c2.12-1.38,3.73-3.21,4.84-5.5c1.11-2.29,1.66-4.73,1.66-7.33C107.31,43.48,106.96,41.64,106.24,39.97z"/>
		<path class="bd-ai-st6" d="M117.3,46.79l13.59-7.5c-0.76-0.78-1.56-1.4-2.4-1.87c-0.84-0.46-2.16-0.69-3.96-0.69
			c-1.77,0-3.31,0.44-4.64,1.32c-1.33,0.88-2.35,2.07-3.05,3.58c-0.71,1.51-1.06,3.17-1.06,5c0.08,1.52,0.47,2.97,1.18,4.35
			c0.71,1.39,1.74,2.5,3.07,3.36c1.33,0.85,2.91,1.28,4.73,1.28c2.77-0.05,4.83-0.8,6.2-2.22c1.36-1.42,2.33-3.54,2.89-6.38
			l5.01,0.7c-0.03,1.32-0.35,2.71-0.96,4.16c-0.62,1.46-1.54,2.84-2.76,4.16c-1.23,1.32-2.74,2.38-4.55,3.2
			c-1.81,0.82-3.87,1.23-6.17,1.26c-2.41,0-4.68-0.62-6.82-1.86c-2.14-1.24-3.85-2.91-5.13-5.02c-1.28-2.11-1.92-4.38-1.92-6.82
			c0-2.47,0.42-4.65,1.25-6.54c0.84-1.89,1.95-3.45,3.34-4.68s2.9-2.14,4.54-2.73c1.64-0.59,3.26-0.89,4.85-0.89
			c3.12,0,5.74,0.71,7.86,2.12c2.12,1.41,3.95,3.59,5.49,6.53l-18.42,10.23L117.3,46.79z"/>
		<path class="bd-ai-st6" d="M164.89,20.07h5v26.66c0,1.73-0.48,3.67-1.45,5.82c-0.97,2.15-2.52,4.01-4.65,5.58
			c-2.13,1.57-4.8,2.35-8,2.35c-2.41-0.05-4.49-0.53-6.25-1.43c-1.76-0.89-3.18-2.05-4.26-3.45c-1.08-1.4-1.88-2.86-2.39-4.38
			c-0.52-1.51-0.82-3-0.92-4.44c0-2.43,0.39-4.58,1.17-6.43c0.78-1.86,1.79-3.39,3.04-4.59c1.24-1.2,2.58-2.12,4.03-2.74
			c1.45-0.62,2.85-0.94,4.22-0.97c3.76,0,6.58,0.62,8.47,1.88v5.34c-2.41-1.63-5.08-2.45-8.03-2.45c-2.26,0.24-4.15,1.17-5.67,2.8
			c-1.52,1.62-2.29,3.76-2.29,6.42c0,0.52,0.02,0.92,0.06,1.19c0.18,2.08,0.77,3.75,1.78,5.01c1.01,1.27,2.18,2.16,3.51,2.68
			c1.33,0.52,2.6,0.78,3.81,0.78c1.86-0.04,3.45-0.53,4.78-1.48c1.32-0.95,2.33-2.25,3.01-3.91c0.69-1.66,1.03-3.54,1.03-5.64V20.07
			z"/>
	</g>
</g>
<g class="bd-btn-testnet bd-ai-st9">
	<path class="bd-btn-testnet-backdrop bd-ai-st3" d="M41.5,0c-22.09,0-40,17.91-40,40s17.91,40,40,40h2V0H41.5z"/>
	<path class="bd-ai-st8" d="M28.17,49.9H14.91c-0.96,0-1.65-0.55-1.65-1.3c0-0.7,0.3-1.16,0.35-1.23l5.41-9.29v-6.02
		c-0.5-0.5-0.68-0.83-0.58-1.07c0.03-0.08,0.13-0.22,0.42-0.22c0.02,0,0.04,0,0.06,0c0.07-0.01,0.15-0.02,0.25-0.02
		c0.16,0,0.3,0.02,0.35,0.03h4.04c0.05-0.01,0.19-0.03,0.35-0.03c0.1,0,0.18,0.01,0.25,0.02c0.02,0,0.04,0,0.06,0
		c0.29,0,0.39,0.14,0.42,0.22c0.1,0.23-0.08,0.57-0.57,1.07v6.02l5.41,9.29c0.05,0.07,0.35,0.53,0.35,1.23
		C29.83,49.35,29.13,49.9,28.17,49.9z M18.75,31.13c0,0-0.02,0.17,0.55,0.74l0.05,0.05v6.25l-5.47,9.39c0,0-0.29,0.41-0.29,1.04
		c0,0.66,0.68,0.97,1.31,0.97h13.27c0.63,0,1.31-0.3,1.31-0.97c0-0.64-0.28-1.03-0.29-1.04l-0.01-0.01l-5.46-9.37v-6.26l0.05-0.05
		c0.58-0.58,0.55-0.75,0.55-0.75s-0.04-0.01-0.11-0.01c-0.02,0-0.04,0-0.05,0h-0.03l-0.02-0.01c-0.03-0.01-0.1-0.02-0.2-0.02
		c-0.16,0-0.31,0.02-0.31,0.02h-0.03h-4.09c0,0-0.15-0.02-0.31-0.02c-0.1,0-0.16,0.01-0.2,0.02l-0.03,0.01h-0.03
		c-0.01,0-0.03,0-0.05,0C18.79,31.11,18.75,31.12,18.75,31.13L18.75,31.13z"/>
	<path class="bd-ai-st8" d="M18.06,41.69l-3.34,5.54c0,0-0.36,0.68-0.19,1.17c0.17,0.49,0.28,0.81,1.82,0.81c1.53,0,11,0,11,0
		s1.01,0.03,1.2-0.77c0.19-0.8-0.11-1.18-0.72-2.13c-0.61-0.95-2.6-4.22-2.6-4.22s-0.84,0.47-1.64,0.46
		c-0.8-0.01-2.04,0.19-2.76-0.05C20.12,42.27,18.34,41.36,18.06,41.69z"/>
	<g class="bd-ai-st8">
		<g>
			<circle cx="22.28" cy="40.24" r="1.15"/>
			<path d="M22.28,41.44c-0.66,0-1.2-0.54-1.2-1.2s0.54-1.2,1.2-1.2s1.2,0.54,1.2,1.2S22.94,41.44,22.28,41.44z M22.28,39.13
				c-0.61,0-1.11,0.5-1.11,1.11c0,0.61,0.5,1.11,1.11,1.11c0.61,0,1.11-0.5,1.11-1.11C23.39,39.63,22.89,39.13,22.28,39.13z"/>
		</g>
		<g>
			<path d="M23.06,40.24c0-0.43-0.35-0.78-0.78-0.78"/>
			<path d="M23.06,40.28c-0.02,0-0.04-0.02-0.04-0.04c0-0.41-0.33-0.74-0.74-0.74c-0.02,0-0.04-0.02-0.04-0.04s0.02-0.04,0.04-0.04
				c0.45,0,0.82,0.37,0.82,0.82C23.1,40.26,23.08,40.28,23.06,40.28z"/>
		</g>
	</g>
	<g class="bd-ai-st8">
		<g>
			<circle cx="20.65" cy="41.95" r="0.83"/>
			<path d="M20.65,42.82c-0.48,0-0.87-0.39-0.87-0.87c0-0.48,0.39-0.87,0.87-0.87c0.48,0,0.87,0.39,0.87,0.87
				C21.53,42.43,21.13,42.82,20.65,42.82z M20.65,41.16c-0.44,0-0.79,0.35-0.79,0.79s0.35,0.79,0.79,0.79
				c0.44,0,0.79-0.35,0.79-0.79S21.09,41.16,20.65,41.16z"/>
		</g>
		<g>
			<path d="M21.21,41.95c0-0.31-0.25-0.56-0.56-0.56"/>
			<path d="M21.21,41.99c-0.02,0-0.04-0.02-0.04-0.04c0-0.29-0.23-0.52-0.52-0.52c-0.02,0-0.04-0.02-0.04-0.04
				c0-0.02,0.02-0.04,0.04-0.04c0.33,0,0.6,0.27,0.6,0.6C21.25,41.97,21.24,41.99,21.21,41.99z"/>
		</g>
	</g>
	<g class="bd-ai-st8">
		<g>
			<circle cx="21.97" cy="43.35" r="0.79"/>
			<path d="M21.96,44.18c-0.46,0-0.83-0.37-0.83-0.83c0-0.46,0.37-0.83,0.83-0.83c0.46,0,0.83,0.37,0.83,0.83
				C22.79,43.81,22.42,44.18,21.96,44.18z M21.96,42.61c-0.41,0-0.74,0.33-0.74,0.74s0.33,0.74,0.74,0.74s0.74-0.33,0.74-0.74
				C22.71,42.94,22.37,42.61,21.96,42.61z"/>
		</g>
		<g>
			<path d="M22.5,43.35c0-0.29-0.24-0.53-0.53-0.53"/>
			<path d="M22.5,43.4c-0.02,0-0.04-0.02-0.04-0.04c0-0.27-0.22-0.49-0.49-0.49c-0.02,0-0.04-0.02-0.04-0.04s0.02-0.04,0.04-0.04
				c0.32,0,0.57,0.26,0.57,0.57C22.54,43.38,22.52,43.4,22.5,43.4z"/>
		</g>
	</g>
	<g class="bd-ai-st8">
		<g>
			<circle cx="20.38" cy="44.36" r="0.49"/>
			<path d="M20.38,44.89c-0.29,0-0.53-0.24-0.53-0.53c0-0.29,0.24-0.53,0.53-0.53c0.29,0,0.53,0.24,0.53,0.53
				C20.91,44.65,20.67,44.89,20.38,44.89z M20.38,43.91c-0.25,0-0.45,0.2-0.45,0.45s0.2,0.45,0.45,0.45c0.25,0,0.45-0.2,0.45-0.45
				S20.62,43.91,20.38,43.91z"/>
		</g>
		<g>
			<path d="M20.71,44.36c0-0.18-0.15-0.33-0.33-0.33"/>
			<path d="M20.71,44.4c-0.02,0-0.04-0.02-0.04-0.04c0-0.16-0.13-0.29-0.29-0.29c-0.02,0-0.04-0.02-0.04-0.04
				c0-0.02,0.02-0.04,0.04-0.04c0.21,0,0.37,0.17,0.37,0.37C20.75,44.38,20.73,44.4,20.71,44.4z"/>
		</g>
	</g>
</g>

</svg>
