<?xml version="1.0" encoding="utf-8"?>
<!-- Generator: Adobe Illustrator 16.0.0, SVG Export Plug-In . SVG Version: 6.00 Build 0)  -->
<!DOCTYPE svg PUBLIC "-//W3C//DTD SVG 1.1//EN" "http://www.w3.org/Graphics/SVG/1.1/DTD/svg11.dtd">
<svg version="1.1" id="Layer_1" xmlns="http://www.w3.org/2000/svg" xmlns:xlink="http://www.w3.org/1999/xlink" x="0px" y="0px"
	 width="100px" height="40.375px" viewBox="0 0 100 64" enable-background="new 0 0 100 64" xml:space="preserve">
	 <g class="tib">
<rect class="LOWERBACK base_colour" fill="#333333" width="100" height="64"/>
<rect class="TOPBACK colour_two" fill="#8CC63F" width="100" height="39"/>
<path class="base_colour LTR-t" fill="#333333" d="M29.228,27.825V5.167h4.009v8.994h7.668v3.66h-7.668v10.353c0,0.592,0.035,1.046,0.139,1.395
	c0.105,0.348,0.314,0.662,0.697,0.906c0.383,0.244,0.976,0.349,1.812,0.349h4.671v3.66h-4.984c-0.14,0-0.349,0.035-0.593,0.035
	c-1.952,0-3.381-0.662-4.322-1.952C29.681,31.241,29.228,29.672,29.228,27.825"/>
<path class="LTR-b base_colour" fill="#333333" d="M57.916,5.167h-4.008v18.998c0,0.139-0.035,0.313-0.035,0.592c0,1.325,0.349,2.789,1.011,4.393
	c0.663,1.638,1.743,3.033,3.207,4.217c1.464,1.186,3.346,1.778,5.647,1.778h0.488c2.406-0.105,4.357-0.663,5.926-1.673
	c1.568-1.011,2.684-2.301,3.381-3.834c0.697-1.534,1.046-3.137,1.046-4.845c0-0.14,0-0.244,0-0.314s0-0.174,0-0.279
	c0-2.161-0.488-4.008-1.464-5.507c-0.976-1.534-2.196-2.684-3.66-3.416s-2.858-1.115-4.253-1.115c-0.871,0-1.604,0.035-2.266,0.104
	v3.764c0.627-0.139,1.29-0.209,1.917-0.209c0.976,0,1.917,0.279,2.858,0.802c0.941,0.523,1.708,1.325,2.266,2.335
	c0.593,1.011,0.872,2.196,0.872,3.521c0,0.314,0,0.523-0.035,0.663c-0.488,4.218-2.823,6.344-7.006,6.344
	c-1.395,0-2.51-0.384-3.416-1.15s-1.534-1.812-1.952-3.137s-0.627-2.789-0.627-4.392V5.167H57.916z"/>
<rect class="base_colour LTR-i" x="45.646" y="14.161" fill="#333333" width="3.66" height="20.356"/>
<circle class="base_colour tib-dot" fill="#333333" cx="64.404" cy="24.028" r="3.544"/>
<text class="tib_counter COUNTER colour_two" transform="matrix(1 0 0 1 36.6631 57.75)" fill="#8CC63F" font-family="'Systopie'" font-size="18">123</text>
</g>
<g class="tibbed">
	<rect class="base_colour LOWERBACK" fill="#333333" width="100" height="64"/>
<rect class="TOPBACK colour_two" fill="#8CC63F" width="100" height="39"/>
<path class="base_colour LTR-t" fill="#333333" d="M4.581,23.145V5.33h3.152v7.071h6.029v2.877H7.733v8.14c0,0.466,0.027,0.822,0.109,1.096
	c0.083,0.274,0.247,0.521,0.548,0.712c0.301,0.192,0.767,0.274,1.425,0.274h3.672v2.878H9.569c-0.11,0-0.274,0.027-0.466,0.027
	c-1.535,0-2.658-0.521-3.398-1.535C4.938,25.83,4.581,24.597,4.581,23.145"/>
<path class="base_colour LTR-b" fill="#333333" d="M27.137,5.33h-3.152v14.937c0,0.109-0.027,0.247-0.027,0.466c0,1.042,0.274,2.192,0.794,3.454
	c0.521,1.288,1.371,2.384,2.521,3.315c1.151,0.932,2.631,1.398,4.44,1.398h0.384c1.891-0.083,3.426-0.521,4.659-1.316
	c1.233-0.794,2.11-1.809,2.658-3.015c0.548-1.206,0.822-2.466,0.822-3.81c0-0.11,0-0.192,0-0.247c0-0.055,0-0.137,0-0.219
	c0-1.699-0.383-3.151-1.151-4.33c-0.768-1.206-1.727-2.11-2.878-2.686c-1.151-0.575-2.247-0.876-3.344-0.876
	c-0.685,0-1.261,0.027-1.781,0.082v2.959c0.493-0.109,1.014-0.165,1.508-0.165c0.767,0,1.507,0.219,2.247,0.63
	c0.74,0.412,1.343,1.042,1.782,1.836c0.466,0.795,0.685,1.727,0.685,2.768c0,0.247,0,0.411-0.027,0.521
	c-0.384,3.316-2.22,4.988-5.509,4.988c-1.096,0-1.973-0.302-2.686-0.904c-0.712-0.603-1.206-1.425-1.535-2.467
	c-0.329-1.042-0.494-2.193-0.494-3.453V5.33H27.137z"/>
<rect id="LTR-i" x="17.489" y="12.401" class="base_colour #333333" width="2.878" height="16.005"/>
<circle id="tib-dot" class="base_colour #333333" cx="32.238" cy="20.16" r="2.786"/>
<text class="tib_counter COUNTER colour_two" transform="matrix(1 0 0 1 36.6631 57.75)" fill="#8CC63F" font-family="'Systopie'" font-size="18">123</text>
<g id="BED">
	<path class="base_colour" fill="#333333" d="M58.416,17.224c-0.415-0.971-0.998-1.807-1.751-2.505c-0.753-0.699-1.629-1.233-2.627-1.602
		c-0.998-0.368-2.064-0.552-3.199-0.552c-0.359,0-0.709,0.022-1.051,0.067v2.812c0.385-0.067,0.8-0.104,1.253-0.104
		c0.823,0,1.615,0.191,2.377,0.577c0.76,0.385,1.391,0.985,1.892,1.799c0.5,0.815,0.774,1.83,0.823,3.047
		c0,0.859-0.192,1.721-0.577,2.582c-0.384,0.86-0.97,1.57-1.759,2.13c-0.788,0.559-1.751,0.84-2.892,0.84
		c-1.027,0-1.933-0.261-2.714-0.784c-0.784-0.523-1.386-1.226-1.808-2.109c-0.422-0.887-0.634-1.861-0.634-2.926V5.592h-2.904
		v15.234c0,1.463,0.343,2.824,1.028,4.079c0.687,1.256,1.644,2.262,2.873,3.018c1.229,0.755,2.616,1.144,4.16,1.166
		c1.673,0,3.125-0.401,4.357-1.203c1.231-0.801,2.169-1.866,2.812-3.195c0.643-1.329,0.964-2.749,0.964-4.26
		C59.037,19.263,58.831,18.194,58.416,17.224z"/>
	<path class="base_colour" fill="#333333" d="M64.847,21.189l7.899-4.364c-0.441-0.453-0.907-0.813-1.396-1.083c-0.489-0.269-1.255-0.403-2.3-0.403
		c-1.027,0-1.927,0.256-2.698,0.767c-0.772,0.511-1.365,1.206-1.775,2.082c-0.413,0.876-0.618,1.845-0.618,2.905
		c0.044,0.882,0.272,1.726,0.686,2.529c0.415,0.806,1.009,1.454,1.783,1.951c0.775,0.495,1.691,0.742,2.751,0.742
		c1.608-0.032,2.81-0.462,3.603-1.289c0.793-0.824,1.355-2.061,1.683-3.707l2.913,0.404c-0.017,0.768-0.204,1.575-0.562,2.42
		c-0.357,0.845-0.893,1.65-1.605,2.416c-0.712,0.767-1.595,1.386-2.646,1.86c-1.053,0.474-2.248,0.717-3.588,0.735
		c-1.398,0-2.72-0.361-3.965-1.083c-1.245-0.72-2.239-1.692-2.981-2.919c-0.743-1.227-1.114-2.546-1.114-3.963
		c0-1.437,0.244-2.704,0.73-3.804c0.487-1.101,1.134-2.007,1.941-2.72c0.807-0.713,1.688-1.241,2.643-1.585
		c0.955-0.344,1.896-0.516,2.82-0.516c1.813,0,3.337,0.41,4.571,1.23c1.235,0.822,2.299,2.086,3.192,3.796l-10.708,5.948
		L64.847,21.189z"/>
	<path class="base_colour" fill="#333333" d="M92.515,5.657h2.905v15.5c0,1.005-0.281,2.135-0.843,3.385c-0.562,1.251-1.463,2.333-2.703,3.244
		c-1.24,0.912-2.791,1.369-4.652,1.369c-1.399-0.032-2.609-0.311-3.631-0.832s-1.846-1.19-2.474-2.006
		c-0.626-0.814-1.09-1.664-1.391-2.545c-0.301-0.881-0.479-1.742-0.533-2.582c0-1.416,0.228-2.661,0.682-3.739
		c0.455-1.08,1.042-1.969,1.765-2.667c0.721-0.699,1.502-1.229,2.344-1.591c0.842-0.359,1.659-0.548,2.451-0.563
		c2.186,0,3.828,0.362,4.926,1.089v3.107c-1.399-0.948-2.955-1.421-4.667-1.421c-1.314,0.14-2.415,0.681-3.299,1.625
		c-0.886,0.944-1.329,2.188-1.329,3.733c0,0.305,0.011,0.537,0.032,0.692c0.103,1.207,0.447,2.177,1.034,2.913
		c0.586,0.737,1.267,1.256,2.042,1.559c0.775,0.301,1.513,0.453,2.213,0.453c1.082-0.023,2.008-0.309,2.778-0.86
		c0.77-0.552,1.354-1.31,1.752-2.275c0.398-0.967,0.598-2.059,0.598-3.281V5.657z"/>
</g>
</g>
	<style>


		.base_colour {
			fill: red;
		}

		.tint {
			fill:#000;
			opacity:0.1;
		}
	</style>
</svg>