<?xml version="1.0" encoding="utf-8"?>
<!-- Generator: Adobe Illustrator 16.0.0, SVG Export Plug-In . SVG Version: 6.00 Build 0)  -->
<!DOCTYPE svg PUBLIC "-//W3C//DTD SVG 1.1//EN" "http://www.w3.org/Graphics/SVG/1.1/DTD/svg11.dtd">
<svg version="1.1" id="Layer_1" xmlns="http://www.w3.org/2000/svg" xmlns:xlink="http://www.w3.org/1999/xlink" x="0px" y="0px"
	 width="60px" height="40.375px" viewBox="0 0 72.053 63.049" enable-background="new 0 0 72.053 63.049" xml:space="preserve" >
	 <g class="tib">
<filter  id="AI_Shadow_1" filterUnits="objectBoundingBox">
	<feGaussianBlur  in="SourceAlpha" stdDeviation="1" result="blur"></feGaussianBlur>
	<feOffset  dx="1" dy="1" in="blur" result="offsetBlurredAlpha"></feOffset>
	<feMerge>
		<feMergeNode  in="offsetBlurredAlpha"></feMergeNode>
		<feMergeNode  in="SourceGraphic"></feMergeNode>
	</feMerge>
</filter>
<g class="BUTTONBACK" filter="url(#AI_Shadow_1)">
	<polygon class="base_colour" points="18.256,59.556 1.381,30.307 18.256,1.057 52.006,1.057 68.881,30.307 52.006,59.556 	"/>
</g>
<path id="LTR-t" fill="#FFFFFF" d="M20.271,34.51V18.137h2.896v6.499h5.542v2.646h-5.542v7.48c0,0.429,0.025,0.757,0.101,1.009
	c0.076,0.252,0.228,0.479,0.504,0.654c0.277,0.176,0.706,0.252,1.311,0.252h3.375v2.646h-3.603c-0.101,0-0.252,0.026-0.429,0.026
	c-1.411,0-2.443-0.479-3.123-1.412C20.599,36.979,20.271,35.845,20.271,34.51"/>
<path id="LTR-b" fill="#FFFFFF" d="M41.002,18.137h-2.897v13.729c0,0.101-0.023,0.226-0.023,0.428c0,0.958,0.252,2.016,0.729,3.174
	c0.479,1.184,1.259,2.191,2.317,3.049c1.059,0.855,2.418,1.283,4.081,1.283h0.353c1.737-0.074,3.148-0.478,4.282-1.209
	c1.134-0.73,1.94-1.663,2.443-2.771c0.504-1.106,0.756-2.267,0.756-3.5c0-0.102,0-0.176,0-0.228c0-0.05,0-0.126,0-0.202
	c0-1.562-0.353-2.896-1.059-3.979c-0.706-1.108-1.586-1.939-2.645-2.469c-1.059-0.529-2.065-0.806-3.073-0.806
	c-0.629,0-1.158,0.025-1.637,0.075v2.72c0.453-0.101,0.932-0.151,1.385-0.151c0.706,0,1.386,0.202,2.065,0.58
	c0.681,0.378,1.233,0.957,1.638,1.688c0.429,0.73,0.629,1.587,0.629,2.544c0,0.228,0,0.377-0.025,0.479
	c-0.353,3.048-2.041,4.584-5.062,4.584c-1.008,0-1.813-0.277-2.469-0.831c-0.656-0.554-1.108-1.31-1.41-2.267
	c-0.303-0.957-0.454-2.017-0.454-3.175V18.137H41.002z"/>
<rect id="LTR-i" x="32.136" y="24.635" fill="#FFFFFF" width="2.645" height="14.711"/>
<circle id="tib-dot" fill="#FFFFFF" cx="45.562" cy="31.991" r="2.561"/>
</g>
<g class="tibbed">
<filter  filterUnits="objectBoundingBox" id="AI_Shadow_1">
	<feGaussianBlur  in="SourceAlpha" stdDeviation="1" result="blur"></feGaussianBlur>
	<feOffset  dy="1" dx="1" in="blur" result="offsetBlurredAlpha"></feOffset>
	<feMerge>
		<feMergeNode  in="offsetBlurredAlpha"></feMergeNode>
		<feMergeNode  in="SourceGraphic"></feMergeNode>
	</feMerge>
</filter>
<g class="BUTTONBACK" filter="url(#AI_Shadow_1)">
	<polygon class="base_colour" points="18.256,59.556 1.381,30.307 18.256,1.057 52.006,1.057 68.881,30.307 52.006,59.556 	"/>
</g>
<path id="LTR-t" fill="#FFFFFF" d="M9.849,32.426V22.51h1.754v3.937h3.356v1.602h-3.356v4.531c0,0.259,0.015,0.457,0.061,0.609
	s0.138,0.291,0.305,0.397s0.427,0.151,0.793,0.151h2.044v1.603h-2.181c-0.061,0-0.153,0.015-0.26,0.015
	c-0.854,0-1.479-0.289-1.892-0.854C10.047,33.921,9.849,33.234,9.849,32.426"/>
<path id="LTR-b" fill="#FFFFFF" d="M22.405,22.51H20.65v8.314c0,0.061-0.015,0.137-0.015,0.259c0,0.58,0.153,1.221,0.442,1.923
	c0.29,0.717,0.763,1.327,1.404,1.845c0.641,0.52,1.464,0.779,2.471,0.779h0.214c1.052-0.046,1.907-0.29,2.593-0.732
	s1.175-1.007,1.479-1.678c0.306-0.672,0.458-1.374,0.458-2.121c0-0.062,0-0.107,0-0.138s0-0.076,0-0.122
	c0-0.945-0.213-1.754-0.641-2.41c-0.427-0.671-0.961-1.175-1.602-1.494c-0.641-0.321-1.251-0.488-1.861-0.488
	c-0.381,0-0.702,0.015-0.992,0.045v1.647c0.275-0.061,0.565-0.091,0.839-0.091c0.427,0,0.839,0.121,1.25,0.351
	c0.412,0.229,0.748,0.579,0.992,1.022c0.259,0.442,0.381,0.961,0.381,1.54c0,0.138,0,0.229-0.015,0.29
	c-0.214,1.847-1.236,2.777-3.066,2.777c-0.61,0-1.099-0.169-1.495-0.504c-0.396-0.336-0.671-0.793-0.854-1.373
	s-0.274-1.221-0.274-1.922v-7.72H22.405z"/>
<rect id="LTR-i" x="17.034" y="26.446" fill="#FFFFFF" width="1.602" height="8.908"/>
<circle id="tib-dot" fill="#FFFFFF" cx="25.244" cy="30.765" r="1.551"/>
<g id="BED">
	<path fill="#FFFFFF" d="M39.816,29.13c-0.23-0.54-0.555-1.006-0.975-1.395s-0.906-0.686-1.462-0.892
		c-0.556-0.205-1.149-0.308-1.781-0.308c-0.2,0-0.395,0.014-0.585,0.038v1.565c0.214-0.037,0.446-0.059,0.698-0.059
		c0.458,0,0.899,0.106,1.323,0.321c0.423,0.214,0.774,0.549,1.054,1.002c0.277,0.453,0.431,1.019,0.457,1.696
		c0,0.479-0.106,0.957-0.32,1.438c-0.215,0.478-0.541,0.873-0.98,1.185c-0.438,0.312-0.974,0.468-1.609,0.468
		c-0.572,0-1.076-0.146-1.511-0.437c-0.437-0.291-0.771-0.682-1.006-1.174c-0.235-0.493-0.353-1.036-0.353-1.629v-8.295h-1.617
		v8.479c0,0.814,0.191,1.571,0.573,2.271s0.915,1.259,1.599,1.68s1.457,0.637,2.315,0.649c0.932,0,1.74-0.224,2.426-0.67
		s1.207-1.038,1.564-1.779c0.358-0.738,0.537-1.529,0.537-2.371C40.161,30.266,40.046,29.671,39.816,29.13z"/>
	<path fill="#FFFFFF" d="M43.396,31.337l4.397-2.429c-0.245-0.252-0.506-0.452-0.777-0.603c-0.272-0.149-0.699-0.225-1.28-0.225
		c-0.572,0-1.072,0.143-1.502,0.428c-0.431,0.283-0.76,0.67-0.988,1.158c-0.229,0.487-0.344,1.026-0.344,1.617
		c0.024,0.49,0.151,0.96,0.382,1.407c0.23,0.448,0.562,0.81,0.993,1.085c0.431,0.276,0.941,0.414,1.531,0.414
		c0.895-0.018,1.563-0.258,2.005-0.717s0.755-1.147,0.937-2.064l1.621,0.225c-0.009,0.428-0.112,0.878-0.312,1.348
		c-0.198,0.471-0.496,0.919-0.893,1.345c-0.396,0.427-0.889,0.771-1.473,1.036c-0.586,0.264-1.252,0.398-1.998,0.408
		c-0.778,0-1.514-0.2-2.207-0.602s-1.246-0.942-1.659-1.626c-0.413-0.683-0.62-1.417-0.62-2.206c0-0.799,0.136-1.504,0.406-2.116
		c0.271-0.613,0.631-1.118,1.08-1.515s0.939-0.691,1.471-0.883s1.056-0.287,1.57-0.287c1.009,0,1.857,0.229,2.544,0.686
		c0.688,0.457,1.28,1.16,1.777,2.113l-5.961,3.311L43.396,31.337z"/>
	<path fill="#FFFFFF" d="M58.796,22.692h1.617v8.627c0,0.56-0.156,1.188-0.469,1.885s-0.814,1.298-1.504,1.805
		c-0.691,0.508-1.555,0.762-2.59,0.762c-0.779-0.018-1.453-0.173-2.021-0.462c-0.568-0.29-1.027-0.663-1.377-1.117
		c-0.349-0.452-0.607-0.926-0.774-1.417c-0.168-0.49-0.267-0.97-0.297-1.438c0-0.787,0.127-1.48,0.38-2.08
		c0.253-0.602,0.58-1.097,0.982-1.485c0.4-0.389,0.836-0.685,1.305-0.886c0.469-0.199,0.924-0.305,1.364-0.313
		c1.216,0,2.131,0.202,2.741,0.606v1.729c-0.777-0.527-1.645-0.791-2.597-0.791c-0.731,0.078-1.345,0.379-1.837,0.905
		c-0.493,0.525-0.74,1.218-0.74,2.078c0,0.169,0.007,0.299,0.019,0.385c0.057,0.672,0.249,1.212,0.575,1.622
		c0.326,0.409,0.705,0.699,1.138,0.867c0.431,0.168,0.841,0.252,1.231,0.252c0.602-0.013,1.117-0.172,1.546-0.479
		c0.429-0.307,0.754-0.729,0.976-1.266c0.222-0.539,0.332-1.146,0.332-1.827V22.692z"/>
</g>
<circle id="tib-dot_1_" fill="#FFFFFF" cx="35.654" cy="30.765" r="1.551"/>
</g>
<style>

.base_colour{
	fill: blue;
}
	</style>
</svg>
