<?xml version="1.0" encoding="utf-8"?>
<!-- Generator: Adobe Illustrator 16.0.0, SVG Export Plug-In . SVG Version: 6.00 Build 0)  -->
<!DOCTYPE svg PUBLIC "-//W3C//DTD SVG 1.1//EN" "http://www.w3.org/Graphics/SVG/1.1/DTD/svg11.dtd">
<svg version="1.1" id="Layer_1" xmlns="http://www.w3.org/2000/svg" xmlns:xlink="http://www.w3.org/1999/xlink" x="0px" y="0px"
	 width="112.764px" height="40.375px" viewBox="0 0 112.764 40.375" enable-background="new 0 0 112.764 40.375"
	 xml:space="preserve">
	 <g class="tib">
<filter  id="AI_Shadow_1" filterUnits="objectBoundingBox">
	<feGaussianBlur  in="SourceAlpha" stdDeviation="1" result="blur"></feGaussianBlur>
	<feOffset  dx="1" dy="1" in="blur" result="offsetBlurredAlpha"></feOffset>
	<feMerge>
		<feMergeNode  in="offsetBlurredAlpha"></feMergeNode>
		<feMergeNode  in="SourceGraphic"></feMergeNode>
	</feMerge>
</filter>
<g id="BUTTONBACK" filter="url(#AI_Shadow_1)">
	<path class="base_colour" d="M106,31c0,2.761-2.237,5-5,5H6c-2.762,0-5-2.239-5-5V6c0-2.761,2.238-5,5-5h95c2.763,0,5,2.239,5,5V31z"/>
</g>
<path id="LTR-t" fill="#FFFFFF" d="M33.762,26.046V3.75h3.943v8.85h7.547v3.602h-7.547v10.188c0,0.582,0.034,1.028,0.138,1.371
	c0.104,0.344,0.31,0.651,0.687,0.893c0.378,0.24,0.96,0.343,1.784,0.343h4.597V32.6h-4.906c-0.137,0-0.343,0.033-0.583,0.033
	c-1.921,0-3.326-0.65-4.253-1.921C34.207,29.408,33.762,27.864,33.762,26.046"/>
<path id="LTR-b" fill="#FFFFFF" d="M61.992,3.75h-3.944v18.695c0,0.137-0.034,0.308-0.034,0.582c0,1.305,0.344,2.746,0.994,4.324
	c0.652,1.611,1.716,2.983,3.156,4.149c1.44,1.167,3.293,1.75,5.558,1.75h0.479c2.367-0.103,4.288-0.651,5.831-1.647
	c1.544-0.994,2.642-2.264,3.328-3.772c0.686-1.509,1.028-3.087,1.028-4.769c0-0.137,0-0.239,0-0.309c0-0.068,0-0.171,0-0.273
	c0-2.127-0.48-3.945-1.44-5.42c-0.96-1.509-2.161-2.642-3.602-3.362c-1.441-0.72-2.813-1.098-4.187-1.098
	c-0.856,0-1.577,0.034-2.229,0.103v3.705c0.617-0.137,1.27-0.206,1.887-0.206c0.961,0,1.887,0.274,2.812,0.789
	c0.928,0.515,1.683,1.304,2.23,2.298c0.583,0.995,0.857,2.161,0.857,3.464c0,0.31,0,0.515-0.034,0.652
	c-0.48,4.149-2.779,6.243-6.896,6.243c-1.372,0-2.469-0.379-3.36-1.133c-0.893-0.754-1.51-1.783-1.922-3.087
	c-0.41-1.303-0.616-2.743-0.616-4.321V3.75H61.992z"/>
<rect id="LTR-i" x="49.918" y="12.6" fill="#FFFFFF" width="3.603" height="20.033"/>
<circle id="tib-dot" fill="#FFFFFF" cx="68.201" cy="23.245" r="3.487"/>
</g>
<g class="tibbed">
	<filter  filterUnits="objectBoundingBox" id="AI_Shadow_1">
	<feGaussianBlur  in="SourceAlpha" stdDeviation="1" result="blur"></feGaussianBlur>
	<feOffset  dy="1" dx="1" in="blur" result="offsetBlurredAlpha"></feOffset>
	<feMerge>
		<feMergeNode  in="offsetBlurredAlpha"></feMergeNode>
		<feMergeNode  in="SourceGraphic"></feMergeNode>
	</feMerge>
</filter>
<g id="BUTTONBACK" filter="url(#AI_Shadow_1)">
	<path class="base_colour" d="M106,31c0,2.761-2.237,5-5,5H6c-2.762,0-5-2.239-5-5V6c0-2.761,2.238-5,5-5h95c2.763,0,5,2.239,5,5V31z"/>
</g>
<path id="LTR-t" fill="#FFFFFF" d="M7.175,24.246V6.431h3.152v7.071h6.029v2.877h-6.029v8.14c0,0.467,0.027,0.822,0.109,1.096
	c0.083,0.275,0.247,0.521,0.548,0.713s0.767,0.273,1.425,0.273h3.672v2.879h-3.918c-0.11,0-0.274,0.027-0.466,0.027
	c-1.535,0-2.658-0.521-3.398-1.535C7.531,26.932,7.175,25.699,7.175,24.246"/>
<path id="LTR-b" fill="#FFFFFF" d="M29.73,6.431h-3.152v14.936c0,0.109-0.027,0.248-0.027,0.467c0,1.041,0.274,2.191,0.794,3.453
	c0.521,1.287,1.371,2.385,2.521,3.316s2.631,1.398,4.44,1.398h0.384c1.891-0.084,3.426-0.521,4.659-1.316
	c1.233-0.795,2.11-1.809,2.658-3.016c0.548-1.205,0.822-2.465,0.822-3.809c0-0.109,0-0.191,0-0.246c0-0.057,0-0.139,0-0.221
	c0-1.699-0.383-3.151-1.151-4.33c-0.768-1.206-1.727-2.11-2.878-2.686c-1.151-0.575-2.247-0.876-3.344-0.876
	c-0.685,0-1.261,0.027-1.781,0.082v2.959c0.493-0.109,1.014-0.165,1.508-0.165c0.767,0,1.507,0.219,2.247,0.63
	c0.74,0.412,1.343,1.042,1.782,1.836c0.466,0.795,0.685,1.727,0.685,2.769c0,0.246,0,0.41-0.027,0.52
	c-0.384,3.316-2.22,4.988-5.509,4.988c-1.096,0-1.973-0.301-2.686-0.904s-1.206-1.426-1.535-2.467
	c-0.329-1.041-0.494-2.193-0.494-3.454V6.431H29.73z"/>
<rect id="LTR-i" x="20.083" y="13.502" fill="#FFFFFF" width="2.878" height="16.005"/>
<circle id="tib-dot" fill="#FFFFFF" cx="34.832" cy="21.262" r="2.786"/>
<g id="BED">
	<path fill="#FFFFFF" d="M61.01,18.325c-0.415-0.971-0.997-1.807-1.751-2.505c-0.754-0.699-1.629-1.233-2.627-1.602
		c-0.998-0.368-2.064-0.552-3.199-0.552c-0.359,0-0.709,0.022-1.051,0.067v2.812c0.385-0.067,0.801-0.104,1.253-0.104
		c0.823,0,1.615,0.191,2.377,0.577c0.761,0.385,1.392,0.984,1.892,1.799c0.5,0.816,0.774,1.83,0.822,3.047
		c0,0.859-0.191,1.721-0.576,2.582c-0.385,0.859-0.971,1.57-1.76,2.131c-0.787,0.559-1.752,0.84-2.893,0.84
		c-1.027,0-1.932-0.262-2.714-0.785c-0.784-0.521-1.386-1.225-1.808-2.109c-0.422-0.887-0.635-1.859-0.635-2.926V6.693h-2.904
		v15.234c0,1.463,0.343,2.824,1.028,4.078c0.687,1.256,1.643,2.264,2.873,3.02c1.229,0.754,2.616,1.143,4.159,1.164
		c1.674,0,3.126-0.4,4.357-1.201c1.232-0.801,2.17-1.867,2.812-3.195c0.643-1.33,0.964-2.75,0.964-4.26
		C61.631,20.364,61.425,19.295,61.01,18.325z"/>
	<path fill="#FFFFFF" d="M67.44,22.291l7.9-4.365c-0.441-0.453-0.908-0.813-1.396-1.083c-0.49-0.269-1.256-0.403-2.301-0.403
		c-1.027,0-1.926,0.256-2.697,0.767c-0.773,0.511-1.365,1.206-1.775,2.082c-0.412,0.876-0.618,1.844-0.618,2.905
		c0.044,0.883,0.272,1.727,0.687,2.529c0.414,0.805,1.008,1.453,1.783,1.951c0.774,0.494,1.691,0.742,2.751,0.742
		c1.608-0.033,2.81-0.463,3.603-1.289c0.793-0.824,1.355-2.061,1.683-3.707l2.913,0.404c-0.017,0.768-0.203,1.574-0.562,2.42
		c-0.357,0.846-0.893,1.65-1.605,2.416c-0.712,0.768-1.595,1.387-2.646,1.859c-1.053,0.475-2.248,0.717-3.588,0.736
		c-1.398,0-2.721-0.361-3.965-1.084c-1.246-0.719-2.239-1.691-2.981-2.918c-0.743-1.227-1.114-2.547-1.114-3.963
		c0-1.438,0.244-2.705,0.73-3.805c0.486-1.1,1.134-2.006,1.94-2.72c0.808-0.713,1.688-1.241,2.643-1.585
		c0.954-0.344,1.896-0.516,2.819-0.516c1.813,0,3.338,0.41,4.571,1.23c1.235,0.822,2.299,2.086,3.192,3.796l-10.708,5.948
		L67.44,22.291z"/>
	<path fill="#FFFFFF" d="M95.108,6.758h2.904v15.5c0,1.006-0.281,2.135-0.843,3.385c-0.562,1.252-1.463,2.332-2.702,3.244
		c-1.24,0.912-2.791,1.369-4.652,1.369c-1.398-0.033-2.609-0.312-3.631-0.832c-1.021-0.521-1.846-1.191-2.475-2.006
		c-0.625-0.814-1.09-1.664-1.391-2.545c-0.301-0.883-0.479-1.742-0.533-2.582c0-1.416,0.229-2.662,0.683-3.741
		c0.455-1.079,1.042-1.969,1.765-2.667c0.721-0.699,1.502-1.229,2.344-1.591c0.843-0.359,1.66-0.548,2.451-0.563
		c2.186,0,3.828,0.362,4.926,1.089v3.107c-1.398-0.948-2.955-1.421-4.666-1.421c-1.314,0.14-2.415,0.681-3.3,1.625
		c-0.886,0.944-1.329,2.188-1.329,3.733c0,0.305,0.012,0.537,0.032,0.693c0.103,1.205,0.447,2.176,1.034,2.912
		c0.586,0.738,1.267,1.256,2.043,1.559c0.774,0.301,1.512,0.453,2.213,0.453c1.081-0.023,2.008-0.309,2.777-0.861
		c0.77-0.551,1.354-1.309,1.752-2.275s0.598-2.059,0.598-3.279V6.758z"/>
</g>
</g>
<style>

	.base_colour{
		fill: green;
	}
	</style>
</svg>
