<?xml version="1.0" encoding="utf-8"?>
<!-- Generator: Adobe Illustrator 16.0.0, SVG Export Plug-In . SVG Version: 6.00 Build 0)  -->
<!DOCTYPE svg PUBLIC "-//W3C//DTD SVG 1.1//EN" "http://www.w3.org/Graphics/SVG/1.1/DTD/svg11.dtd">
<svg version="1.1" id="Layer_1" xmlns="http://www.w3.org/2000/svg" xmlns:xlink="http://www.w3.org/1999/xlink" x="0px" y="0px"
	 width="100px" height="40.375px" viewBox="0 0 200 100" enable-background="new 0 0 200 100" xml:space="preserve">
<g class="tib">
<path class="base_colour" fill="#90B540" d="M50,90h100c22.092,0,40-17.908,40-40H10C10,72.092,27.909,90,50,90z"/>
<path class="tint" fill="#000" opacity="0.1" d="M50,90h100c22.092,0,40-17.908,40-40H10C10,72.092,27.909,90,50,90z"/>
<path class="base_colour" fill="#8CC63F" d="M150,10H50c-22.091,0-40,17.908-40,40h180C190,27.908,172.092,10,150,10z"/>
<g>
	<path id="LTR-t" fill="#FFFFFF" d="M58.706,65.11V20.465h7.897v17.722h15.111v7.21H66.604v20.399c0,1.17,0.069,2.062,0.275,2.749
		c0.208,0.687,0.621,1.304,1.375,1.784c0.754,0.481,1.924,0.688,3.571,0.688h9.205v7.212h-9.822c-0.276,0-0.688,0.068-1.167,0.068
		c-3.847,0-6.662-1.305-8.517-3.848C59.599,71.841,58.706,68.752,58.706,65.11"/>
	<path id="LTR-b" fill="#FFFFFF" d="M115.234,20.465h-7.901v37.434c0,0.274-0.068,0.619-0.068,1.167
		c0,2.611,0.688,5.495,1.992,8.654c1.308,3.229,3.437,5.977,6.32,8.312c2.883,2.334,6.593,3.505,11.126,3.505h0.964
		c4.738-0.208,8.586-1.308,11.674-3.299c3.091-1.992,5.292-4.533,6.662-7.557c1.376-3.021,2.061-6.179,2.061-9.547
		c0-0.273,0-0.479,0-0.616c0-0.14,0-0.345,0-0.551c0-4.26-0.959-7.898-2.883-10.853c-1.924-3.022-4.327-5.288-7.213-6.732
		c-2.885-1.44-5.631-2.195-8.38-2.195c-1.715,0-3.159,0.067-4.464,0.206v7.418c1.235-0.274,2.543-0.414,3.778-0.414
		c1.922,0,3.776,0.55,5.633,1.579c1.854,1.033,3.364,2.611,4.464,4.604c1.167,1.992,1.718,4.326,1.718,6.938
		c0,0.616,0,1.027-0.069,1.304c-0.965,8.31-5.564,12.5-13.809,12.5c-2.745,0-4.943-0.754-6.729-2.268
		c-1.784-1.509-3.021-3.569-3.845-6.182c-0.825-2.608-1.236-5.494-1.236-8.654V20.465H115.234z"/>
	<rect id="LTR-i" x="91.056" y="38.187" fill="#FFFFFF" width="7.212" height="40.11"/>
</g>
</g>

<g class="tibbed">
	<path class="BTTM base_colour" fill="#90B540" d="M50,90h100c22.092,0,40-17.908,40-40H10C10,72.092,27.909,90,50,90z"/>
	<path class="BTTM tint" fill="#000" opacity="0.1" d="M50,90h100c22.092,0,40-17.908,40-40H10C10,72.092,27.909,90,50,90z"/>
	<path class="TOP base_colour" fill="#8CC63F" d="M150,10H50c-22.091,0-40,17.908-40,40h180C190,27.908,172.092,10,150,10z"/>
<g>
	<path id="LTR-t" fill="#FFFFFF" d="M30.846,57.279V30.284h4.776v10.712h9.137v4.363h-9.137v12.336c0,0.705,0.04,1.242,0.166,1.659
		c0.125,0.417,0.377,0.788,0.828,1.079c0.456,0.291,1.164,0.417,2.164,0.417h5.564v4.362h-5.941c-0.166,0-0.417,0.04-0.702,0.04
		c-2.33,0-4.032-0.788-5.154-2.324C31.386,61.348,30.846,59.48,30.846,57.279"/>
	<path id="LTR-b" fill="#FFFFFF" d="M65.027,30.284H60.25v22.635c0,0.166-0.043,0.371-0.043,0.702c0,1.582,0.414,3.323,1.205,5.236
		c0.791,1.95,2.078,3.612,3.823,5.025c1.741,1.41,3.985,2.118,6.727,2.118h0.582c2.863-0.126,5.19-0.788,7.058-1.993
		c1.867-1.204,3.197-2.74,4.028-4.567c0.831-1.83,1.248-3.74,1.248-5.773c0-0.165,0-0.291,0-0.377c0-0.08,0-0.205,0-0.331
		c0-2.575-0.583-4.773-1.742-6.561c-1.167-1.827-2.62-3.198-4.362-4.071c-1.747-0.871-3.409-1.331-5.067-1.331
		c-1.042,0-1.91,0.046-2.701,0.126v4.488c0.751-0.166,1.539-0.251,2.287-0.251c1.159,0,2.281,0.331,3.403,0.953
		c1.122,0.628,2.038,1.582,2.7,2.784c0.703,1.204,1.037,2.617,1.037,4.193c0,0.377,0,0.626-0.04,0.788
		c-0.58,5.025-3.366,7.561-8.349,7.561c-1.664,0-2.989-0.457-4.071-1.371c-1.079-0.913-1.824-2.158-2.324-3.736
		c-0.496-1.576-0.75-3.321-0.75-5.233V30.284H65.027z"/>
	<rect id="LTR-i" x="50.406" y="40.996" fill="#FFFFFF" width="4.363" height="24.257"/>
	<path id="tib-dot" fill="#FFFFFF" d="M76.764,53.125c0,2.332-1.89,4.226-4.22,4.226c-2.336,0-4.223-1.894-4.223-4.226
		c0-2.33,1.887-4.22,4.223-4.22C74.875,48.905,76.764,50.795,76.764,53.125z"/>
	<path fill="#FFFFFF" d="M111.855,47.963c-0.643-1.508-1.545-2.801-2.709-3.883c-1.168-1.079-2.523-1.907-4.068-2.479
		s-3.195-0.856-4.953-0.856c-0.555,0-1.1,0.034-1.629,0.103v4.357c0.594-0.104,1.24-0.16,1.941-0.16
		c1.273,0,2.502,0.294,3.678,0.891c1.18,0.594,2.156,1.524,2.93,2.787c0.777,1.262,1.199,2.832,1.275,4.716
		c0,1.334-0.297,2.667-0.893,4c-0.598,1.331-1.502,2.43-2.725,3.298c-1.221,0.865-2.711,1.302-4.479,1.302
		c-1.59,0-2.993-0.405-4.204-1.216c-1.213-0.806-2.144-1.896-2.801-3.267c-0.65-1.37-0.981-2.881-0.981-4.528V29.95h-4.494v23.589
		c0,2.264,0.531,4.371,1.59,6.315c1.065,1.946,2.544,3.503,4.448,4.673c1.904,1.171,4.052,1.771,6.442,1.805
		c2.59,0,4.84-0.622,6.746-1.861s3.357-2.89,4.357-4.948c0.992-2.058,1.49-4.257,1.49-6.595
		C112.818,51.12,112.498,49.465,111.855,47.963z"/>
	<path fill="#FFFFFF" d="M121.814,54.102l12.234-6.756c-0.686-0.702-1.406-1.262-2.164-1.679s-1.945-0.622-3.561-0.622
		c-1.592,0-2.984,0.394-4.18,1.185c-1.197,0.791-2.111,1.867-2.748,3.224c-0.639,1.356-0.955,2.855-0.955,4.5
		c0.068,1.364,0.42,2.672,1.061,3.914c0.641,1.247,1.561,2.252,2.76,3.018c1.201,0.766,2.621,1.153,4.262,1.153
		c2.492-0.052,4.348-0.72,5.578-1.998c1.23-1.273,2.1-3.192,2.605-5.739l4.514,0.625c-0.029,1.191-0.318,2.438-0.875,3.749
		c-0.551,1.308-1.381,2.553-2.482,3.74c-1.104,1.188-2.471,2.147-4.098,2.881c-1.631,0.733-3.48,1.11-5.553,1.139
		c-2.168,0-4.215-0.56-6.145-1.679c-1.928-1.113-3.467-2.62-4.613-4.522c-1.15-1.896-1.725-3.939-1.725-6.132
		c0-2.228,0.377-4.186,1.131-5.891c0.754-1.704,1.756-3.109,3.002-4.211c1.252-1.104,2.615-1.925,4.096-2.455
		c1.475-0.531,2.932-0.8,4.365-0.8c2.807,0,5.164,0.634,7.076,1.907c1.914,1.268,3.561,3.227,4.943,5.876l-16.58,9.21
		L121.814,54.102z"/>
	<path fill="#FFFFFF" d="M164.656,30.05h4.498v24c0,1.559-0.434,3.306-1.309,5.242c-0.867,1.936-2.26,3.611-4.182,5.021
		c-1.922,1.413-4.32,2.121-7.203,2.121c-2.168-0.051-4.041-0.485-5.623-1.29c-1.584-0.805-2.857-1.842-3.83-3.106
		c-0.969-1.259-1.688-2.575-2.156-3.939c-0.465-1.365-0.742-2.698-0.822-3.997c0-2.193,0.352-4.12,1.057-5.79
		c0.701-1.674,1.613-3.05,2.729-4.132c1.119-1.082,2.33-1.901,3.633-2.464c1.305-0.554,2.568-0.845,3.793-0.868
		c3.385,0,5.932,0.56,7.627,1.685v4.813c-2.164-1.473-4.574-2.204-7.223-2.204c-2.039,0.218-3.74,1.057-5.111,2.519
		s-2.057,3.389-2.057,5.778c0,0.475,0.018,0.834,0.049,1.074c0.158,1.867,0.695,3.371,1.602,4.511
		c0.908,1.142,1.959,1.947,3.164,2.412c1.199,0.466,2.342,0.7,3.426,0.7c1.674-0.035,3.107-0.475,4.301-1.331
		s2.096-2.027,2.711-3.523c0.617-1.498,0.928-3.186,0.928-5.082V30.05z"/>
</g>
</g>
<style>

</style>
</svg>
