<?xml version="1.0" encoding="utf-8"?>
<!-- Generator: Adobe Illustrator 16.0.0, SVG Export Plug-In . SVG Version: 6.00 Build 0)  -->
<!DOCTYPE svg PUBLIC "-//W3C//DTD SVG 1.1//EN" "http://www.w3.org/Graphics/SVG/1.1/DTD/svg11.dtd">
<svg version="1.1" id="Layer_1" xmlns="http://www.w3.org/2000/svg" xmlns:xlink="http://www.w3.org/1999/xlink" x="0px" y="0px"
	 width="90px" height="22px" viewBox="0 0 90 22" style="enable-background:new 0 0 90 22;" xml:space="preserve">
<style type="text/css">
<![CDATA[
	.st0{display:none;opacity:0.4;}
	.st1{display:inline;opacity:0.4;}
	.st2{font-family:'Systopie';}
	.st3{font-size:8px;}
	.st4{display:inline;fill:#FFF200;}
	.st5{display:inline;fill:#FFFFFF;}
	.st6{opacity:0.4;}
	.st7{fill:#FFFFFF;}
	.st8{fill:none;}
	.st9{display:inline;}
	.st10{fill:#00D30A;}
	.st11{fill-rule:evenodd;clip-rule:evenodd;fill:#FFFFFF;}
	.st12{display:none;}
]]>
</style>
<rect id="bd-btn-backdrop" class="st10" width="90" height="22"/>
<g id="bd-btn-hover" class="st0">
	<path class="st9" d="M24,0h-3c0,0,5.844,6.344,10,10.906C27.031,15.281,21,22,21,22h3c0,0,6.031-6.719,10-11.094
		C29.844,6.344,24,0,24,0z"/>
	<path class="st9" d="M18,0h-3c0,0,5.844,6.344,10,10.906C21.031,15.281,15,22,15,22h3c0,0,6.031-6.719,10-11.094
		C23.844,6.344,18,0,18,0z"/>
	<path class="st9" d="M12,0H9c0,0,5.844,6.344,10,10.906C15.031,15.281,9,22,9,22h3c0,0,6.031-6.719,10-11.094
		C17.844,6.344,12,0,12,0z"/>
	<path class="st9" d="M5,0H2c0,0,5.844,6.344,10,10.906C8.031,15.281,2,22,2,22h3c0,0,6.031-6.719,10-11.094C10.844,6.344,5,0,5,0z"
		/>
	<path class="st9" d="M0,1.086v3.264c1.879,2.046,4.111,4.482,6,6.556c-1.828,2.015-4.088,4.521-6,6.645v3.335
		c1.88-2.092,6.021-6.696,9-9.98C5.894,7.497,1.848,3.095,0,1.086z"/>
	<path class="st9" d="M0,7.623v3.284v3.317c1.043-1.156,2.078-2.3,3-3.317C2.058,9.872,1.028,8.746,0,7.623z"/>
	<path class="st9" d="M60,0h-3c0,0,5.844,6.344,10,10.906C63.031,15.281,57,22,57,22h3c0,0,6.031-6.719,10-11.094
		C65.844,6.344,60,0,60,0z"/>
	<path class="st9" d="M54,0h-3c0,0,5.844,6.344,10,10.906C57.031,15.281,51,22,51,22h3c0,0,6.031-6.719,10-11.094
		C59.844,6.344,54,0,54,0z"/>
	<path class="st9" d="M48,0h-3c0,0,5.844,6.344,10,10.906C51.031,15.281,45,22,45,22h3c0,0,6.031-6.719,10-11.094
		C53.844,6.344,48,0,48,0z"/>
	<path class="st9" d="M42,0h-3c0,0,5.844,6.344,10,10.906C45.031,15.281,39,22,39,22h3c0,0,6.031-6.719,10-11.094
		C47.844,6.344,42,0,42,0z"/>
	<path class="st9" d="M36,0h-3c0,0,5.844,6.344,10,10.906C39.031,15.281,33,22,33,22h3c0,0,6.031-6.719,10-11.094
		C41.844,6.344,36,0,36,0z"/>
	<path class="st9" d="M30,0h-3c0,0,5.844,6.344,10,10.906C33.031,15.281,27,22,27,22h3c0,0,6.031-6.719,10-11.094
		C35.844,6.344,30,0,30,0z"/>
</g>
<g id="bd-btn-untibbed">
	<g>
		<path class="st7" d="M33.297,15.108V3.181h2.11v4.734h4.037v1.927h-4.037v5.45c0,0.311,0.019,0.55,0.073,0.733
			s0.166,0.348,0.366,0.477c0.202,0.129,0.515,0.184,0.955,0.184h2.459v1.927h-2.624c-0.073,0-0.185,0.018-0.312,0.018
			c-1.028,0-1.78-0.349-2.276-1.027C33.535,16.906,33.297,16.081,33.297,15.108"/>
		<path class="st7" d="M48.398,3.181h-2.11v10c0,0.073-0.019,0.165-0.019,0.311c0,0.698,0.183,1.469,0.532,2.312
			c0.349,0.862,0.918,1.596,1.688,2.22s1.762,0.937,2.972,0.937h0.258c1.266-0.056,2.294-0.349,3.119-0.881
			c0.825-0.533,1.413-1.211,1.779-2.019c0.367-0.808,0.551-1.651,0.551-2.55c0-0.074,0-0.129,0-0.166c0-0.037,0-0.092,0-0.146
			c0-1.138-0.257-2.11-0.77-2.899c-0.516-0.808-1.158-1.413-1.928-1.798c-0.771-0.385-1.505-0.587-2.238-0.587
			c-0.46,0-0.845,0.019-1.193,0.055v1.982c0.331-0.073,0.68-0.11,1.01-0.11c0.513,0,1.009,0.147,1.505,0.422
			c0.495,0.276,0.899,0.697,1.192,1.229c0.311,0.533,0.458,1.157,0.458,1.854c0,0.166,0,0.275-0.018,0.348
			c-0.257,2.22-1.487,3.34-3.688,3.34c-0.734,0-1.321-0.202-1.799-0.606c-0.477-0.404-0.806-0.955-1.026-1.651
			c-0.22-0.697-0.331-1.468-0.331-2.312V3.181H48.398z"/>
		<rect x="41.939" y="7.915" class="st7" width="1.927" height="10.716"/>
		<circle class="st7" cx="51.72" cy="13.273" r="1.865"/>
	</g>
	<path class="st11" d="M11.549,6.704h3.83v1.639h-3.83v5.679c0,0.938,0.238,1.692,0.714,2.259c0.478,0.569,1.132,0.854,1.968,0.854
		c0.464,0,0.877-0.094,1.246-0.278c0.367-0.187,0.663-0.422,0.89-0.708c0.226-0.284,0.398-0.604,0.512-0.957
		c0.115-0.353,0.173-0.697,0.173-1.025c0-0.507-0.075-0.947-0.227-1.324c-0.147-0.377-0.355-0.691-0.625-0.942
		c-0.268-0.25-0.555-0.431-0.861-0.54c-0.312-0.108-0.632-0.163-0.967-0.163c-0.246,0-0.485,0.027-0.718,0.084V9.754
		c0.272-0.05,0.552-0.075,0.836-0.075c0.559,0,1.093,0.097,1.604,0.287c0.514,0.193,0.969,0.473,1.37,0.844
		c0.398,0.371,0.715,0.818,0.944,1.333c0.229,0.516,0.344,1.095,0.344,1.737c0,0.836-0.175,1.62-0.524,2.354
		c-0.351,0.729-0.872,1.324-1.561,1.777c-0.69,0.455-1.502,0.681-2.437,0.681c-1.415,0-2.499-0.461-3.253-1.384
		c-0.753-0.923-1.131-2.063-1.131-3.427V3.105h1.702V6.704z"/>
	<path class="st11" d="M14.271,12.562c0.905,0,1.639,0.734,1.639,1.638c0,0.905-0.733,1.638-1.639,1.638
		c-0.904,0-1.638-0.733-1.638-1.638C12.634,13.296,13.367,12.562,14.271,12.562"/>
	<rect x="25" y="3" class="st11" width="1" height="16"/>
	<path class="st6" d="M60,0c0,0,5.844,6.344,10,10.906C66.031,15.281,60,22,60,22h30V0H60z"/>
</g>
<g id="bd-btn-testnet" class="st12">
	<rect class="st4" width="23" height="22"/>
	<path class="st9" d="M18.133,20.898H4.866c-0.957,0-1.652-0.547-1.652-1.302c0-0.7,0.298-1.157,0.346-1.226l5.412-9.289V3.06
		C8.479,2.558,8.302,2.227,8.4,1.992C8.434,1.909,8.534,1.77,8.82,1.77c0.022,0,0.042,0.001,0.06,0.002
		C8.95,1.757,9.035,1.75,9.131,1.75c0.156,0,0.304,0.02,0.349,0.026h4.04c0.045-0.006,0.193-0.026,0.35-0.026
		c0.096,0,0.181,0.007,0.251,0.022c0.017-0.001,0.037-0.002,0.06-0.002c0.285,0,0.386,0.14,0.42,0.223
		c0.098,0.235-0.079,0.566-0.572,1.067v6.021l5.411,9.289c0.048,0.069,0.347,0.526,0.347,1.226
		C19.785,20.351,19.09,20.898,18.133,20.898z M8.708,2.127c0.003,0-0.019,0.173,0.552,0.744l0.049,0.049v6.251l-5.471,9.389
		c-0.002,0.004-0.287,0.406-0.287,1.035c0,0.663,0.682,0.965,1.315,0.965h13.267c0.633,0,1.314-0.302,1.314-0.965
		c0-0.636-0.284-1.031-0.287-1.035l-0.01-0.015l-5.461-9.374V2.921l0.049-0.049c0.582-0.581,0.549-0.75,0.548-0.752
		c-0.001,0.003-0.036-0.013-0.108-0.013c-0.024,0-0.042,0.001-0.055,0.003l-0.029,0.004l-0.029-0.008
		c-0.034-0.008-0.095-0.019-0.197-0.019c-0.157,0-0.31,0.024-0.311,0.024l-0.027,0.002L9.441,2.11c-0.002,0-0.154-0.024-0.311-0.024
		c-0.103,0-0.165,0.01-0.197,0.019L8.904,2.113l-0.03-0.004C8.863,2.108,8.843,2.106,8.82,2.106
		C8.748,2.106,8.714,2.122,8.708,2.127L8.708,2.127z"/>
	<path class="st9" d="M8.018,12.693l-3.342,5.542c0,0-0.363,0.677-0.192,1.171c0.172,0.494,0.283,0.807,1.818,0.807
		c1.534,0,11.005,0,11.005,0s1.01,0.031,1.201-0.767c0.192-0.798-0.111-1.182-0.717-2.13c-0.605-0.949-2.605-4.22-2.605-4.22
		s-0.838,0.475-1.635,0.464c-0.798-0.01-2.04,0.192-2.756-0.051C10.078,13.268,8.301,12.359,8.018,12.693z"/>
	<g class="st9">
		<g>
			<circle cx="12.242" cy="11.239" r="1.154"/>
			<path d="M12.242,12.436c-0.66,0-1.196-0.537-1.196-1.197s0.536-1.196,1.196-1.196c0.66,0,1.197,0.537,1.197,1.196
				S12.902,12.436,12.242,12.436z M12.242,10.127c-0.612,0-1.112,0.499-1.112,1.112s0.5,1.112,1.112,1.112
				c0.613,0,1.113-0.499,1.113-1.112S12.855,10.127,12.242,10.127z"/>
		</g>
		<g>
			<path d="M13.022,11.239c0-0.431-0.349-0.78-0.78-0.78"/>
			<path d="M13.022,11.282c-0.024,0-0.042-0.019-0.042-0.042c0-0.406-0.331-0.737-0.738-0.737c-0.023,0-0.042-0.02-0.042-0.043
				c0-0.023,0.019-0.042,0.042-0.042c0.454,0,0.822,0.368,0.822,0.821C13.064,11.263,13.045,11.282,13.022,11.282z"/>
		</g>
	</g>
	<g class="st9">
		<g>
			<circle cx="10.611" cy="12.946" r="0.832"/>
			<path d="M10.611,13.82c-0.482,0-0.875-0.392-0.875-0.875c0-0.481,0.392-0.874,0.875-0.874s0.875,0.392,0.875,0.874
				C11.485,13.428,11.093,13.82,10.611,13.82z M10.611,12.157c-0.436,0-0.79,0.354-0.79,0.789c0,0.436,0.354,0.79,0.79,0.79
				c0.436,0,0.79-0.354,0.79-0.79C11.401,12.511,11.047,12.157,10.611,12.157z"/>
		</g>
		<g>
			<path d="M11.173,12.946c0-0.311-0.251-0.562-0.562-0.562"/>
			<path d="M11.173,12.988c-0.023,0-0.042-0.019-0.042-0.042c0-0.286-0.232-0.52-0.52-0.52c-0.023,0-0.042-0.019-0.042-0.042
				c0-0.023,0.019-0.042,0.042-0.042c0.333,0,0.604,0.271,0.604,0.604C11.215,12.97,11.196,12.988,11.173,12.988z"/>
		</g>
	</g>
	<g class="st9">
		<g>
			<circle cx="11.925" cy="14.354" r="0.785"/>
			<path d="M11.925,15.182c-0.456,0-0.827-0.372-0.827-0.827c0-0.457,0.371-0.827,0.827-0.827c0.457,0,0.828,0.371,0.828,0.827
				C12.753,14.81,12.381,15.182,11.925,15.182z M11.925,13.611c-0.409,0-0.743,0.333-0.743,0.743c0,0.409,0.333,0.743,0.743,0.743
				c0.41,0,0.744-0.333,0.744-0.743C12.668,13.944,12.335,13.611,11.925,13.611z"/>
		</g>
		<g>
			<path d="M12.456,14.354c0-0.293-0.238-0.53-0.531-0.53"/>
			<path d="M12.456,14.396c-0.024,0-0.042-0.019-0.042-0.042c0-0.269-0.219-0.488-0.489-0.488c-0.023,0-0.042-0.019-0.042-0.042
				c0-0.024,0.019-0.042,0.042-0.042c0.316,0,0.573,0.257,0.573,0.573C12.498,14.377,12.479,14.396,12.456,14.396z"/>
		</g>
	</g>
	<g class="st9">
		<g>
			<circle cx="10.335" cy="15.357" r="0.492"/>
			<path d="M10.335,15.892c-0.295,0-0.535-0.24-0.535-0.534s0.24-0.534,0.535-0.534c0.294,0,0.534,0.239,0.534,0.534
				S10.629,15.892,10.335,15.892z M10.335,14.908c-0.249,0-0.45,0.202-0.45,0.45s0.202,0.45,0.45,0.45
				c0.248,0,0.449-0.202,0.449-0.45S10.583,14.908,10.335,14.908z"/>
		</g>
		<g>
			<path d="M10.667,15.357c0-0.183-0.149-0.332-0.332-0.332"/>
			<path d="M10.667,15.4c-0.023,0-0.042-0.02-0.042-0.042c0-0.16-0.13-0.29-0.29-0.29c-0.023,0-0.042-0.02-0.042-0.042
				c0-0.023,0.019-0.042,0.042-0.042c0.206,0,0.374,0.167,0.374,0.374C10.709,15.38,10.69,15.4,10.667,15.4z"/>
		</g>
	</g>
</g>
<g id="bd-btn-tibbed" class="st12">
	<path class="st5" d="M3.482,14.18V4.946h1.634v3.665h3.125v1.492H5.116v4.22c0,0.241,0.014,0.425,0.057,0.567
		c0.042,0.143,0.128,0.27,0.284,0.37c0.156,0.1,0.398,0.142,0.739,0.142H8.1v1.492H6.068c-0.057,0-0.143,0.014-0.241,0.014
		c-0.796,0-1.378-0.27-1.762-0.795C3.667,15.572,3.482,14.933,3.482,14.18"/>
	<path class="st5" d="M15.174,4.946H13.54v7.742c0,0.056-0.015,0.127-0.015,0.241c0,0.541,0.142,1.137,0.412,1.79
		c0.27,0.667,0.711,1.236,1.307,1.719c0.597,0.483,1.364,0.725,2.301,0.725h0.2c0.979-0.043,1.776-0.27,2.415-0.682
		c0.639-0.413,1.094-0.938,1.377-1.563c0.284-0.625,0.426-1.278,0.426-1.974c0-0.057,0-0.1,0-0.128s0-0.071,0-0.113
		c0-0.881-0.199-1.634-0.596-2.245c-0.399-0.625-0.896-1.094-1.492-1.392c-0.597-0.298-1.165-0.455-1.733-0.455
		c-0.356,0-0.654,0.015-0.924,0.043v1.534c0.256-0.057,0.526-0.085,0.782-0.085c0.397,0,0.781,0.114,1.165,0.327
		c0.383,0.214,0.696,0.54,0.923,0.952c0.241,0.412,0.355,0.896,0.355,1.435c0,0.128,0,0.213-0.014,0.27
		c-0.199,1.719-1.151,2.586-2.855,2.586c-0.569,0-1.023-0.156-1.393-0.469c-0.369-0.313-0.624-0.739-0.795-1.279
		c-0.17-0.539-0.256-1.136-0.256-1.79V4.946H15.174z"/>
	<rect x="10.173" y="8.611" class="st5" width="1.492" height="8.296"/>
	<circle class="st5" cx="17.745" cy="12.759" r="1.444"/>
	<path class="st5" d="M31.191,10.993c-0.219-0.515-0.528-0.958-0.927-1.327c-0.399-0.37-0.862-0.653-1.391-0.849
		c-0.528-0.195-1.093-0.292-1.694-0.292c-0.19,0-0.376,0.012-0.558,0.036v1.49c0.204-0.036,0.424-0.055,0.664-0.055
		c0.436,0,0.855,0.101,1.259,0.305c0.403,0.204,0.737,0.522,1.002,0.953c0.265,0.432,0.41,0.969,0.436,1.614
		c0,0.456-0.102,0.912-0.306,1.368c-0.204,0.455-0.514,0.831-0.932,1.128c-0.417,0.296-0.928,0.445-1.532,0.445
		c-0.544,0-1.023-0.139-1.438-0.415c-0.415-0.276-0.734-0.649-0.958-1.117c-0.224-0.47-0.336-0.986-0.336-1.55V4.832h-1.538V12.9
		c0,0.775,0.182,1.496,0.544,2.16c0.364,0.666,0.87,1.199,1.521,1.599c0.651,0.399,1.386,0.605,2.203,0.617
		c0.886,0,1.656-0.213,2.308-0.637c0.652-0.424,1.149-0.988,1.49-1.692c0.34-0.704,0.51-1.456,0.51-2.256
		C31.521,12.073,31.411,11.507,31.191,10.993z"/>
	<path class="st5" d="M34.598,13.092l4.184-2.311c-0.234-0.24-0.48-0.431-0.739-0.574c-0.259-0.143-0.666-0.213-1.218-0.213
		c-0.544,0-1.021,0.136-1.43,0.406c-0.409,0.271-0.722,0.639-0.939,1.103c-0.219,0.464-0.328,0.977-0.328,1.539
		c0.023,0.467,0.144,0.914,0.363,1.339c0.219,0.427,0.534,0.77,0.944,1.033c0.411,0.262,0.896,0.394,1.458,0.394
		c0.852-0.017,1.488-0.245,1.908-0.683c0.42-0.437,0.718-1.092,0.891-1.963l1.543,0.214c-0.009,0.407-0.108,0.834-0.298,1.282
		c-0.189,0.448-0.473,0.874-0.85,1.28c-0.377,0.406-0.845,0.734-1.401,0.985c-0.557,0.251-1.19,0.38-1.9,0.389
		c-0.741,0-1.441-0.191-2.101-0.573c-0.66-0.382-1.186-0.897-1.579-1.547c-0.394-0.649-0.59-1.348-0.59-2.099
		c0-0.761,0.129-1.432,0.387-2.014c0.258-0.583,0.601-1.063,1.028-1.44c0.427-0.378,0.894-0.658,1.399-0.84
		c0.505-0.182,1.003-0.273,1.494-0.273c0.96,0,1.767,0.217,2.42,0.652c0.655,0.435,1.218,1.104,1.691,2.011l-5.671,3.15
		L34.598,13.092z"/>
	<path class="st5" d="M49.252,4.866h1.538v8.209c0,0.533-0.148,1.131-0.447,1.793c-0.297,0.663-0.774,1.235-1.431,1.718
		c-0.657,0.484-1.478,0.725-2.463,0.725c-0.742-0.017-1.382-0.165-1.923-0.44c-0.542-0.276-0.978-0.63-1.311-1.062
		c-0.331-0.431-0.577-0.881-0.737-1.348c-0.16-0.467-0.254-0.923-0.282-1.368c0-0.749,0.121-1.409,0.361-1.98
		c0.241-0.572,0.552-1.043,0.935-1.413c0.382-0.37,0.796-0.65,1.242-0.842c0.446-0.19,0.879-0.29,1.298-0.298
		c1.158,0,2.028,0.192,2.609,0.576v1.646c-0.741-0.503-1.565-0.753-2.472-0.753c-0.696,0.074-1.279,0.361-1.748,0.861
		c-0.469,0.5-0.704,1.159-0.704,1.977c0,0.162,0.006,0.284,0.017,0.367c0.054,0.639,0.237,1.153,0.547,1.543
		c0.311,0.39,0.671,0.666,1.083,0.825c0.41,0.16,0.801,0.239,1.172,0.239c0.573-0.012,1.063-0.163,1.471-0.455
		c0.407-0.292,0.717-0.693,0.928-1.206s0.317-1.09,0.317-1.737V4.866z"/>
	<polygon class="st1" points="80,0 65,0 58.169,11 65,22 80,22 90,22 90,0 	"/>
</g>
<rect x="70.125" y="8.19" class="st8" width="18.375" height="6.01"/>
<text id="bd-btn-counter" transform="matrix(1 0 0 1 73.3809 14.0381)" class="st7 st2 st3">123</text>
<rect id="bd-btn-cover" class="st8" width="90" height="22"/>
</svg>
