<?xml version="1.0" encoding="utf-8"?>
<!-- Generator: Adobe Illustrator 16.0.0, SVG Export Plug-In . SVG Version: 6.00 Build 0)  -->
<!DOCTYPE svg PUBLIC "-//W3C//DTD SVG 1.1//EN" "http://www.w3.org/Graphics/SVG/1.1/DTD/svg11.dtd">
<svg version="1.1" id="Layer_1" xmlns="http://www.w3.org/2000/svg" xmlns:xlink="http://www.w3.org/1999/xlink" x="0px" y="0px"
	 width="153.333px" height="115.38px" viewBox="0 0 153.333 115.38" enable-background="new 0 0 153.333 115.38"
	 xml:space="preserve">
<circle id="BUBBLECOUNT" fill="#8BBC3F" cx="124.239" cy="29.097" r="28.245"/>
<path id="BUBBLETOP" fill="#8CC63F" d="M58.696,0.852c-31.066,0-56.25,25.184-56.25,56.25c0,15.533,6.296,29.596,16.476,39.775
	l79.55-79.55C88.292,7.147,74.229,0.852,58.696,0.852z"/>
<path id="BUBBLEBOTTOM" fill="#8BBC3F" d="M18.922,96.876c10.179,10.179,24.241,16.475,39.774,16.475
	c31.066,0,56.25-25.184,56.25-56.25c0-15.533-6.296-29.596-16.475-39.775L18.922,96.876z"/>
<text id="COUNTER" transform="matrix(1 0 0 1 112.6958 34.5249)" fill="#FFFFFF" font-family="'Systopie'" font-size="18">123</text>
<path id="LTR-t" fill="#FFFFFF" d="M13.102,63.245V45.431h3.152v7.071h6.029v2.877h-6.029v8.14c0,0.466,0.027,0.822,0.109,1.096
	c0.083,0.274,0.247,0.521,0.548,0.712c0.301,0.192,0.767,0.274,1.425,0.274h3.672v2.878H18.09c-0.11,0-0.274,0.027-0.466,0.027
	c-1.535,0-2.658-0.521-3.398-1.535C13.458,65.931,13.102,64.698,13.102,63.245"/>
<path id="LTR-b" fill="#FFFFFF" d="M35.657,45.431h-3.152v14.937c0,0.109-0.027,0.247-0.027,0.466c0,1.042,0.274,2.192,0.794,3.454
	c0.521,1.288,1.371,2.384,2.521,3.315C36.945,68.534,38.425,69,40.234,69h0.384c1.891-0.083,3.426-0.521,4.659-1.316
	c1.233-0.794,2.11-1.809,2.658-3.015c0.548-1.206,0.822-2.466,0.822-3.81c0-0.11,0-0.192,0-0.247c0-0.055,0-0.137,0-0.219
	c0-1.699-0.383-3.151-1.151-4.33c-0.768-1.206-1.727-2.11-2.878-2.686c-1.151-0.575-2.247-0.876-3.344-0.876
	c-0.685,0-1.261,0.027-1.781,0.082v2.959c0.493-0.109,1.014-0.165,1.508-0.165c0.767,0,1.507,0.219,2.247,0.63
	c0.74,0.412,1.343,1.042,1.782,1.836c0.466,0.795,0.685,1.727,0.685,2.768c0,0.247,0,0.411-0.027,0.521
	c-0.384,3.316-2.22,4.988-5.509,4.988c-1.096,0-1.973-0.302-2.686-0.904c-0.712-0.603-1.206-1.425-1.535-2.467
	c-0.329-1.042-0.494-2.193-0.494-3.453V45.431H35.657z"/>
<rect id="LTR-i" x="26.01" y="52.502" fill="#FFFFFF" width="2.878" height="16.005"/>
<circle id="tib-dot" fill="#FFFFFF" cx="40.759" cy="60.26" r="2.786"/>
<g id="BED">
	<path fill="#FFFFFF" d="M66.937,57.324c-0.415-0.971-0.998-1.807-1.751-2.505c-0.753-0.699-1.629-1.233-2.627-1.602
		c-0.998-0.368-2.064-0.552-3.199-0.552c-0.359,0-0.709,0.022-1.051,0.067v2.812c0.385-0.067,0.8-0.104,1.253-0.104
		c0.823,0,1.615,0.191,2.377,0.577c0.76,0.385,1.391,0.985,1.892,1.799c0.5,0.815,0.774,1.83,0.823,3.047
		c0,0.859-0.192,1.721-0.577,2.582c-0.384,0.86-0.97,1.57-1.759,2.13c-0.788,0.559-1.751,0.84-2.892,0.84
		c-1.027,0-1.933-0.261-2.714-0.784c-0.784-0.523-1.386-1.226-1.808-2.109c-0.422-0.887-0.634-1.861-0.634-2.926V45.693h-2.904
		v15.234c0,1.463,0.343,2.824,1.028,4.079c0.687,1.256,1.644,2.262,2.873,3.018c1.229,0.755,2.616,1.144,4.16,1.166
		c1.673,0,3.125-0.401,4.357-1.203c1.231-0.801,2.169-1.866,2.812-3.195c0.643-1.329,0.964-2.749,0.964-4.26
		C67.558,59.363,67.351,58.295,66.937,57.324z"/>
	<path fill="#FFFFFF" d="M73.368,61.29l7.899-4.364c-0.441-0.453-0.907-0.813-1.396-1.083c-0.489-0.269-1.255-0.403-2.3-0.403
		c-1.027,0-1.927,0.256-2.698,0.767c-0.772,0.511-1.365,1.206-1.775,2.082c-0.413,0.876-0.618,1.845-0.618,2.905
		c0.044,0.882,0.272,1.726,0.686,2.529c0.415,0.806,1.009,1.454,1.783,1.951c0.775,0.495,1.691,0.742,2.751,0.742
		c1.608-0.032,2.81-0.462,3.603-1.289c0.793-0.824,1.355-2.061,1.683-3.707l2.913,0.404c-0.017,0.768-0.204,1.575-0.562,2.42
		c-0.357,0.845-0.893,1.65-1.605,2.416c-0.712,0.767-1.595,1.386-2.646,1.86c-1.053,0.474-2.248,0.717-3.588,0.735
		c-1.398,0-2.72-0.361-3.965-1.083c-1.245-0.72-2.239-1.692-2.981-2.919c-0.743-1.227-1.114-2.546-1.114-3.963
		c0-1.437,0.244-2.704,0.73-3.804c0.487-1.101,1.134-2.007,1.941-2.72c0.807-0.713,1.688-1.241,2.643-1.585
		c0.955-0.344,1.896-0.516,2.82-0.516c1.813,0,3.337,0.41,4.571,1.23c1.235,0.822,2.299,2.086,3.192,3.796l-10.708,5.948
		L73.368,61.29z"/>
	<path fill="#FFFFFF" d="M101.035,45.757h2.905v15.5c0,1.005-0.281,2.135-0.843,3.385c-0.562,1.251-1.463,2.333-2.703,3.244
		c-1.24,0.912-2.791,1.369-4.652,1.369c-1.399-0.032-2.609-0.311-3.631-0.832s-1.846-1.19-2.474-2.006
		c-0.626-0.814-1.09-1.664-1.391-2.545c-0.301-0.881-0.479-1.742-0.533-2.582c0-1.416,0.228-2.661,0.682-3.739
		c0.455-1.08,1.042-1.969,1.765-2.667c0.721-0.699,1.502-1.229,2.344-1.591c0.842-0.359,1.659-0.548,2.451-0.563
		c2.186,0,3.828,0.362,4.926,1.089v3.107c-1.399-0.948-2.955-1.421-4.667-1.421c-1.314,0.14-2.415,0.681-3.299,1.625
		c-0.886,0.944-1.329,2.188-1.329,3.733c0,0.305,0.011,0.537,0.032,0.692c0.103,1.207,0.447,2.177,1.034,2.913
		c0.586,0.737,1.267,1.256,2.042,1.559c0.775,0.301,1.513,0.453,2.213,0.453c1.082-0.023,2.008-0.309,2.778-0.86
		c0.77-0.552,1.354-1.31,1.752-2.275c0.398-0.967,0.598-2.059,0.598-3.281V45.757z"/>
</g>
<circle id="tib-dot_1_" fill="#FFFFFF" cx="59.461" cy="60.26" r="2.786"/>
</svg>
